<mxfile host="Electron" modified="2023-04-24T21:35:59.077Z" agent="Mozilla/5.0 (Macintosh; Intel Mac OS X 10_15_7) AppleWebKit/537.36 (KHTML, like Gecko) draw.io/21.2.1 Chrome/112.0.5615.87 Electron/24.1.2 Safari/537.36" etag="BmQqIPRaqf59vf51Zb85" version="21.2.1" type="device">
  <diagram id="pe06soAly0J2VH7pr7Gp" name="Page-1">
    <mxGraphModel dx="2212" dy="971" grid="1" gridSize="10" guides="1" tooltips="1" connect="1" arrows="1" fold="1" page="1" pageScale="1" pageWidth="850" pageHeight="1100" math="0" shadow="0">
      <root>
        <mxCell id="0" />
        <mxCell id="1" parent="0" />
        <mxCell id="up1Xrg0N40dvPqba2eU4-7" style="vsdxID=18;fillColor=#d5e8d4;shape=stencil(vVTbjoQgDP0aHiUIxsvzXP6D7KCSZcRUdnX/fjHV2ZGRfZr41suh7TkpJeI0tLJXhLPBgf1Uo765logz4Vx3rQLtvEXEhYhTbUE1YL+6G/q9nJGzdbffc4UJ36VsfsLZz+qif0Ws0d0TtnobVsKHz8FjBsozhMOC5yUtCwxN2wprxSKlZbogEjnpIQHrpNO2w/yCNhIalfh+SW1ks0kNo1L9S3iXTdjcj5dWcUIVzfKAT07zcsMnEIgdRWW3b4T0O5ChMqsMD2UKKjbCxJQ+QJvYhsW2llUvW5tlwdbufoNDVva/D+iNv4tQa2PwoDznwwviQ3h9xOUX);points=[[1,0.5,0],[0.5,0.5,0],[0.5,0,0],[0.03,0.08,0],[0.97,0.08,0],[0.03,0.92,0],[0.97,0.92,0]];labelBackgroundColor=none;rounded=0;html=1;whiteSpace=wrap;strokeColor=#33001A;strokeWidth=3;" parent="1" vertex="1">
          <mxGeometry x="160" y="210" width="247" height="121" as="geometry" />
        </mxCell>
        <mxCell id="up1Xrg0N40dvPqba2eU4-9" value="&lt;div style=&quot;font-size: 1px&quot;&gt;&lt;font style=&quot;font-size:14.11px;font-family:Calibri;color:#000000;direction:ltr;letter-spacing:0px;line-height:120%;opacity:1&quot;&gt;&lt;b&gt;Providers EHRs&lt;/b&gt;&lt;br&gt;&lt;/font&gt;&lt;/div&gt;" style="verticalAlign=middle;align=center;vsdxID=3;fillColor=none;gradientColor=none;shape=stencil(nZBLDoAgDERP0z3SIyjew0SURgSD+Lu9kMZoXLhwN9O+tukAlrNpJg1SzDH4QW/URgNYgZTkjA4UkwJUgGXng+6DX1zLfmoymdXo17xh5zmRJ6Q42BWCfc2oJfdAr+Yv+AP9Cb7OJ3H/2JG1HNGz/84klThPVCc=);strokeColor=none;points=[[0.5,1,0],[1,0.5,0],[0.5,0,0],[0,0.5,0],[0.5,0.5,0]];labelBackgroundColor=none;rounded=0;html=1;whiteSpace=wrap;" parent="1" vertex="1">
          <mxGeometry x="193" y="249" width="181" height="31" as="geometry" />
        </mxCell>
        <mxCell id="up1Xrg0N40dvPqba2eU4-10" value="&lt;div style=&quot;font-size: 1px&quot;&gt;&lt;font style=&quot;font-size:14.11px;font-family:Calibri;color:#000000;direction:ltr;letter-spacing:0px;line-height:120%;opacity:1&quot;&gt;&lt;b&gt;FHIR-Server Enabled&lt;br&gt;&amp;nbsp;Coordination Platform&amp;nbsp;&lt;br&gt;&lt;br&gt;&lt;br&gt;&lt;/b&gt;&lt;br&gt;&lt;/font&gt;&lt;/div&gt;" style="verticalAlign=middle;align=center;vsdxID=11;fillColor=#e1d5e7;shape=stencil(vVTbksIgDP0aHsu0sCp9dvU/GKUtI1s6Ka7175dO2lWw+OT0LZcTknMmhPB938hOEZb3DuxF3fTZNYR/E8Z02yjQzluEHwjfVxZUDfbantHv5IgcrR/7O74wYF2RjyUsv88u+kfEGt0+YcuPYSWcfA7+Z6AFomGGC7rDyBDWz++Jgn6JCZHJQfcZWCedti3mJ7SRUKvMd8sqI+sg1d+U6l7Ci1zi5n66DUvTKV/YbKnYBHQidfK1mCz2TXD+BDIWZpLtocyObnmgTErpFcRJbVhqZ7mIyJSUMRJu7eInWGVl330/bzzuQaWNwXPynI/vhw/h7eGHPw==);points=[[1,0.5,0],[0.5,0.5,0],[0.5,0,0],[0.03,0.05,0],[0.97,0.05,0],[0.03,0.95,0],[0.97,0.95,0]];labelBackgroundColor=none;rounded=0;html=1;whiteSpace=wrap;strokeColor=#33001A;strokeWidth=3;" parent="1" vertex="1">
          <mxGeometry x="540" y="215" width="170" height="105" as="geometry" />
        </mxCell>
        <mxCell id="up1Xrg0N40dvPqba2eU4-11" value="&lt;div style=&quot;font-size: 1px&quot;&gt;&lt;font style=&quot;font-size:14.11px;font-family:Calibri;color:#000000;direction:ltr;letter-spacing:0px;line-height:120%;opacity:1&quot;&gt;&lt;b&gt;Patient&lt;/b&gt;&lt;br&gt;&lt;/font&gt;&lt;/div&gt;" style="verticalAlign=middle;align=center;vsdxID=12;fillColor=#f5f5f5;shape=stencil(vVTBkoMgDP0ajjII1dZza/+D2aIypeJE2rp/vzip3UK1p463JO+R8EIIEfu+kZ0inPUO7Fnd9ck1RBwI57ptFGjnLSJKIvaVBVWDvbYn9Ds5MkfrYm9jhgHPpWw8wtnv5KJ/RK7R7Qu3+BpXwo/H4HkHynOkw4O/YTTNMDSEGaaMOaO7iZHIQfcJWCedti3iD7aRUKvE10sqI+sA6u9KdW/hWTVxcVFM15sV5NFQjshongZyov6wtZTM1l3Q/A1m3JiMR53ZPt9+CDS9dXqF5ixN2OLUxs9c0CKe2tlvsMrIfvqA3vjfCJU2BhfKKx5vEB/C7SPKPw==);points=[[1,0.5,0],[0.5,0.5,0],[0.5,0,0],[0.03,0.11,0],[0.97,0.11,0],[0.03,0.89,0],[0.97,0.89,0]];labelBackgroundColor=none;rounded=0;html=1;whiteSpace=wrap;fontColor=#333333;strokeColor=#33001A;strokeWidth=3;" parent="1" vertex="1">
          <mxGeometry x="540" y="80" width="169" height="80" as="geometry" />
        </mxCell>
        <mxCell id="up1Xrg0N40dvPqba2eU4-12" value="&lt;b style=&quot;font-family: Calibri; font-size: 14.11px;&quot;&gt;FHIR-Server&lt;br&gt;&amp;nbsp;Enabled&lt;/b&gt;&lt;div style=&quot;font-size: 1px&quot;&gt;&lt;font style=&quot;font-size:14.11px;font-family:Calibri;color:#000000;direction:ltr;letter-spacing:0px;line-height:120%;opacity:1&quot;&gt;&lt;b&gt;Community Based Organization&lt;/b&gt;&lt;br&gt;&lt;/font&gt;&lt;/div&gt;" style="verticalAlign=middle;align=center;vsdxID=13;fillColor=#f8cecc;shape=stencil(vVTbEoIgEP0aHmUQjOq57D+YRGUicVYq+/tw0ElRe2p828tZlrM3xE5NKWqJKGksmJt8qcyWiJ0RpaoqJSjrJMRSxE65AVmAeVSZ12vRITvpbp7dC62Pi0kXQsl7UL1+8VitqhH2+DesgKvzwYDFBw+GHk13mPSmdho/vLdPcNIDItGqJgJjhVWm8u4erAUUMnLJolyLYuJqXlLWM/MilTC3+x3/RYbvAjYJ5scJm6A4ZCsmi3lXOP8DOWvzftZnyieVWan0BrVZma9FJjHBMQ+ocExoMLKLG7DJwP7aPSd8j0GutPa3ZOwPj4cz+cPD0g8=);points=[[0,0.5,0],[1,0.5,0],[0.5,1,0],[0.5,0,0],[0.03,0.04,0],[0.97,0.04,0],[0.03,0.96,0],[0.97,0.96,0]];labelBackgroundColor=none;rounded=0;html=1;whiteSpace=wrap;strokeColor=#33001A;strokeWidth=3;" parent="1" vertex="1">
          <mxGeometry x="863" y="311" width="167" height="99" as="geometry" />
        </mxCell>
        <mxCell id="up1Xrg0N40dvPqba2eU4-29" value="&lt;div style=&quot;font-size: 1px&quot;&gt;&lt;font style=&quot;font-size:14.11px;font-family:Calibri;color:#000000;direction:ltr;letter-spacing:0px;line-height:120%;opacity:1&quot;&gt;&lt;b&gt;FHIR-Application Enabled&lt;br&gt;Community Based Organization&lt;/b&gt;&lt;br&gt;&lt;/font&gt;&lt;/div&gt;" style="verticalAlign=middle;align=center;vsdxID=56;fillColor=#f8cecc;shape=stencil(vVTbEoIgEP0aHmUQjOq57D+YRGUicVYq+/tw0ElRe2p828tZlrM3xE5NKWqJKGksmJt8qcyWiJ0RpaoqJSjrJMRSxE65AVmAeVSZ12vRITvpbp7dC62Pi0kXQsl7UL1+8VitqhH2+DesgKvzwYDFBw+GHk13mPSmdho/vLdPcNIDItGqJgJjhVWm8u4erAUUMnLJolyLYuJqXlLWM/MilTC3+x3/RYbvAjYJ5scJm6A4ZCsmi3lXOP8DOWvzftZnyieVWan0BrVZma9FJjHBMQ+ocExoMLKLG7DJwP7aPSd8j0GutPa3ZOwPj4cz+cPD0g8=);points=[[0,0.5,0],[1,0.5,0],[0.5,1,0],[0.5,0,0],[0.03,0.04,0],[0.97,0.04,0],[0.03,0.96,0],[0.97,0.96,0]];labelBackgroundColor=none;rounded=0;html=1;whiteSpace=wrap;strokeColor=#33001A;strokeWidth=3;" parent="1" vertex="1">
          <mxGeometry x="863" y="200" width="167" height="94" as="geometry" />
        </mxCell>
        <mxCell id="up1Xrg0N40dvPqba2eU4-48" parent="1" vertex="1">
          <mxGeometry x="430" y="310" as="geometry" />
        </mxCell>
        <mxCell id="up1Xrg0N40dvPqba2eU4-99" value="" style="group" parent="1" vertex="1" connectable="0">
          <mxGeometry x="863" y="260" width="37" height="33.5" as="geometry" />
        </mxCell>
        <mxCell id="up1Xrg0N40dvPqba2eU4-100" value="" style="sketch=0;aspect=fixed;pointerEvents=1;shadow=0;dashed=0;html=1;strokeColor=none;labelPosition=center;verticalLabelPosition=bottom;verticalAlign=top;align=center;fillColor=#00188D;shape=mxgraph.mscae.enterprise.client_application" parent="up1Xrg0N40dvPqba2eU4-99" vertex="1">
          <mxGeometry width="35.07558888888889" height="22.446666666666665" as="geometry" />
        </mxCell>
        <mxCell id="up1Xrg0N40dvPqba2eU4-101" value="" style="shape=image;imageAspect=0;aspect=fixed;verticalLabelPosition=bottom;verticalAlign=top;fontSize=13;fontColor=#000066;strokeColor=#000000;strokeWidth=3;fillColor=default;image=data:image/png,iVBORw0KGgoAAAANSUhEUgAAAIAAAACACAYAAADDPmHLAAAACXBIWXMAAAsTAAALEwEAmpwYAAAFFmlUWHRYTUw6Y29tLmFkb2JlLnhtcAAAAAAAPD94cGFja2V0IGJlZ2luPSLvu78iIGlkPSJXNU0wTXBDZWhpSHpyZVN6TlRjemtjOWQiPz4gPHg6eG1wbWV0YSB4bWxuczp4PSJhZG9iZTpuczptZXRhLyIgeDp4bXB0az0iQWRvYmUgWE1QIENvcmUgNi4wLWMwMDIgNzkuMTY0MzUyLCAyMDIwLzAxLzMwLTE1OjUwOjM4ICAgICAgICAiPiA8cmRmOlJERiB4bWxuczpyZGY9Imh0dHA6Ly93d3cudzMub3JnLzE5OTkvMDIvMjItcmRmLXN5bnRheC1ucyMiPiA8cmRmOkRlc2NyaXB0aW9uIHJkZjphYm91dD0iIiB4bWxuczp4bXA9Imh0dHA6Ly9ucy5hZG9iZS5jb20veGFwLzEuMC8iIHhtbG5zOmRjPSJodHRwOi8vcHVybC5vcmcvZGMvZWxlbWVudHMvMS4xLyIgeG1sbnM6cGhvdG9zaG9wPSJodHRwOi8vbnMuYWRvYmUuY29tL3Bob3Rvc2hvcC8xLjAvIiB4bWxuczp4bXBNTT0iaHR0cDovL25zLmFkb2JlLmNvbS94YXAvMS4wL21tLyIgeG1sbnM6c3RFdnQ9Imh0dHA6Ly9ucy5hZG9iZS5jb20veGFwLzEuMC9zVHlwZS9SZXNvdXJjZUV2ZW50IyIgeG1wOkNyZWF0b3JUb29sPSJBZG9iZSBQaG90b3Nob3AgMjEuMSAoV2luZG93cykiIHhtcDpDcmVhdGVEYXRlPSIyMDIxLTAyLTA4VDEzOjIwOjE0LTA1OjAwIiB4bXA6TW9kaWZ5RGF0ZT0iMjAyMS0wMi0wOFQxMzoyNToyMi0wNTowMCIgeG1wOk1ldGFkYXRhRGF0ZT0iMjAyMS0wMi0wOFQxMzoyNToyMi0wNTowMCIgZGM6Zm9ybWF0PSJpbWFnZS9wbmciIHBob3Rvc2hvcDpDb2xvck1vZGU9IjMiIHBob3Rvc2hvcDpJQ0NQcm9maWxlPSJzUkdCIElFQzYxOTY2LTIuMSIgeG1wTU06SW5zdGFuY2VJRD0ieG1wLmlpZDpmZmQ3MWYyOS1kNTg0LTQ3NGUtOTE5Zi0zMmM2N2ZiMDExMzIiIHhtcE1NOkRvY3VtZW50SUQ9InhtcC5kaWQ6ZmZkNzFmMjktZDU4NC00NzRlLTkxOWYtMzJjNjdmYjAxMTMyIiB4bXBNTTpPcmlnaW5hbERvY3VtZW50SUQ9InhtcC5kaWQ6ZmZkNzFmMjktZDU4NC00NzRlLTkxOWYtMzJjNjdmYjAxMTMyIj4gPHhtcE1NOkhpc3Rvcnk+IDxyZGY6U2VxPiA8cmRmOmxpIHN0RXZ0OmFjdGlvbj0iY3JlYXRlZCIgc3RFdnQ6aW5zdGFuY2VJRD0ieG1wLmlpZDpmZmQ3MWYyOS1kNTg0LTQ3NGUtOTE5Zi0zMmM2N2ZiMDExMzIiIHN0RXZ0OndoZW49IjIwMjEtMDItMDhUMTM6MjA6MTQtMDU6MDAiIHN0RXZ0OnNvZnR3YXJlQWdlbnQ9IkFkb2JlIFBob3Rvc2hvcCAyMS4xIChXaW5kb3dzKSIvPiA8L3JkZjpTZXE+IDwveG1wTU06SGlzdG9yeT4gPC9yZGY6RGVzY3JpcHRpb24+IDwvcmRmOlJERj4gPC94OnhtcG1ldGE+IDw/eHBhY2tldCBlbmQ9InIiPz4nnaAOAAAXvUlEQVR42u2deXzbVLbH57/SQKlLN7olTuLEdqDUpRS6PKiBshaKYdg6PMBQGAZ4QIB58NjNUtZ+MAw7lJoOy0zZDAVmWApuC6VsxQW60BJwszp24iiJncSSnJ535CiuJd0ry07KJLby+Xw/SSzp2Nbvd889917J/gMA/GFfMNx/wqYqw1B5LftKo6ROugGoBnAhRt0AhWsAJ+LTDVC4BrAjIPxW2y/+XGm1boD8NoAvgwHsiE03QP4ZwCgaQDULiAZw6AbIMwOIJoBMWQDFNyIu3QD5bYBMWcCtGyD/DaCWBXy6AfLfAAI23QCFbQCPboDCNgCQpoh1AxSWAaoJw0DdAAVkgIBugMKYCLJRDCApBlF8pz4MzO+pYFArBoVJIH0iKH9XA2kGYNIM4BWygG6APDNAyFTlQkAFh2iAgFAH6AbIPwP4MhjAg8IbEBB+6wbIPwMwGQzAxJ8vdQgZYF+/Ft0Av7/4xgziJ+lylfvjL5R6M8VrNVrsiBdhkADiQYy6AYauAaq1GKDn0TJgX1S/IgiFdorCu0Qj2MTHBCPYdAMMTQN4M4nfOt8CrMcI7EqjTUV8gyi+ILoP8YsIfzuEv3UDDD3xDVpaf/QGE/RgARhSuXy8P/WLf/vE/40IiI8FtHQFugGGWPoPH2oFLAAheqNJ+N+ewQCuNAMIgoPQBaSbQjfAUDJAWVUAATWYP1YC+4oR2haZhf9dKgaw9af5tAzgF9N/f/dg0A0wdMR30kQPmvb+HX862ff3/+/LUAT6xaLPLRrCJo4IhJGAR68BhtBPczm2/nIUlUDQ2vc7stAM3OoSiN5Unvwfj2EyGMAomsAjtnynmA18Wlq/boDfT3xnc5+gRIIz+353P1QK3BvFEDnBnL49o5Ci8C4Rhz4RNLTENwgtmWoACxrgSGz9J5qBf2saxFeUyPfR1wKGuQHcaq2/eToaYD5W/iuLgXtnGrRfYpLvU60bYJgaQGi9quILYOtvv9kE/Jqp2P9PhRAOA2X7uHQDDEMDZEz9IqFTrcB5pwD/wWSI3Wkk7ePVDTCEDUCbrBGEy9j6hcLv2WJIfDgpSfhIC2kf/ZrAoWoAFN8ZItzQIaRtLeJHTquAxMcHJ+m6u4S2n26AoWiAUFlVtTC5QxDfoUX80HRM/a9Pgt5PJyRpIbf+jHMBugH+M+J7EDdBfJuWfj+Z+t1TIeGbkCT2QInqvroBhogBxMJO6Ns9lG1+LeK3X1wGiQ3jk/BrJ0LLBRbNBgiWVxkFdAP8/uIbRYGJ6+woij8ozOplIHyUGfhPsOVvHJ8k9kwJhM9XP0b2PIbgINYFugG0id+f2v2kqVkUxKNF/Gbs9+OrJ0Liq7FJOOz7W6+1YgawajaA+HzC49W6AX7feXzBADaCGG4t4gvElk+GxDdjUrQ/WAatN1ggfHZOBmCC5QP/vEHdAOriu9Tm5FEAp1bxmaVGSGw2pOh+cxJEbrIkCZ+magCf7Dltads8ugH2nfieNPGdBPEdWsVvWWgCfsuBKbhvDNB2VyVEbrUkCS/OygB22XajboDBr/TTq3k3QXybmIIz9/uHWYDbNAr4H/dP0YmFX+QOS4qwQ9UAXjUDNA1wqlg3gLLY86vNwolVuGbx4+8bgN9WlKL7g/HQ5rJICNlVDSBZDELB7U19wqdj1w0wwB9Cq/bLiyxRfL/mou9JHOr9PDIF9/0oYB6qhLb7LBJC81UN4JQZwEUwgEc3wMDElxdzghFIFb9Xq/gdd2HFXzNSQsczpcA8YFbQPEM1lqR1N5WhAcpQdDmludUCBW8AYTxNOOmOgQz3mCuLgf+tSELMOxmYhyuJZDMERKF9CBDw6AbIXnxPpj5XTLuah3vhk7DiryuSEN+MY/5HK4lEbjSrxfMTDBCgGIBBDLoBtAlvoIjvI4hvQxhCv6sgNL8SuJ+x4m/YPwUXGIVVfzl0PF5BJPIXs1pMt0x8A0X8fqp1A2gTn1TIKWbWUAAD4tcifnCGFXrWTUDRx0iIrTZC51OVVMKnW9TiOmQGcGQwQEA3QG7iK4ot8YR7iAUXge73pwLfOFFCz2fF0PlspSrNNpW4ckOWVrkzGEDAphsge/FdBPEdGk52kuiKMhR8qgT2p2KIvmBSpWN5hVpcH+E1+TW8Ho9uAGU/rpbKSSfaIBZVGcVvu9qCgpdJqS2D2MvlEF1pUiVyhVlzf66h/08Vg7oBtIsvFHdGggG8Wk52+MQqFNyioHuNCWKryjMSmmtViy9P/06tGUnIXroBtKVNZ66pPzi9Cridh6HgUuIbLdD1anlGok+a1OIr5vcby6q8CGjEoxugv4jL4iRnk/p71h8OfNMsCdz2GdD1jzJNtF1WqbkFo6CGLMQXYAreABlSJnHSJINhUnQ+djgkmo6SwNcdiam/ArpeL9NE8+FWzUM5FNSZpQEEbAVrAGEolO2ECT5m1yJ+5GIbCj5fQdxnhe63SzXRfotq+ncSDODLwQCugjSAmMb92QyvxJPsz3RSm+dNB37XMZAILpDAbZ8NPe+WaCZ0tIX2HKTWb8xBfAF/oRrAne1EidYUG99gR8EXSqldAPF/GyH+/jRNRN2las9Bav2uHA0AjRquGcwrAwj9XoaT4iYcIxRYgUwns2PZXEg0n6yA/dyMBpiqmfBJZs2tP2loS1UAgRyxF5oB1NI4I4idSwsLnTQTxT5dAb/1SGA/nqyZjruNWbX+JhsWssJUce64CsYAGtK4i9L6mYyp//NTUfAzpTQuBnbdNGA/naSZ5tnUvp9YlzTNqfI1HYVC5o6vIAygIY3n3PqZW45Gwc9RwG0+FA0wSTPM9WVZDdmaFuCo5BgUcWAwhWGAShSyAk8kDRM5FTaZqxgEaARnYdVfcx4K/icJfOAU4D4/WDM970yG4Ewr8TnwtRO/Eia4sMqLwIA5Uf1SsbwwQNMMLJRm4AklwzQdQpj00dC/xl7G1B+6UAH3TTFwX07QTOvFJvJzCK97+iHKW80WWW3BU1C8weBU9XWBYW+Apnko5Fw8mXTclP41gACN0OKZwIecSnbOA+7rcZqJvTCF+hzYRxOr9OAZVT4EBglXXhsgeFyVHwEqxxJW+xZUORBQI7p6MfDhy6Q0LcG+H9P6t2M1wW4YB80nWcnPcQx5wSZ0ttUe+qMVBhFP3hoA05sNASqnkKvg4AnYv56A2ymElxyOgl+hgPt5JnDfj9FMpLqM9hyB4PHkSZrQ+VYfAoOIL28N0HxmlRsBKg7CPX2nVRlVTYPE3j4LBb9KSvBi4LaM1kx05SQ1YxJTf/hCqxOBQSaQtwYInWdlEKBytlXRytAU1QjQCC05DPiWaxVwNdj6fzpQE/ENY7DlWYjxsU8m1iThpVZD+BIrg8Bgk5cGCF9ktWVwvo/SxwYQoNHx9Cko+PVSmrH/33aAZlr/x0SL7w+dZSWm/vCfre7w5fi69wVXWA35Z4ClVhcCKiiWfEN/stpCS1AIFdidV6Pof5USmAX8jgM00fH4VHr8863ENfqWq622liutsA+x550B8E35sn3TmDVcCNCI3DIHEq03SxH6/11Fmuh+bxw1NmYk6k0bLddY/Qhoof1vJaB13zTy0ADCZ+uoQOln/WpZI/bOeZCI3Cql4Tjga4oywm4+EFquMpNjX0qvxFuvt1QjoBV2+4GQzf4i+WWA1v+12Fr/im+MjqLybfmL1Yh9IajB1dyIot8pgQ+MUdzoSSJyRzktLoP9O3E6tvUmixHfC4OAFtofK03ebqZ1/zTyzAC3mB0IqOAj9LNOBGhEbjsCBXdJaT4b+N1FGYm+OhlUYlOnYoXXmeF9SOj5+mA0wFjI5hiR/DJA5A6zCwEVFEOtlmqLp+U6FIRC52sOFP1eCXyjDfjaIlVYHPapxKV+fEvkdnM1AlrpeNqEr2dKkmyOE8kzA9yDBrgH3xgdxfw3dgt+tW6j27cURb9/L62Y/uuLMtLuLiXHvBFT+w3k7+2JuMzGyF1mBgGtxL81pe48yuY4kfwyQNv9lS4EVFAa4GZMhSpwgdsh0fbgXsJLMN0WqdK9YSw95k1maupHg/oyGFhC5yrhjqNDUmRzrEieGeCRChcCKkimgCO3me0I0Gi7ZzqKvlwCH8Sxf8MBqjAPmsgxbzVTq34N5pXAPILm3C29CSWb40XyywDtj5lcCKggecORO81OBGh0PH8siv6oBL5htCrdnx1Mi8dgDUKs+tserrC1CR8SlQXxr2dBommOhGxjIPllgI4nTS4EVLDLUq5qzRB9/QwU/fG9tF6PIh+kCvOoiRzvbjNx/b39UZOBWV7hR0Ar0bdnoODHKMgmhkDb8gpbXhmg8zmTCwEVJAZoW4Zpdxm2BApdH1+Iwj+xl9A5ig97kHzww6aptFiBtvsqiYUfZiV3hqwlofOlKuU9CCLZxBHIu8WgzhXlzs4Xy4FOmWTaFVOgSy1Fdq29CBLM0yn45uNR6GlUOl4qJ8d6sNJJOslCRup4AjOTRqIvH4ojDOG+g0VEsoklkHcGiK4qtSOggiQNYxp0qaVIdgeOANqfS8E3YdHVWE6E21VOS7PEdfeOZ0wGHMMzwjheC50vmIH/TRDaQUVrLJH8uyAk9kqpMfZqKajgkqVf1aKR/fkOFP6FFHxjFZWuD8zkOG4TsfV3Pm/yIqCF6Eqs+HcKN52cS4WvPwu0xkvynMmbl9cDxFYbGeETuChIroPDNOhSS5HsThcKv7IPYQawaSaVzhcrFce3P2Eitn7sihzYXYEWoqsqMbucifXHf6vCbT8dtMYUoV4Uiq/POGwN0PVWsQ8BCpK0h2nQpZYm2V13o/ir+mi7XzHs6ofbcQQthqL1R18qNUQ9pUzUUwaZiL2C4v9yDvkqZBnsDgdoiZkGdUIKX59n2Bqge81UFwIUArI07FJLk9wv90Gi45U+hGsAZLd/99OzbibpeOLdN9GXS70IZCL2jwrgas4HPny5JuL+RaAlboq/lxLnJLAbNeB2Zvga4IMptu5/TQEaslTnQoAG9+sy6O18LUkichOKfSKR2BtW0vGKhafYa6X2DDVKiviWM5QXoKoQ/+oE0BoboV4Qits8wvZhfVFoz8cHBxCgYN+bjsvsCNBgv78WxV/dR+Q2LLYWK+AbFpGP95QpJlli/zT6EchE/MezgG+5Lit61h8NWmKLEO8JwBrJJm73DW8DfDrBE/9sAlCoTkvHtpiQbinEv/0ziv9mH8nrAAg3g+44WXEcxlW0sK43S+xdb5RAJno2LURBb8ya7k+OAC3xRYgjE3zcL253DWsDxNdPsCFAwSNLy0AjvuliFP/tJIm2ZcT7AeObFpCOVaT/rrenebvexkJUhZ7185TXHmokU2wJbxUrZiW7vNPcafs4h/2tYfGNY/3sxrFAICBLe37asLF77ULojb6bJNH2MPa1SxV0fzqbdKwk/WPxaeh+F4tQFXo+sqChsM6I3J41fON1kCl+GorxP74+h2wf27A3APv1GCcCRL4ZY0xLzR4ESHS/a4He2PtJEh3PYqq9SkH3+xb5cYrqHwtTJwJq8HXXKC890wj3ixMyxU/x/hRJ+u/+12QbPs6k75M3t4ez340KIKBg8yhnWuqr7npnGtDobX8LDfBv7AZexVR7gwLFMd5pihbW8+Ekb8+Hk4EG++MZisvOsoH1nwxq8dNBwVPpv+ejSUZ8bYxsH1/+GMC/fzUCBLxp6c/Y/R6mPQr87gfRAB9hN/AWnuxbJPCN15COUcyw4ciDoY1K4l9Mx1gPDAghhsqoJ51U/dPzyUQD/u8n7OPKq88IYn8aGUBAwdaRhrQ0GECABPvDJWiAT5LIUy8fuIJ0jGTJGUckNgRo8I3Y77c9kjst94FafBnJ2gRHQkb820/Zx55fBtg20sluR8GVONNSoRsBEvEv5kBvly9JghEuDHkgBV97NekYyQxbfN2EagRIcD8sxDjuAcH/egnQ4svwpUZI6yYwlH2YvPyYOPbn/Xzszv1Ahi8tHdp61k4EGom2N6G3ez0Wgqukl4fVViv2lT93/PPxbgRIJEL3Si84yQHup4VAiy9hwwQ7/nYgDH2f8Z78NMAvI4wIKKgZkWqtmBb9cR+2AgL8b/+HBvgC64A1mAWeSsHvvka+r2KNHYedPtJwlNu2UHKxSa6wX00BynA3HR/75Vi3hv0ceftRsexvI1wIyEgVbNhCnAiQYL87Cg3wJXYD63FUsCIFX3OpfF+lAb4a40dADt8srDQ+PyD4huuAFDtHmLz/tHB29wgfW4vC74VBUsVg/ItxDLtxHJDobV+DJvgah4P/RF5JkmhySfbB4xVDQPbb0aDAX7r3OoMBwG2fD8T4ufDNaHf+G6AWu4I+0dNNkCoG2U0HuRAgwQeuhd6e73A08DF2BW8mSTQvk++nGAKym5PzDhK4msUo4N8HRtuzQIo9AIwF8YURbO1IO1tXBGkE0mYPDdgSGAQUbJ6CBvi+Lwv0zw6GHpbv5yLMRSjmIRKhu1LLzLnC7z4fKHMcueArqK+MYetGVbN1B8JeRjvTZg+dtFaSCD6AJvhBHBauxW7hNfk+SgP8iCaT0dv5+oBht44DUuyc+KHIXnBfGsXWjfOw9eNBhGHrJxrSWq2P1FK4rSbojf+EJtgMe7o3JpHtozTA1uSkUwpupwUFfGtAJILXgTzuAPAV7PcGsvVTvWz9NBBJicduKbLRWksi/BDsiW+DPYIJsCYQviEsbbvSALIJKO7XWakVxlzhdhYDZXIrF+wFbIByA1tf4efqK6EPizGt5VaTWgy3sxz2sDuRHcg24OvOTd/uIUxC+RHoh2+6COuHD3KGb74S0uMNEG/Bf3Us1zDdwDXM8HMNNuAaZvpkrddHajWJ8F0o/i+wh/sV/747fZtyHmAXDj134WhDhA86UcgPcwPTP1tzEKTHSyE8TttGhkGMBW+APhPMRhPMQRPMQRPMTV0yxu7Yz4CtJKBoObvGYzewBfbwtVgMfpq+TWmAmhEeBPrhmy9FMdfmBB88F9Jj9cPVzYbejteACxQTt1OoLvjvDpaYoHGBgWs81ss1HsdwjScY01qwTWwtkhbEN52PGaAWcCiAJ74i9XimGUjhKqLernVZIyxEyWcyudpiSERuS24XLgwlzHTS8Bb8V8fSjXCah2tc7Je1Yhv7K544Gb3RN2BPohX40NK9j/8mTavs7hF2BPrhWy7vW1fIhq4PsT4pTsXg6kuAb70h+Xj/drZ2LKQ/jwoBNjDCoBtA5QdTrZMPLvHIWrITTxykw9WVJ4vB3u616Y87ZLOPhvSZR771Ctx/U1bw4QuArRuLRjsDM8FyxXau+XiQzW7SEGZBC/ebQ7MzwUU2vvlig6w1O+UnlQ+djlmgDWuHyv7HXIQpaH///lzTHOjt+TY7Ymuo2xLM3VrFF3Boff8FbwCV9QSHfD0h0fEUJNof7v/fT5h+drN1OEpAuKbD+qaUB4FEdHXfRJYYW5Xa/ZzZvE/dAOomsPWZYD9IUj8B++E1KO7hID4mzRx1BzjYulHQT2/8xwGTiOGQsH4SpMelc4Az2/eoGyDjVHKRka3b34+AANdoRhO8B+L/TuX+BgYBgd7oK32ziTnSG3unb/ZSjKcCPudoWy7vTzeAtkUlA1t3oLd/UYkLzsE++Xbhb5/a2kOCuVecTcyeROcKYBtKIW0dg0zdODTnWFuu7003QFZGOKhaqNKTlXrr5TjUu0wQwCaddp5sZ+ungAAXWgR7uJrsiG8BPlIN/THUmezG7sEwkPekGyDrdYUJNrb+4ACCBrgAh27nKdcF6ktxu9B6S7E1b0Vhd2si0fEc1hdzof9YFTB+iX0w3o9ugJxMMNXA1hdj6ysBtvFQFMQoEYOrNzu5eouw6ISjhsdhD9+gSm/nSuCbFkD/MXTMDFdf4RrM96IbYEBGKLejIChKpZ+w8MQgwAdPRJGbFfT2bIREmwuLyvkg7JcBjHWYS4g72O9BN8BAp5QbDkGxp3tRII9s4QkFOxIEkhM8XZ9hil/R9w1kjcdC/zZ1Zvu4hiOc+/L16wYYNCPMcqBg7r3/z0Nj/BfDNR4NWdEwH800rxox/h6vWzfAoJpgrkFg74LT8U6ucSHQOT7ANR4nrEy6uEa7/T/xmvelAf4f+7KKGoJmt80AAAAASUVORK5CYII=;" parent="up1Xrg0N40dvPqba2eU4-99" vertex="1">
          <mxGeometry x="7.791253999695262" y="12.283333333333333" width="20.30888888888889" height="20.30888888888889" as="geometry" />
        </mxCell>
        <mxCell id="up1Xrg0N40dvPqba2eU4-106" value="" style="group" parent="1" vertex="1" connectable="0">
          <mxGeometry x="360" y="280" width="30" height="44" as="geometry" />
        </mxCell>
        <mxCell id="up1Xrg0N40dvPqba2eU4-107" value="" style="sketch=0;aspect=fixed;pointerEvents=1;shadow=0;dashed=0;html=1;strokeColor=none;labelPosition=center;verticalLabelPosition=bottom;verticalAlign=top;align=center;fillColor=#3399FF;shape=mxgraph.mscae.enterprise.database_server;fontSize=12;fontColor=#990000;" parent="up1Xrg0N40dvPqba2eU4-106" vertex="1">
          <mxGeometry width="26.125" height="34.375" as="geometry" />
        </mxCell>
        <mxCell id="up1Xrg0N40dvPqba2eU4-108" value="" style="shape=image;imageAspect=0;aspect=fixed;verticalLabelPosition=bottom;verticalAlign=top;fontSize=13;fontColor=#000066;strokeColor=#000000;strokeWidth=3;fillColor=default;image=data:image/png,iVBORw0KGgoAAAANSUhEUgAAAIAAAACACAYAAADDPmHLAAAACXBIWXMAAAsTAAALEwEAmpwYAAAFFmlUWHRYTUw6Y29tLmFkb2JlLnhtcAAAAAAAPD94cGFja2V0IGJlZ2luPSLvu78iIGlkPSJXNU0wTXBDZWhpSHpyZVN6TlRjemtjOWQiPz4gPHg6eG1wbWV0YSB4bWxuczp4PSJhZG9iZTpuczptZXRhLyIgeDp4bXB0az0iQWRvYmUgWE1QIENvcmUgNi4wLWMwMDIgNzkuMTY0MzUyLCAyMDIwLzAxLzMwLTE1OjUwOjM4ICAgICAgICAiPiA8cmRmOlJERiB4bWxuczpyZGY9Imh0dHA6Ly93d3cudzMub3JnLzE5OTkvMDIvMjItcmRmLXN5bnRheC1ucyMiPiA8cmRmOkRlc2NyaXB0aW9uIHJkZjphYm91dD0iIiB4bWxuczp4bXA9Imh0dHA6Ly9ucy5hZG9iZS5jb20veGFwLzEuMC8iIHhtbG5zOmRjPSJodHRwOi8vcHVybC5vcmcvZGMvZWxlbWVudHMvMS4xLyIgeG1sbnM6cGhvdG9zaG9wPSJodHRwOi8vbnMuYWRvYmUuY29tL3Bob3Rvc2hvcC8xLjAvIiB4bWxuczp4bXBNTT0iaHR0cDovL25zLmFkb2JlLmNvbS94YXAvMS4wL21tLyIgeG1sbnM6c3RFdnQ9Imh0dHA6Ly9ucy5hZG9iZS5jb20veGFwLzEuMC9zVHlwZS9SZXNvdXJjZUV2ZW50IyIgeG1wOkNyZWF0b3JUb29sPSJBZG9iZSBQaG90b3Nob3AgMjEuMSAoV2luZG93cykiIHhtcDpDcmVhdGVEYXRlPSIyMDIxLTAyLTA4VDEzOjIwOjE0LTA1OjAwIiB4bXA6TW9kaWZ5RGF0ZT0iMjAyMS0wMi0wOFQxMzoyNToyMi0wNTowMCIgeG1wOk1ldGFkYXRhRGF0ZT0iMjAyMS0wMi0wOFQxMzoyNToyMi0wNTowMCIgZGM6Zm9ybWF0PSJpbWFnZS9wbmciIHBob3Rvc2hvcDpDb2xvck1vZGU9IjMiIHBob3Rvc2hvcDpJQ0NQcm9maWxlPSJzUkdCIElFQzYxOTY2LTIuMSIgeG1wTU06SW5zdGFuY2VJRD0ieG1wLmlpZDpmZmQ3MWYyOS1kNTg0LTQ3NGUtOTE5Zi0zMmM2N2ZiMDExMzIiIHhtcE1NOkRvY3VtZW50SUQ9InhtcC5kaWQ6ZmZkNzFmMjktZDU4NC00NzRlLTkxOWYtMzJjNjdmYjAxMTMyIiB4bXBNTTpPcmlnaW5hbERvY3VtZW50SUQ9InhtcC5kaWQ6ZmZkNzFmMjktZDU4NC00NzRlLTkxOWYtMzJjNjdmYjAxMTMyIj4gPHhtcE1NOkhpc3Rvcnk+IDxyZGY6U2VxPiA8cmRmOmxpIHN0RXZ0OmFjdGlvbj0iY3JlYXRlZCIgc3RFdnQ6aW5zdGFuY2VJRD0ieG1wLmlpZDpmZmQ3MWYyOS1kNTg0LTQ3NGUtOTE5Zi0zMmM2N2ZiMDExMzIiIHN0RXZ0OndoZW49IjIwMjEtMDItMDhUMTM6MjA6MTQtMDU6MDAiIHN0RXZ0OnNvZnR3YXJlQWdlbnQ9IkFkb2JlIFBob3Rvc2hvcCAyMS4xIChXaW5kb3dzKSIvPiA8L3JkZjpTZXE+IDwveG1wTU06SGlzdG9yeT4gPC9yZGY6RGVzY3JpcHRpb24+IDwvcmRmOlJERj4gPC94OnhtcG1ldGE+IDw/eHBhY2tldCBlbmQ9InIiPz4nnaAOAAAXvUlEQVR42u2deXzbVLbH57/SQKlLN7olTuLEdqDUpRS6PKiBshaKYdg6PMBQGAZ4QIB58NjNUtZ+MAw7lJoOy0zZDAVmWApuC6VsxQW60BJwszp24iiJncSSnJ535CiuJd0ry07KJLby+Xw/SSzp2Nbvd889917J/gMA/GFfMNx/wqYqw1B5LftKo6ROugGoBnAhRt0AhWsAJ+LTDVC4BrAjIPxW2y/+XGm1boD8NoAvgwHsiE03QP4ZwCgaQDULiAZw6AbIMwOIJoBMWQDFNyIu3QD5bYBMWcCtGyD/DaCWBXy6AfLfAAI23QCFbQCPboDCNgCQpoh1AxSWAaoJw0DdAAVkgIBugMKYCLJRDCApBlF8pz4MzO+pYFArBoVJIH0iKH9XA2kGYNIM4BWygG6APDNAyFTlQkAFh2iAgFAH6AbIPwP4MhjAg8IbEBB+6wbIPwMwGQzAxJ8vdQgZYF+/Ft0Av7/4xgziJ+lylfvjL5R6M8VrNVrsiBdhkADiQYy6AYauAaq1GKDn0TJgX1S/IgiFdorCu0Qj2MTHBCPYdAMMTQN4M4nfOt8CrMcI7EqjTUV8gyi+ILoP8YsIfzuEv3UDDD3xDVpaf/QGE/RgARhSuXy8P/WLf/vE/40IiI8FtHQFugGGWPoPH2oFLAAheqNJ+N+ewQCuNAMIgoPQBaSbQjfAUDJAWVUAATWYP1YC+4oR2haZhf9dKgaw9af5tAzgF9N/f/dg0A0wdMR30kQPmvb+HX862ff3/+/LUAT6xaLPLRrCJo4IhJGAR68BhtBPczm2/nIUlUDQ2vc7stAM3OoSiN5Unvwfj2EyGMAomsAjtnynmA18Wlq/boDfT3xnc5+gRIIz+353P1QK3BvFEDnBnL49o5Ci8C4Rhz4RNLTENwgtmWoACxrgSGz9J5qBf2saxFeUyPfR1wKGuQHcaq2/eToaYD5W/iuLgXtnGrRfYpLvU60bYJgaQGi9quILYOtvv9kE/Jqp2P9PhRAOA2X7uHQDDEMDZEz9IqFTrcB5pwD/wWSI3Wkk7ePVDTCEDUCbrBGEy9j6hcLv2WJIfDgpSfhIC2kf/ZrAoWoAFN8ZItzQIaRtLeJHTquAxMcHJ+m6u4S2n26AoWiAUFlVtTC5QxDfoUX80HRM/a9Pgt5PJyRpIbf+jHMBugH+M+J7EDdBfJuWfj+Z+t1TIeGbkCT2QInqvroBhogBxMJO6Ns9lG1+LeK3X1wGiQ3jk/BrJ0LLBRbNBgiWVxkFdAP8/uIbRYGJ6+woij8ozOplIHyUGfhPsOVvHJ8k9kwJhM9XP0b2PIbgINYFugG0id+f2v2kqVkUxKNF/Gbs9+OrJ0Liq7FJOOz7W6+1YgawajaA+HzC49W6AX7feXzBADaCGG4t4gvElk+GxDdjUrQ/WAatN1ggfHZOBmCC5QP/vEHdAOriu9Tm5FEAp1bxmaVGSGw2pOh+cxJEbrIkCZ+magCf7Dltads8ugH2nfieNPGdBPEdWsVvWWgCfsuBKbhvDNB2VyVEbrUkCS/OygB22XajboDBr/TTq3k3QXybmIIz9/uHWYDbNAr4H/dP0YmFX+QOS4qwQ9UAXjUDNA1wqlg3gLLY86vNwolVuGbx4+8bgN9WlKL7g/HQ5rJICNlVDSBZDELB7U19wqdj1w0wwB9Cq/bLiyxRfL/mou9JHOr9PDIF9/0oYB6qhLb7LBJC81UN4JQZwEUwgEc3wMDElxdzghFIFb9Xq/gdd2HFXzNSQsczpcA8YFbQPEM1lqR1N5WhAcpQdDmludUCBW8AYTxNOOmOgQz3mCuLgf+tSELMOxmYhyuJZDMERKF9CBDw6AbIXnxPpj5XTLuah3vhk7DiryuSEN+MY/5HK4lEbjSrxfMTDBCgGIBBDLoBtAlvoIjvI4hvQxhCv6sgNL8SuJ+x4m/YPwUXGIVVfzl0PF5BJPIXs1pMt0x8A0X8fqp1A2gTn1TIKWbWUAAD4tcifnCGFXrWTUDRx0iIrTZC51OVVMKnW9TiOmQGcGQwQEA3QG7iK4ot8YR7iAUXge73pwLfOFFCz2fF0PlspSrNNpW4ckOWVrkzGEDAphsge/FdBPEdGk52kuiKMhR8qgT2p2KIvmBSpWN5hVpcH+E1+TW8Ho9uAGU/rpbKSSfaIBZVGcVvu9qCgpdJqS2D2MvlEF1pUiVyhVlzf66h/08Vg7oBtIsvFHdGggG8Wk52+MQqFNyioHuNCWKryjMSmmtViy9P/06tGUnIXroBtKVNZ66pPzi9Cridh6HgUuIbLdD1anlGok+a1OIr5vcby6q8CGjEoxugv4jL4iRnk/p71h8OfNMsCdz2GdD1jzJNtF1WqbkFo6CGLMQXYAreABlSJnHSJINhUnQ+djgkmo6SwNcdiam/ArpeL9NE8+FWzUM5FNSZpQEEbAVrAGEolO2ECT5m1yJ+5GIbCj5fQdxnhe63SzXRfotq+ncSDODLwQCugjSAmMb92QyvxJPsz3RSm+dNB37XMZAILpDAbZ8NPe+WaCZ0tIX2HKTWb8xBfAF/oRrAne1EidYUG99gR8EXSqldAPF/GyH+/jRNRN2las9Bav2uHA0AjRquGcwrAwj9XoaT4iYcIxRYgUwns2PZXEg0n6yA/dyMBpiqmfBJZs2tP2loS1UAgRyxF5oB1NI4I4idSwsLnTQTxT5dAb/1SGA/nqyZjruNWbX+JhsWssJUce64CsYAGtK4i9L6mYyp//NTUfAzpTQuBnbdNGA/naSZ5tnUvp9YlzTNqfI1HYVC5o6vIAygIY3n3PqZW45Gwc9RwG0+FA0wSTPM9WVZDdmaFuCo5BgUcWAwhWGAShSyAk8kDRM5FTaZqxgEaARnYdVfcx4K/icJfOAU4D4/WDM970yG4Ewr8TnwtRO/Eia4sMqLwIA5Uf1SsbwwQNMMLJRm4AklwzQdQpj00dC/xl7G1B+6UAH3TTFwX07QTOvFJvJzCK97+iHKW80WWW3BU1C8weBU9XWBYW+Apnko5Fw8mXTclP41gACN0OKZwIecSnbOA+7rcZqJvTCF+hzYRxOr9OAZVT4EBglXXhsgeFyVHwEqxxJW+xZUORBQI7p6MfDhy6Q0LcG+H9P6t2M1wW4YB80nWcnPcQx5wSZ0ttUe+qMVBhFP3hoA05sNASqnkKvg4AnYv56A2ymElxyOgl+hgPt5JnDfj9FMpLqM9hyB4PHkSZrQ+VYfAoOIL28N0HxmlRsBKg7CPX2nVRlVTYPE3j4LBb9KSvBi4LaM1kx05SQ1YxJTf/hCqxOBQSaQtwYInWdlEKBytlXRytAU1QjQCC05DPiWaxVwNdj6fzpQE/ENY7DlWYjxsU8m1iThpVZD+BIrg8Bgk5cGCF9ktWVwvo/SxwYQoNHx9Cko+PVSmrH/33aAZlr/x0SL7w+dZSWm/vCfre7w5fi69wVXWA35Z4ClVhcCKiiWfEN/stpCS1AIFdidV6Pof5USmAX8jgM00fH4VHr8863ENfqWq622liutsA+x550B8E35sn3TmDVcCNCI3DIHEq03SxH6/11Fmuh+bxw1NmYk6k0bLddY/Qhoof1vJaB13zTy0ADCZ+uoQOln/WpZI/bOeZCI3Cql4Tjga4oywm4+EFquMpNjX0qvxFuvt1QjoBV2+4GQzf4i+WWA1v+12Fr/im+MjqLybfmL1Yh9IajB1dyIot8pgQ+MUdzoSSJyRzktLoP9O3E6tvUmixHfC4OAFtofK03ebqZ1/zTyzAC3mB0IqOAj9LNOBGhEbjsCBXdJaT4b+N1FGYm+OhlUYlOnYoXXmeF9SOj5+mA0wFjI5hiR/DJA5A6zCwEVFEOtlmqLp+U6FIRC52sOFP1eCXyjDfjaIlVYHPapxKV+fEvkdnM1AlrpeNqEr2dKkmyOE8kzA9yDBrgH3xgdxfw3dgt+tW6j27cURb9/L62Y/uuLMtLuLiXHvBFT+w3k7+2JuMzGyF1mBgGtxL81pe48yuY4kfwyQNv9lS4EVFAa4GZMhSpwgdsh0fbgXsJLMN0WqdK9YSw95k1maupHg/oyGFhC5yrhjqNDUmRzrEieGeCRChcCKkimgCO3me0I0Gi7ZzqKvlwCH8Sxf8MBqjAPmsgxbzVTq34N5pXAPILm3C29CSWb40XyywDtj5lcCKggecORO81OBGh0PH8siv6oBL5htCrdnx1Mi8dgDUKs+tserrC1CR8SlQXxr2dBommOhGxjIPllgI4nTS4EVLDLUq5qzRB9/QwU/fG9tF6PIh+kCvOoiRzvbjNx/b39UZOBWV7hR0Ar0bdnoODHKMgmhkDb8gpbXhmg8zmTCwEVJAZoW4Zpdxm2BApdH1+Iwj+xl9A5ig97kHzww6aptFiBtvsqiYUfZiV3hqwlofOlKuU9CCLZxBHIu8WgzhXlzs4Xy4FOmWTaFVOgSy1Fdq29CBLM0yn45uNR6GlUOl4qJ8d6sNJJOslCRup4AjOTRqIvH4ojDOG+g0VEsoklkHcGiK4qtSOggiQNYxp0qaVIdgeOANqfS8E3YdHVWE6E21VOS7PEdfeOZ0wGHMMzwjheC50vmIH/TRDaQUVrLJH8uyAk9kqpMfZqKajgkqVf1aKR/fkOFP6FFHxjFZWuD8zkOG4TsfV3Pm/yIqCF6Eqs+HcKN52cS4WvPwu0xkvynMmbl9cDxFYbGeETuChIroPDNOhSS5HsThcKv7IPYQawaSaVzhcrFce3P2Eitn7sihzYXYEWoqsqMbucifXHf6vCbT8dtMYUoV4Uiq/POGwN0PVWsQ8BCpK0h2nQpZYm2V13o/ir+mi7XzHs6ofbcQQthqL1R18qNUQ9pUzUUwaZiL2C4v9yDvkqZBnsDgdoiZkGdUIKX59n2Bqge81UFwIUArI07FJLk9wv90Gi45U+hGsAZLd/99OzbibpeOLdN9GXS70IZCL2jwrgas4HPny5JuL+RaAlboq/lxLnJLAbNeB2Zvga4IMptu5/TQEaslTnQoAG9+sy6O18LUkichOKfSKR2BtW0vGKhafYa6X2DDVKiviWM5QXoKoQ/+oE0BoboV4Qits8wvZhfVFoz8cHBxCgYN+bjsvsCNBgv78WxV/dR+Q2LLYWK+AbFpGP95QpJlli/zT6EchE/MezgG+5Lit61h8NWmKLEO8JwBrJJm73DW8DfDrBE/9sAlCoTkvHtpiQbinEv/0ziv9mH8nrAAg3g+44WXEcxlW0sK43S+xdb5RAJno2LURBb8ya7k+OAC3xRYgjE3zcL253DWsDxNdPsCFAwSNLy0AjvuliFP/tJIm2ZcT7AeObFpCOVaT/rrenebvexkJUhZ7185TXHmokU2wJbxUrZiW7vNPcafs4h/2tYfGNY/3sxrFAICBLe37asLF77ULojb6bJNH2MPa1SxV0fzqbdKwk/WPxaeh+F4tQFXo+sqChsM6I3J41fON1kCl+GorxP74+h2wf27A3APv1GCcCRL4ZY0xLzR4ESHS/a4He2PtJEh3PYqq9SkH3+xb5cYrqHwtTJwJq8HXXKC890wj3ixMyxU/x/hRJ+u/+12QbPs6k75M3t4ez340KIKBg8yhnWuqr7npnGtDobX8LDfBv7AZexVR7gwLFMd5pihbW8+Ekb8+Hk4EG++MZisvOsoH1nwxq8dNBwVPpv+ejSUZ8bYxsH1/+GMC/fzUCBLxp6c/Y/R6mPQr87gfRAB9hN/AWnuxbJPCN15COUcyw4ciDoY1K4l9Mx1gPDAghhsqoJ51U/dPzyUQD/u8n7OPKq88IYn8aGUBAwdaRhrQ0GECABPvDJWiAT5LIUy8fuIJ0jGTJGUckNgRo8I3Y77c9kjst94FafBnJ2gRHQkb820/Zx55fBtg20sluR8GVONNSoRsBEvEv5kBvly9JghEuDHkgBV97NekYyQxbfN2EagRIcD8sxDjuAcH/egnQ4svwpUZI6yYwlH2YvPyYOPbn/Xzszv1Ahi8tHdp61k4EGom2N6G3ez0Wgqukl4fVViv2lT93/PPxbgRIJEL3Si84yQHup4VAiy9hwwQ7/nYgDH2f8Z78NMAvI4wIKKgZkWqtmBb9cR+2AgL8b/+HBvgC64A1mAWeSsHvvka+r2KNHYedPtJwlNu2UHKxSa6wX00BynA3HR/75Vi3hv0ceftRsexvI1wIyEgVbNhCnAiQYL87Cg3wJXYD63FUsCIFX3OpfF+lAb4a40dADt8srDQ+PyD4huuAFDtHmLz/tHB29wgfW4vC74VBUsVg/ItxDLtxHJDobV+DJvgah4P/RF5JkmhySfbB4xVDQPbb0aDAX7r3OoMBwG2fD8T4ufDNaHf+G6AWu4I+0dNNkCoG2U0HuRAgwQeuhd6e73A08DF2BW8mSTQvk++nGAKym5PzDhK4msUo4N8HRtuzQIo9AIwF8YURbO1IO1tXBGkE0mYPDdgSGAQUbJ6CBvi+Lwv0zw6GHpbv5yLMRSjmIRKhu1LLzLnC7z4fKHMcueArqK+MYetGVbN1B8JeRjvTZg+dtFaSCD6AJvhBHBauxW7hNfk+SgP8iCaT0dv5+oBht44DUuyc+KHIXnBfGsXWjfOw9eNBhGHrJxrSWq2P1FK4rSbojf+EJtgMe7o3JpHtozTA1uSkUwpupwUFfGtAJILXgTzuAPAV7PcGsvVTvWz9NBBJicduKbLRWksi/BDsiW+DPYIJsCYQviEsbbvSALIJKO7XWakVxlzhdhYDZXIrF+wFbIByA1tf4efqK6EPizGt5VaTWgy3sxz2sDuRHcg24OvOTd/uIUxC+RHoh2+6COuHD3KGb74S0uMNEG/Bf3Us1zDdwDXM8HMNNuAaZvpkrddHajWJ8F0o/i+wh/sV/747fZtyHmAXDj134WhDhA86UcgPcwPTP1tzEKTHSyE8TttGhkGMBW+APhPMRhPMQRPMQRPMTV0yxu7Yz4CtJKBoObvGYzewBfbwtVgMfpq+TWmAmhEeBPrhmy9FMdfmBB88F9Jj9cPVzYbejteACxQTt1OoLvjvDpaYoHGBgWs81ss1HsdwjScY01qwTWwtkhbEN52PGaAWcCiAJ74i9XimGUjhKqLernVZIyxEyWcyudpiSERuS24XLgwlzHTS8Bb8V8fSjXCah2tc7Je1Yhv7K544Gb3RN2BPohX40NK9j/8mTavs7hF2BPrhWy7vW1fIhq4PsT4pTsXg6kuAb70h+Xj/drZ2LKQ/jwoBNjDCoBtA5QdTrZMPLvHIWrITTxykw9WVJ4vB3u616Y87ZLOPhvSZR771Ctx/U1bw4QuArRuLRjsDM8FyxXau+XiQzW7SEGZBC/ebQ7MzwUU2vvlig6w1O+UnlQ+djlmgDWuHyv7HXIQpaH///lzTHOjt+TY7Ymuo2xLM3VrFF3Boff8FbwCV9QSHfD0h0fEUJNof7v/fT5h+drN1OEpAuKbD+qaUB4FEdHXfRJYYW5Xa/ZzZvE/dAOomsPWZYD9IUj8B++E1KO7hID4mzRx1BzjYulHQT2/8xwGTiOGQsH4SpMelc4Az2/eoGyDjVHKRka3b34+AANdoRhO8B+L/TuX+BgYBgd7oK32ziTnSG3unb/ZSjKcCPudoWy7vTzeAtkUlA1t3oLd/UYkLzsE++Xbhb5/a2kOCuVecTcyeROcKYBtKIW0dg0zdODTnWFuu7003QFZGOKhaqNKTlXrr5TjUu0wQwCaddp5sZ+ungAAXWgR7uJrsiG8BPlIN/THUmezG7sEwkPekGyDrdYUJNrb+4ACCBrgAh27nKdcF6ktxu9B6S7E1b0Vhd2si0fEc1hdzof9YFTB+iX0w3o9ugJxMMNXA1hdj6ysBtvFQFMQoEYOrNzu5eouw6ISjhsdhD9+gSm/nSuCbFkD/MXTMDFdf4RrM96IbYEBGKLejIChKpZ+w8MQgwAdPRJGbFfT2bIREmwuLyvkg7JcBjHWYS4g72O9BN8BAp5QbDkGxp3tRII9s4QkFOxIEkhM8XZ9hil/R9w1kjcdC/zZ1Zvu4hiOc+/L16wYYNCPMcqBg7r3/z0Nj/BfDNR4NWdEwH800rxox/h6vWzfAoJpgrkFg74LT8U6ucSHQOT7ANR4nrEy6uEa7/T/xmvelAf4f+7KKGoJmt80AAAAASUVORK5CYII=;" parent="up1Xrg0N40dvPqba2eU4-106" vertex="1">
          <mxGeometry y="17.875" width="26.125" height="26.125" as="geometry" />
        </mxCell>
        <mxCell id="up1Xrg0N40dvPqba2eU4-113" value="" style="group" parent="1" vertex="1" connectable="0">
          <mxGeometry x="680" y="120" width="18" height="40" as="geometry" />
        </mxCell>
        <mxCell id="up1Xrg0N40dvPqba2eU4-114" value="" style="sketch=0;aspect=fixed;pointerEvents=1;shadow=0;dashed=0;html=1;strokeColor=none;labelPosition=center;verticalLabelPosition=bottom;verticalAlign=top;align=center;fillColor=#007FFF;shape=mxgraph.azure.mobile;fontSize=12;fontColor=#990000;" parent="up1Xrg0N40dvPqba2eU4-113" vertex="1">
          <mxGeometry width="16.57894736842105" height="23.684210526315788" as="geometry" />
        </mxCell>
        <mxCell id="up1Xrg0N40dvPqba2eU4-115" value="" style="shape=image;imageAspect=0;aspect=fixed;verticalLabelPosition=bottom;verticalAlign=top;fontSize=13;fontColor=#000066;strokeColor=#000000;strokeWidth=3;fillColor=default;image=data:image/png,iVBORw0KGgoAAAANSUhEUgAAAIAAAACACAYAAADDPmHLAAAACXBIWXMAAAsTAAALEwEAmpwYAAAFFmlUWHRYTUw6Y29tLmFkb2JlLnhtcAAAAAAAPD94cGFja2V0IGJlZ2luPSLvu78iIGlkPSJXNU0wTXBDZWhpSHpyZVN6TlRjemtjOWQiPz4gPHg6eG1wbWV0YSB4bWxuczp4PSJhZG9iZTpuczptZXRhLyIgeDp4bXB0az0iQWRvYmUgWE1QIENvcmUgNi4wLWMwMDIgNzkuMTY0MzUyLCAyMDIwLzAxLzMwLTE1OjUwOjM4ICAgICAgICAiPiA8cmRmOlJERiB4bWxuczpyZGY9Imh0dHA6Ly93d3cudzMub3JnLzE5OTkvMDIvMjItcmRmLXN5bnRheC1ucyMiPiA8cmRmOkRlc2NyaXB0aW9uIHJkZjphYm91dD0iIiB4bWxuczp4bXA9Imh0dHA6Ly9ucy5hZG9iZS5jb20veGFwLzEuMC8iIHhtbG5zOmRjPSJodHRwOi8vcHVybC5vcmcvZGMvZWxlbWVudHMvMS4xLyIgeG1sbnM6cGhvdG9zaG9wPSJodHRwOi8vbnMuYWRvYmUuY29tL3Bob3Rvc2hvcC8xLjAvIiB4bWxuczp4bXBNTT0iaHR0cDovL25zLmFkb2JlLmNvbS94YXAvMS4wL21tLyIgeG1sbnM6c3RFdnQ9Imh0dHA6Ly9ucy5hZG9iZS5jb20veGFwLzEuMC9zVHlwZS9SZXNvdXJjZUV2ZW50IyIgeG1wOkNyZWF0b3JUb29sPSJBZG9iZSBQaG90b3Nob3AgMjEuMSAoV2luZG93cykiIHhtcDpDcmVhdGVEYXRlPSIyMDIxLTAyLTA4VDEzOjIwOjE0LTA1OjAwIiB4bXA6TW9kaWZ5RGF0ZT0iMjAyMS0wMi0wOFQxMzoyNToyMi0wNTowMCIgeG1wOk1ldGFkYXRhRGF0ZT0iMjAyMS0wMi0wOFQxMzoyNToyMi0wNTowMCIgZGM6Zm9ybWF0PSJpbWFnZS9wbmciIHBob3Rvc2hvcDpDb2xvck1vZGU9IjMiIHBob3Rvc2hvcDpJQ0NQcm9maWxlPSJzUkdCIElFQzYxOTY2LTIuMSIgeG1wTU06SW5zdGFuY2VJRD0ieG1wLmlpZDpmZmQ3MWYyOS1kNTg0LTQ3NGUtOTE5Zi0zMmM2N2ZiMDExMzIiIHhtcE1NOkRvY3VtZW50SUQ9InhtcC5kaWQ6ZmZkNzFmMjktZDU4NC00NzRlLTkxOWYtMzJjNjdmYjAxMTMyIiB4bXBNTTpPcmlnaW5hbERvY3VtZW50SUQ9InhtcC5kaWQ6ZmZkNzFmMjktZDU4NC00NzRlLTkxOWYtMzJjNjdmYjAxMTMyIj4gPHhtcE1NOkhpc3Rvcnk+IDxyZGY6U2VxPiA8cmRmOmxpIHN0RXZ0OmFjdGlvbj0iY3JlYXRlZCIgc3RFdnQ6aW5zdGFuY2VJRD0ieG1wLmlpZDpmZmQ3MWYyOS1kNTg0LTQ3NGUtOTE5Zi0zMmM2N2ZiMDExMzIiIHN0RXZ0OndoZW49IjIwMjEtMDItMDhUMTM6MjA6MTQtMDU6MDAiIHN0RXZ0OnNvZnR3YXJlQWdlbnQ9IkFkb2JlIFBob3Rvc2hvcCAyMS4xIChXaW5kb3dzKSIvPiA8L3JkZjpTZXE+IDwveG1wTU06SGlzdG9yeT4gPC9yZGY6RGVzY3JpcHRpb24+IDwvcmRmOlJERj4gPC94OnhtcG1ldGE+IDw/eHBhY2tldCBlbmQ9InIiPz4nnaAOAAAXvUlEQVR42u2deXzbVLbH57/SQKlLN7olTuLEdqDUpRS6PKiBshaKYdg6PMBQGAZ4QIB58NjNUtZ+MAw7lJoOy0zZDAVmWApuC6VsxQW60BJwszp24iiJncSSnJ535CiuJd0ry07KJLby+Xw/SSzp2Nbvd889917J/gMA/GFfMNx/wqYqw1B5LftKo6ROugGoBnAhRt0AhWsAJ+LTDVC4BrAjIPxW2y/+XGm1boD8NoAvgwHsiE03QP4ZwCgaQDULiAZw6AbIMwOIJoBMWQDFNyIu3QD5bYBMWcCtGyD/DaCWBXy6AfLfAAI23QCFbQCPboDCNgCQpoh1AxSWAaoJw0DdAAVkgIBugMKYCLJRDCApBlF8pz4MzO+pYFArBoVJIH0iKH9XA2kGYNIM4BWygG6APDNAyFTlQkAFh2iAgFAH6AbIPwP4MhjAg8IbEBB+6wbIPwMwGQzAxJ8vdQgZYF+/Ft0Av7/4xgziJ+lylfvjL5R6M8VrNVrsiBdhkADiQYy6AYauAaq1GKDn0TJgX1S/IgiFdorCu0Qj2MTHBCPYdAMMTQN4M4nfOt8CrMcI7EqjTUV8gyi+ILoP8YsIfzuEv3UDDD3xDVpaf/QGE/RgARhSuXy8P/WLf/vE/40IiI8FtHQFugGGWPoPH2oFLAAheqNJ+N+ewQCuNAMIgoPQBaSbQjfAUDJAWVUAATWYP1YC+4oR2haZhf9dKgaw9af5tAzgF9N/f/dg0A0wdMR30kQPmvb+HX862ff3/+/LUAT6xaLPLRrCJo4IhJGAR68BhtBPczm2/nIUlUDQ2vc7stAM3OoSiN5Unvwfj2EyGMAomsAjtnynmA18Wlq/boDfT3xnc5+gRIIz+353P1QK3BvFEDnBnL49o5Ci8C4Rhz4RNLTENwgtmWoACxrgSGz9J5qBf2saxFeUyPfR1wKGuQHcaq2/eToaYD5W/iuLgXtnGrRfYpLvU60bYJgaQGi9quILYOtvv9kE/Jqp2P9PhRAOA2X7uHQDDEMDZEz9IqFTrcB5pwD/wWSI3Wkk7ePVDTCEDUCbrBGEy9j6hcLv2WJIfDgpSfhIC2kf/ZrAoWoAFN8ZItzQIaRtLeJHTquAxMcHJ+m6u4S2n26AoWiAUFlVtTC5QxDfoUX80HRM/a9Pgt5PJyRpIbf+jHMBugH+M+J7EDdBfJuWfj+Z+t1TIeGbkCT2QInqvroBhogBxMJO6Ns9lG1+LeK3X1wGiQ3jk/BrJ0LLBRbNBgiWVxkFdAP8/uIbRYGJ6+woij8ozOplIHyUGfhPsOVvHJ8k9kwJhM9XP0b2PIbgINYFugG0id+f2v2kqVkUxKNF/Gbs9+OrJ0Liq7FJOOz7W6+1YgawajaA+HzC49W6AX7feXzBADaCGG4t4gvElk+GxDdjUrQ/WAatN1ggfHZOBmCC5QP/vEHdAOriu9Tm5FEAp1bxmaVGSGw2pOh+cxJEbrIkCZ+magCf7Dltads8ugH2nfieNPGdBPEdWsVvWWgCfsuBKbhvDNB2VyVEbrUkCS/OygB22XajboDBr/TTq3k3QXybmIIz9/uHWYDbNAr4H/dP0YmFX+QOS4qwQ9UAXjUDNA1wqlg3gLLY86vNwolVuGbx4+8bgN9WlKL7g/HQ5rJICNlVDSBZDELB7U19wqdj1w0wwB9Cq/bLiyxRfL/mou9JHOr9PDIF9/0oYB6qhLb7LBJC81UN4JQZwEUwgEc3wMDElxdzghFIFb9Xq/gdd2HFXzNSQsczpcA8YFbQPEM1lqR1N5WhAcpQdDmludUCBW8AYTxNOOmOgQz3mCuLgf+tSELMOxmYhyuJZDMERKF9CBDw6AbIXnxPpj5XTLuah3vhk7DiryuSEN+MY/5HK4lEbjSrxfMTDBCgGIBBDLoBtAlvoIjvI4hvQxhCv6sgNL8SuJ+x4m/YPwUXGIVVfzl0PF5BJPIXs1pMt0x8A0X8fqp1A2gTn1TIKWbWUAAD4tcifnCGFXrWTUDRx0iIrTZC51OVVMKnW9TiOmQGcGQwQEA3QG7iK4ot8YR7iAUXge73pwLfOFFCz2fF0PlspSrNNpW4ckOWVrkzGEDAphsge/FdBPEdGk52kuiKMhR8qgT2p2KIvmBSpWN5hVpcH+E1+TW8Ho9uAGU/rpbKSSfaIBZVGcVvu9qCgpdJqS2D2MvlEF1pUiVyhVlzf66h/08Vg7oBtIsvFHdGggG8Wk52+MQqFNyioHuNCWKryjMSmmtViy9P/06tGUnIXroBtKVNZ66pPzi9Cridh6HgUuIbLdD1anlGok+a1OIr5vcby6q8CGjEoxugv4jL4iRnk/p71h8OfNMsCdz2GdD1jzJNtF1WqbkFo6CGLMQXYAreABlSJnHSJINhUnQ+djgkmo6SwNcdiam/ArpeL9NE8+FWzUM5FNSZpQEEbAVrAGEolO2ECT5m1yJ+5GIbCj5fQdxnhe63SzXRfotq+ncSDODLwQCugjSAmMb92QyvxJPsz3RSm+dNB37XMZAILpDAbZ8NPe+WaCZ0tIX2HKTWb8xBfAF/oRrAne1EidYUG99gR8EXSqldAPF/GyH+/jRNRN2las9Bav2uHA0AjRquGcwrAwj9XoaT4iYcIxRYgUwns2PZXEg0n6yA/dyMBpiqmfBJZs2tP2loS1UAgRyxF5oB1NI4I4idSwsLnTQTxT5dAb/1SGA/nqyZjruNWbX+JhsWssJUce64CsYAGtK4i9L6mYyp//NTUfAzpTQuBnbdNGA/naSZ5tnUvp9YlzTNqfI1HYVC5o6vIAygIY3n3PqZW45Gwc9RwG0+FA0wSTPM9WVZDdmaFuCo5BgUcWAwhWGAShSyAk8kDRM5FTaZqxgEaARnYdVfcx4K/icJfOAU4D4/WDM970yG4Ewr8TnwtRO/Eia4sMqLwIA5Uf1SsbwwQNMMLJRm4AklwzQdQpj00dC/xl7G1B+6UAH3TTFwX07QTOvFJvJzCK97+iHKW80WWW3BU1C8weBU9XWBYW+Apnko5Fw8mXTclP41gACN0OKZwIecSnbOA+7rcZqJvTCF+hzYRxOr9OAZVT4EBglXXhsgeFyVHwEqxxJW+xZUORBQI7p6MfDhy6Q0LcG+H9P6t2M1wW4YB80nWcnPcQx5wSZ0ttUe+qMVBhFP3hoA05sNASqnkKvg4AnYv56A2ymElxyOgl+hgPt5JnDfj9FMpLqM9hyB4PHkSZrQ+VYfAoOIL28N0HxmlRsBKg7CPX2nVRlVTYPE3j4LBb9KSvBi4LaM1kx05SQ1YxJTf/hCqxOBQSaQtwYInWdlEKBytlXRytAU1QjQCC05DPiWaxVwNdj6fzpQE/ENY7DlWYjxsU8m1iThpVZD+BIrg8Bgk5cGCF9ktWVwvo/SxwYQoNHx9Cko+PVSmrH/33aAZlr/x0SL7w+dZSWm/vCfre7w5fi69wVXWA35Z4ClVhcCKiiWfEN/stpCS1AIFdidV6Pof5USmAX8jgM00fH4VHr8863ENfqWq622liutsA+x550B8E35sn3TmDVcCNCI3DIHEq03SxH6/11Fmuh+bxw1NmYk6k0bLddY/Qhoof1vJaB13zTy0ADCZ+uoQOln/WpZI/bOeZCI3Cql4Tjga4oywm4+EFquMpNjX0qvxFuvt1QjoBV2+4GQzf4i+WWA1v+12Fr/im+MjqLybfmL1Yh9IajB1dyIot8pgQ+MUdzoSSJyRzktLoP9O3E6tvUmixHfC4OAFtofK03ebqZ1/zTyzAC3mB0IqOAj9LNOBGhEbjsCBXdJaT4b+N1FGYm+OhlUYlOnYoXXmeF9SOj5+mA0wFjI5hiR/DJA5A6zCwEVFEOtlmqLp+U6FIRC52sOFP1eCXyjDfjaIlVYHPapxKV+fEvkdnM1AlrpeNqEr2dKkmyOE8kzA9yDBrgH3xgdxfw3dgt+tW6j27cURb9/L62Y/uuLMtLuLiXHvBFT+w3k7+2JuMzGyF1mBgGtxL81pe48yuY4kfwyQNv9lS4EVFAa4GZMhSpwgdsh0fbgXsJLMN0WqdK9YSw95k1maupHg/oyGFhC5yrhjqNDUmRzrEieGeCRChcCKkimgCO3me0I0Gi7ZzqKvlwCH8Sxf8MBqjAPmsgxbzVTq34N5pXAPILm3C29CSWb40XyywDtj5lcCKggecORO81OBGh0PH8siv6oBL5htCrdnx1Mi8dgDUKs+tserrC1CR8SlQXxr2dBommOhGxjIPllgI4nTS4EVLDLUq5qzRB9/QwU/fG9tF6PIh+kCvOoiRzvbjNx/b39UZOBWV7hR0Ar0bdnoODHKMgmhkDb8gpbXhmg8zmTCwEVJAZoW4Zpdxm2BApdH1+Iwj+xl9A5ig97kHzww6aptFiBtvsqiYUfZiV3hqwlofOlKuU9CCLZxBHIu8WgzhXlzs4Xy4FOmWTaFVOgSy1Fdq29CBLM0yn45uNR6GlUOl4qJ8d6sNJJOslCRup4AjOTRqIvH4ojDOG+g0VEsoklkHcGiK4qtSOggiQNYxp0qaVIdgeOANqfS8E3YdHVWE6E21VOS7PEdfeOZ0wGHMMzwjheC50vmIH/TRDaQUVrLJH8uyAk9kqpMfZqKajgkqVf1aKR/fkOFP6FFHxjFZWuD8zkOG4TsfV3Pm/yIqCF6Eqs+HcKN52cS4WvPwu0xkvynMmbl9cDxFYbGeETuChIroPDNOhSS5HsThcKv7IPYQawaSaVzhcrFce3P2Eitn7sihzYXYEWoqsqMbucifXHf6vCbT8dtMYUoV4Uiq/POGwN0PVWsQ8BCpK0h2nQpZYm2V13o/ir+mi7XzHs6ofbcQQthqL1R18qNUQ9pUzUUwaZiL2C4v9yDvkqZBnsDgdoiZkGdUIKX59n2Bqge81UFwIUArI07FJLk9wv90Gi45U+hGsAZLd/99OzbibpeOLdN9GXS70IZCL2jwrgas4HPny5JuL+RaAlboq/lxLnJLAbNeB2Zvga4IMptu5/TQEaslTnQoAG9+sy6O18LUkichOKfSKR2BtW0vGKhafYa6X2DDVKiviWM5QXoKoQ/+oE0BoboV4Qits8wvZhfVFoz8cHBxCgYN+bjsvsCNBgv78WxV/dR+Q2LLYWK+AbFpGP95QpJlli/zT6EchE/MezgG+5Lit61h8NWmKLEO8JwBrJJm73DW8DfDrBE/9sAlCoTkvHtpiQbinEv/0ziv9mH8nrAAg3g+44WXEcxlW0sK43S+xdb5RAJno2LURBb8ya7k+OAC3xRYgjE3zcL253DWsDxNdPsCFAwSNLy0AjvuliFP/tJIm2ZcT7AeObFpCOVaT/rrenebvexkJUhZ7185TXHmokU2wJbxUrZiW7vNPcafs4h/2tYfGNY/3sxrFAICBLe37asLF77ULojb6bJNH2MPa1SxV0fzqbdKwk/WPxaeh+F4tQFXo+sqChsM6I3J41fON1kCl+GorxP74+h2wf27A3APv1GCcCRL4ZY0xLzR4ESHS/a4He2PtJEh3PYqq9SkH3+xb5cYrqHwtTJwJq8HXXKC890wj3ixMyxU/x/hRJ+u/+12QbPs6k75M3t4ez340KIKBg8yhnWuqr7npnGtDobX8LDfBv7AZexVR7gwLFMd5pihbW8+Ekb8+Hk4EG++MZisvOsoH1nwxq8dNBwVPpv+ejSUZ8bYxsH1/+GMC/fzUCBLxp6c/Y/R6mPQr87gfRAB9hN/AWnuxbJPCN15COUcyw4ciDoY1K4l9Mx1gPDAghhsqoJ51U/dPzyUQD/u8n7OPKq88IYn8aGUBAwdaRhrQ0GECABPvDJWiAT5LIUy8fuIJ0jGTJGUckNgRo8I3Y77c9kjst94FafBnJ2gRHQkb820/Zx55fBtg20sluR8GVONNSoRsBEvEv5kBvly9JghEuDHkgBV97NekYyQxbfN2EagRIcD8sxDjuAcH/egnQ4svwpUZI6yYwlH2YvPyYOPbn/Xzszv1Ahi8tHdp61k4EGom2N6G3ez0Wgqukl4fVViv2lT93/PPxbgRIJEL3Si84yQHup4VAiy9hwwQ7/nYgDH2f8Z78NMAvI4wIKKgZkWqtmBb9cR+2AgL8b/+HBvgC64A1mAWeSsHvvka+r2KNHYedPtJwlNu2UHKxSa6wX00BynA3HR/75Vi3hv0ceftRsexvI1wIyEgVbNhCnAiQYL87Cg3wJXYD63FUsCIFX3OpfF+lAb4a40dADt8srDQ+PyD4huuAFDtHmLz/tHB29wgfW4vC74VBUsVg/ItxDLtxHJDobV+DJvgah4P/RF5JkmhySfbB4xVDQPbb0aDAX7r3OoMBwG2fD8T4ufDNaHf+G6AWu4I+0dNNkCoG2U0HuRAgwQeuhd6e73A08DF2BW8mSTQvk++nGAKym5PzDhK4msUo4N8HRtuzQIo9AIwF8YURbO1IO1tXBGkE0mYPDdgSGAQUbJ6CBvi+Lwv0zw6GHpbv5yLMRSjmIRKhu1LLzLnC7z4fKHMcueArqK+MYetGVbN1B8JeRjvTZg+dtFaSCD6AJvhBHBauxW7hNfk+SgP8iCaT0dv5+oBht44DUuyc+KHIXnBfGsXWjfOw9eNBhGHrJxrSWq2P1FK4rSbojf+EJtgMe7o3JpHtozTA1uSkUwpupwUFfGtAJILXgTzuAPAV7PcGsvVTvWz9NBBJicduKbLRWksi/BDsiW+DPYIJsCYQviEsbbvSALIJKO7XWakVxlzhdhYDZXIrF+wFbIByA1tf4efqK6EPizGt5VaTWgy3sxz2sDuRHcg24OvOTd/uIUxC+RHoh2+6COuHD3KGb74S0uMNEG/Bf3Us1zDdwDXM8HMNNuAaZvpkrddHajWJ8F0o/i+wh/sV/747fZtyHmAXDj134WhDhA86UcgPcwPTP1tzEKTHSyE8TttGhkGMBW+APhPMRhPMQRPMQRPMTV0yxu7Yz4CtJKBoObvGYzewBfbwtVgMfpq+TWmAmhEeBPrhmy9FMdfmBB88F9Jj9cPVzYbejteACxQTt1OoLvjvDpaYoHGBgWs81ss1HsdwjScY01qwTWwtkhbEN52PGaAWcCiAJ74i9XimGUjhKqLernVZIyxEyWcyudpiSERuS24XLgwlzHTS8Bb8V8fSjXCah2tc7Je1Yhv7K544Gb3RN2BPohX40NK9j/8mTavs7hF2BPrhWy7vW1fIhq4PsT4pTsXg6kuAb70h+Xj/drZ2LKQ/jwoBNjDCoBtA5QdTrZMPLvHIWrITTxykw9WVJ4vB3u616Y87ZLOPhvSZR771Ctx/U1bw4QuArRuLRjsDM8FyxXau+XiQzW7SEGZBC/ebQ7MzwUU2vvlig6w1O+UnlQ+djlmgDWuHyv7HXIQpaH///lzTHOjt+TY7Ymuo2xLM3VrFF3Boff8FbwCV9QSHfD0h0fEUJNof7v/fT5h+drN1OEpAuKbD+qaUB4FEdHXfRJYYW5Xa/ZzZvE/dAOomsPWZYD9IUj8B++E1KO7hID4mzRx1BzjYulHQT2/8xwGTiOGQsH4SpMelc4Az2/eoGyDjVHKRka3b34+AANdoRhO8B+L/TuX+BgYBgd7oK32ziTnSG3unb/ZSjKcCPudoWy7vTzeAtkUlA1t3oLd/UYkLzsE++Xbhb5/a2kOCuVecTcyeROcKYBtKIW0dg0zdODTnWFuu7003QFZGOKhaqNKTlXrr5TjUu0wQwCaddp5sZ+ungAAXWgR7uJrsiG8BPlIN/THUmezG7sEwkPekGyDrdYUJNrb+4ACCBrgAh27nKdcF6ktxu9B6S7E1b0Vhd2si0fEc1hdzof9YFTB+iX0w3o9ugJxMMNXA1hdj6ysBtvFQFMQoEYOrNzu5eouw6ISjhsdhD9+gSm/nSuCbFkD/MXTMDFdf4RrM96IbYEBGKLejIChKpZ+w8MQgwAdPRJGbFfT2bIREmwuLyvkg7JcBjHWYS4g72O9BN8BAp5QbDkGxp3tRII9s4QkFOxIEkhM8XZ9hil/R9w1kjcdC/zZ1Zvu4hiOc+/L16wYYNCPMcqBg7r3/z0Nj/BfDNR4NWdEwH800rxox/h6vWzfAoJpgrkFg74LT8U6ucSHQOT7ANR4nrEy6uEa7/T/xmvelAf4f+7KKGoJmt80AAAAASUVORK5CYII=;" parent="up1Xrg0N40dvPqba2eU4-113" vertex="1">
          <mxGeometry y="17.313432835820894" width="18" height="18" as="geometry" />
        </mxCell>
        <mxCell id="up1Xrg0N40dvPqba2eU4-118" value="" style="group" parent="1" vertex="1" connectable="0">
          <mxGeometry x="870" y="360" width="30" height="44" as="geometry" />
        </mxCell>
        <mxCell id="up1Xrg0N40dvPqba2eU4-119" value="" style="sketch=0;aspect=fixed;pointerEvents=1;shadow=0;dashed=0;html=1;strokeColor=none;labelPosition=center;verticalLabelPosition=bottom;verticalAlign=top;align=center;fillColor=#3399FF;shape=mxgraph.mscae.enterprise.database_server;fontSize=12;fontColor=#990000;" parent="up1Xrg0N40dvPqba2eU4-118" vertex="1">
          <mxGeometry width="26.125" height="34.375" as="geometry" />
        </mxCell>
        <mxCell id="up1Xrg0N40dvPqba2eU4-120" value="" style="shape=image;imageAspect=0;aspect=fixed;verticalLabelPosition=bottom;verticalAlign=top;fontSize=13;fontColor=#000066;strokeColor=#000000;strokeWidth=3;fillColor=default;image=data:image/png,iVBORw0KGgoAAAANSUhEUgAAAIAAAACACAYAAADDPmHLAAAACXBIWXMAAAsTAAALEwEAmpwYAAAFFmlUWHRYTUw6Y29tLmFkb2JlLnhtcAAAAAAAPD94cGFja2V0IGJlZ2luPSLvu78iIGlkPSJXNU0wTXBDZWhpSHpyZVN6TlRjemtjOWQiPz4gPHg6eG1wbWV0YSB4bWxuczp4PSJhZG9iZTpuczptZXRhLyIgeDp4bXB0az0iQWRvYmUgWE1QIENvcmUgNi4wLWMwMDIgNzkuMTY0MzUyLCAyMDIwLzAxLzMwLTE1OjUwOjM4ICAgICAgICAiPiA8cmRmOlJERiB4bWxuczpyZGY9Imh0dHA6Ly93d3cudzMub3JnLzE5OTkvMDIvMjItcmRmLXN5bnRheC1ucyMiPiA8cmRmOkRlc2NyaXB0aW9uIHJkZjphYm91dD0iIiB4bWxuczp4bXA9Imh0dHA6Ly9ucy5hZG9iZS5jb20veGFwLzEuMC8iIHhtbG5zOmRjPSJodHRwOi8vcHVybC5vcmcvZGMvZWxlbWVudHMvMS4xLyIgeG1sbnM6cGhvdG9zaG9wPSJodHRwOi8vbnMuYWRvYmUuY29tL3Bob3Rvc2hvcC8xLjAvIiB4bWxuczp4bXBNTT0iaHR0cDovL25zLmFkb2JlLmNvbS94YXAvMS4wL21tLyIgeG1sbnM6c3RFdnQ9Imh0dHA6Ly9ucy5hZG9iZS5jb20veGFwLzEuMC9zVHlwZS9SZXNvdXJjZUV2ZW50IyIgeG1wOkNyZWF0b3JUb29sPSJBZG9iZSBQaG90b3Nob3AgMjEuMSAoV2luZG93cykiIHhtcDpDcmVhdGVEYXRlPSIyMDIxLTAyLTA4VDEzOjIwOjE0LTA1OjAwIiB4bXA6TW9kaWZ5RGF0ZT0iMjAyMS0wMi0wOFQxMzoyNToyMi0wNTowMCIgeG1wOk1ldGFkYXRhRGF0ZT0iMjAyMS0wMi0wOFQxMzoyNToyMi0wNTowMCIgZGM6Zm9ybWF0PSJpbWFnZS9wbmciIHBob3Rvc2hvcDpDb2xvck1vZGU9IjMiIHBob3Rvc2hvcDpJQ0NQcm9maWxlPSJzUkdCIElFQzYxOTY2LTIuMSIgeG1wTU06SW5zdGFuY2VJRD0ieG1wLmlpZDpmZmQ3MWYyOS1kNTg0LTQ3NGUtOTE5Zi0zMmM2N2ZiMDExMzIiIHhtcE1NOkRvY3VtZW50SUQ9InhtcC5kaWQ6ZmZkNzFmMjktZDU4NC00NzRlLTkxOWYtMzJjNjdmYjAxMTMyIiB4bXBNTTpPcmlnaW5hbERvY3VtZW50SUQ9InhtcC5kaWQ6ZmZkNzFmMjktZDU4NC00NzRlLTkxOWYtMzJjNjdmYjAxMTMyIj4gPHhtcE1NOkhpc3Rvcnk+IDxyZGY6U2VxPiA8cmRmOmxpIHN0RXZ0OmFjdGlvbj0iY3JlYXRlZCIgc3RFdnQ6aW5zdGFuY2VJRD0ieG1wLmlpZDpmZmQ3MWYyOS1kNTg0LTQ3NGUtOTE5Zi0zMmM2N2ZiMDExMzIiIHN0RXZ0OndoZW49IjIwMjEtMDItMDhUMTM6MjA6MTQtMDU6MDAiIHN0RXZ0OnNvZnR3YXJlQWdlbnQ9IkFkb2JlIFBob3Rvc2hvcCAyMS4xIChXaW5kb3dzKSIvPiA8L3JkZjpTZXE+IDwveG1wTU06SGlzdG9yeT4gPC9yZGY6RGVzY3JpcHRpb24+IDwvcmRmOlJERj4gPC94OnhtcG1ldGE+IDw/eHBhY2tldCBlbmQ9InIiPz4nnaAOAAAXvUlEQVR42u2deXzbVLbH57/SQKlLN7olTuLEdqDUpRS6PKiBshaKYdg6PMBQGAZ4QIB58NjNUtZ+MAw7lJoOy0zZDAVmWApuC6VsxQW60BJwszp24iiJncSSnJ535CiuJd0ry07KJLby+Xw/SSzp2Nbvd889917J/gMA/GFfMNx/wqYqw1B5LftKo6ROugGoBnAhRt0AhWsAJ+LTDVC4BrAjIPxW2y/+XGm1boD8NoAvgwHsiE03QP4ZwCgaQDULiAZw6AbIMwOIJoBMWQDFNyIu3QD5bYBMWcCtGyD/DaCWBXy6AfLfAAI23QCFbQCPboDCNgCQpoh1AxSWAaoJw0DdAAVkgIBugMKYCLJRDCApBlF8pz4MzO+pYFArBoVJIH0iKH9XA2kGYNIM4BWygG6APDNAyFTlQkAFh2iAgFAH6AbIPwP4MhjAg8IbEBB+6wbIPwMwGQzAxJ8vdQgZYF+/Ft0Av7/4xgziJ+lylfvjL5R6M8VrNVrsiBdhkADiQYy6AYauAaq1GKDn0TJgX1S/IgiFdorCu0Qj2MTHBCPYdAMMTQN4M4nfOt8CrMcI7EqjTUV8gyi+ILoP8YsIfzuEv3UDDD3xDVpaf/QGE/RgARhSuXy8P/WLf/vE/40IiI8FtHQFugGGWPoPH2oFLAAheqNJ+N+ewQCuNAMIgoPQBaSbQjfAUDJAWVUAATWYP1YC+4oR2haZhf9dKgaw9af5tAzgF9N/f/dg0A0wdMR30kQPmvb+HX862ff3/+/LUAT6xaLPLRrCJo4IhJGAR68BhtBPczm2/nIUlUDQ2vc7stAM3OoSiN5Unvwfj2EyGMAomsAjtnynmA18Wlq/boDfT3xnc5+gRIIz+353P1QK3BvFEDnBnL49o5Ci8C4Rhz4RNLTENwgtmWoACxrgSGz9J5qBf2saxFeUyPfR1wKGuQHcaq2/eToaYD5W/iuLgXtnGrRfYpLvU60bYJgaQGi9quILYOtvv9kE/Jqp2P9PhRAOA2X7uHQDDEMDZEz9IqFTrcB5pwD/wWSI3Wkk7ePVDTCEDUCbrBGEy9j6hcLv2WJIfDgpSfhIC2kf/ZrAoWoAFN8ZItzQIaRtLeJHTquAxMcHJ+m6u4S2n26AoWiAUFlVtTC5QxDfoUX80HRM/a9Pgt5PJyRpIbf+jHMBugH+M+J7EDdBfJuWfj+Z+t1TIeGbkCT2QInqvroBhogBxMJO6Ns9lG1+LeK3X1wGiQ3jk/BrJ0LLBRbNBgiWVxkFdAP8/uIbRYGJ6+woij8ozOplIHyUGfhPsOVvHJ8k9kwJhM9XP0b2PIbgINYFugG0id+f2v2kqVkUxKNF/Gbs9+OrJ0Liq7FJOOz7W6+1YgawajaA+HzC49W6AX7feXzBADaCGG4t4gvElk+GxDdjUrQ/WAatN1ggfHZOBmCC5QP/vEHdAOriu9Tm5FEAp1bxmaVGSGw2pOh+cxJEbrIkCZ+magCf7Dltads8ugH2nfieNPGdBPEdWsVvWWgCfsuBKbhvDNB2VyVEbrUkCS/OygB22XajboDBr/TTq3k3QXybmIIz9/uHWYDbNAr4H/dP0YmFX+QOS4qwQ9UAXjUDNA1wqlg3gLLY86vNwolVuGbx4+8bgN9WlKL7g/HQ5rJICNlVDSBZDELB7U19wqdj1w0wwB9Cq/bLiyxRfL/mou9JHOr9PDIF9/0oYB6qhLb7LBJC81UN4JQZwEUwgEc3wMDElxdzghFIFb9Xq/gdd2HFXzNSQsczpcA8YFbQPEM1lqR1N5WhAcpQdDmludUCBW8AYTxNOOmOgQz3mCuLgf+tSELMOxmYhyuJZDMERKF9CBDw6AbIXnxPpj5XTLuah3vhk7DiryuSEN+MY/5HK4lEbjSrxfMTDBCgGIBBDLoBtAlvoIjvI4hvQxhCv6sgNL8SuJ+x4m/YPwUXGIVVfzl0PF5BJPIXs1pMt0x8A0X8fqp1A2gTn1TIKWbWUAAD4tcifnCGFXrWTUDRx0iIrTZC51OVVMKnW9TiOmQGcGQwQEA3QG7iK4ot8YR7iAUXge73pwLfOFFCz2fF0PlspSrNNpW4ckOWVrkzGEDAphsge/FdBPEdGk52kuiKMhR8qgT2p2KIvmBSpWN5hVpcH+E1+TW8Ho9uAGU/rpbKSSfaIBZVGcVvu9qCgpdJqS2D2MvlEF1pUiVyhVlzf66h/08Vg7oBtIsvFHdGggG8Wk52+MQqFNyioHuNCWKryjMSmmtViy9P/06tGUnIXroBtKVNZ66pPzi9Cridh6HgUuIbLdD1anlGok+a1OIr5vcby6q8CGjEoxugv4jL4iRnk/p71h8OfNMsCdz2GdD1jzJNtF1WqbkFo6CGLMQXYAreABlSJnHSJINhUnQ+djgkmo6SwNcdiam/ArpeL9NE8+FWzUM5FNSZpQEEbAVrAGEolO2ECT5m1yJ+5GIbCj5fQdxnhe63SzXRfotq+ncSDODLwQCugjSAmMb92QyvxJPsz3RSm+dNB37XMZAILpDAbZ8NPe+WaCZ0tIX2HKTWb8xBfAF/oRrAne1EidYUG99gR8EXSqldAPF/GyH+/jRNRN2las9Bav2uHA0AjRquGcwrAwj9XoaT4iYcIxRYgUwns2PZXEg0n6yA/dyMBpiqmfBJZs2tP2loS1UAgRyxF5oB1NI4I4idSwsLnTQTxT5dAb/1SGA/nqyZjruNWbX+JhsWssJUce64CsYAGtK4i9L6mYyp//NTUfAzpTQuBnbdNGA/naSZ5tnUvp9YlzTNqfI1HYVC5o6vIAygIY3n3PqZW45Gwc9RwG0+FA0wSTPM9WVZDdmaFuCo5BgUcWAwhWGAShSyAk8kDRM5FTaZqxgEaARnYdVfcx4K/icJfOAU4D4/WDM970yG4Ewr8TnwtRO/Eia4sMqLwIA5Uf1SsbwwQNMMLJRm4AklwzQdQpj00dC/xl7G1B+6UAH3TTFwX07QTOvFJvJzCK97+iHKW80WWW3BU1C8weBU9XWBYW+Apnko5Fw8mXTclP41gACN0OKZwIecSnbOA+7rcZqJvTCF+hzYRxOr9OAZVT4EBglXXhsgeFyVHwEqxxJW+xZUORBQI7p6MfDhy6Q0LcG+H9P6t2M1wW4YB80nWcnPcQx5wSZ0ttUe+qMVBhFP3hoA05sNASqnkKvg4AnYv56A2ymElxyOgl+hgPt5JnDfj9FMpLqM9hyB4PHkSZrQ+VYfAoOIL28N0HxmlRsBKg7CPX2nVRlVTYPE3j4LBb9KSvBi4LaM1kx05SQ1YxJTf/hCqxOBQSaQtwYInWdlEKBytlXRytAU1QjQCC05DPiWaxVwNdj6fzpQE/ENY7DlWYjxsU8m1iThpVZD+BIrg8Bgk5cGCF9ktWVwvo/SxwYQoNHx9Cko+PVSmrH/33aAZlr/x0SL7w+dZSWm/vCfre7w5fi69wVXWA35Z4ClVhcCKiiWfEN/stpCS1AIFdidV6Pof5USmAX8jgM00fH4VHr8863ENfqWq622liutsA+x550B8E35sn3TmDVcCNCI3DIHEq03SxH6/11Fmuh+bxw1NmYk6k0bLddY/Qhoof1vJaB13zTy0ADCZ+uoQOln/WpZI/bOeZCI3Cql4Tjga4oywm4+EFquMpNjX0qvxFuvt1QjoBV2+4GQzf4i+WWA1v+12Fr/im+MjqLybfmL1Yh9IajB1dyIot8pgQ+MUdzoSSJyRzktLoP9O3E6tvUmixHfC4OAFtofK03ebqZ1/zTyzAC3mB0IqOAj9LNOBGhEbjsCBXdJaT4b+N1FGYm+OhlUYlOnYoXXmeF9SOj5+mA0wFjI5hiR/DJA5A6zCwEVFEOtlmqLp+U6FIRC52sOFP1eCXyjDfjaIlVYHPapxKV+fEvkdnM1AlrpeNqEr2dKkmyOE8kzA9yDBrgH3xgdxfw3dgt+tW6j27cURb9/L62Y/uuLMtLuLiXHvBFT+w3k7+2JuMzGyF1mBgGtxL81pe48yuY4kfwyQNv9lS4EVFAa4GZMhSpwgdsh0fbgXsJLMN0WqdK9YSw95k1maupHg/oyGFhC5yrhjqNDUmRzrEieGeCRChcCKkimgCO3me0I0Gi7ZzqKvlwCH8Sxf8MBqjAPmsgxbzVTq34N5pXAPILm3C29CSWb40XyywDtj5lcCKggecORO81OBGh0PH8siv6oBL5htCrdnx1Mi8dgDUKs+tserrC1CR8SlQXxr2dBommOhGxjIPllgI4nTS4EVLDLUq5qzRB9/QwU/fG9tF6PIh+kCvOoiRzvbjNx/b39UZOBWV7hR0Ar0bdnoODHKMgmhkDb8gpbXhmg8zmTCwEVJAZoW4Zpdxm2BApdH1+Iwj+xl9A5ig97kHzww6aptFiBtvsqiYUfZiV3hqwlofOlKuU9CCLZxBHIu8WgzhXlzs4Xy4FOmWTaFVOgSy1Fdq29CBLM0yn45uNR6GlUOl4qJ8d6sNJJOslCRup4AjOTRqIvH4ojDOG+g0VEsoklkHcGiK4qtSOggiQNYxp0qaVIdgeOANqfS8E3YdHVWE6E21VOS7PEdfeOZ0wGHMMzwjheC50vmIH/TRDaQUVrLJH8uyAk9kqpMfZqKajgkqVf1aKR/fkOFP6FFHxjFZWuD8zkOG4TsfV3Pm/yIqCF6Eqs+HcKN52cS4WvPwu0xkvynMmbl9cDxFYbGeETuChIroPDNOhSS5HsThcKv7IPYQawaSaVzhcrFce3P2Eitn7sihzYXYEWoqsqMbucifXHf6vCbT8dtMYUoV4Uiq/POGwN0PVWsQ8BCpK0h2nQpZYm2V13o/ir+mi7XzHs6ofbcQQthqL1R18qNUQ9pUzUUwaZiL2C4v9yDvkqZBnsDgdoiZkGdUIKX59n2Bqge81UFwIUArI07FJLk9wv90Gi45U+hGsAZLd/99OzbibpeOLdN9GXS70IZCL2jwrgas4HPny5JuL+RaAlboq/lxLnJLAbNeB2Zvga4IMptu5/TQEaslTnQoAG9+sy6O18LUkichOKfSKR2BtW0vGKhafYa6X2DDVKiviWM5QXoKoQ/+oE0BoboV4Qits8wvZhfVFoz8cHBxCgYN+bjsvsCNBgv78WxV/dR+Q2LLYWK+AbFpGP95QpJlli/zT6EchE/MezgG+5Lit61h8NWmKLEO8JwBrJJm73DW8DfDrBE/9sAlCoTkvHtpiQbinEv/0ziv9mH8nrAAg3g+44WXEcxlW0sK43S+xdb5RAJno2LURBb8ya7k+OAC3xRYgjE3zcL253DWsDxNdPsCFAwSNLy0AjvuliFP/tJIm2ZcT7AeObFpCOVaT/rrenebvexkJUhZ7185TXHmokU2wJbxUrZiW7vNPcafs4h/2tYfGNY/3sxrFAICBLe37asLF77ULojb6bJNH2MPa1SxV0fzqbdKwk/WPxaeh+F4tQFXo+sqChsM6I3J41fON1kCl+GorxP74+h2wf27A3APv1GCcCRL4ZY0xLzR4ESHS/a4He2PtJEh3PYqq9SkH3+xb5cYrqHwtTJwJq8HXXKC890wj3ixMyxU/x/hRJ+u/+12QbPs6k75M3t4ez340KIKBg8yhnWuqr7npnGtDobX8LDfBv7AZexVR7gwLFMd5pihbW8+Ekb8+Hk4EG++MZisvOsoH1nwxq8dNBwVPpv+ejSUZ8bYxsH1/+GMC/fzUCBLxp6c/Y/R6mPQr87gfRAB9hN/AWnuxbJPCN15COUcyw4ciDoY1K4l9Mx1gPDAghhsqoJ51U/dPzyUQD/u8n7OPKq88IYn8aGUBAwdaRhrQ0GECABPvDJWiAT5LIUy8fuIJ0jGTJGUckNgRo8I3Y77c9kjst94FafBnJ2gRHQkb820/Zx55fBtg20sluR8GVONNSoRsBEvEv5kBvly9JghEuDHkgBV97NekYyQxbfN2EagRIcD8sxDjuAcH/egnQ4svwpUZI6yYwlH2YvPyYOPbn/Xzszv1Ahi8tHdp61k4EGom2N6G3ez0Wgqukl4fVViv2lT93/PPxbgRIJEL3Si84yQHup4VAiy9hwwQ7/nYgDH2f8Z78NMAvI4wIKKgZkWqtmBb9cR+2AgL8b/+HBvgC64A1mAWeSsHvvka+r2KNHYedPtJwlNu2UHKxSa6wX00BynA3HR/75Vi3hv0ceftRsexvI1wIyEgVbNhCnAiQYL87Cg3wJXYD63FUsCIFX3OpfF+lAb4a40dADt8srDQ+PyD4huuAFDtHmLz/tHB29wgfW4vC74VBUsVg/ItxDLtxHJDobV+DJvgah4P/RF5JkmhySfbB4xVDQPbb0aDAX7r3OoMBwG2fD8T4ufDNaHf+G6AWu4I+0dNNkCoG2U0HuRAgwQeuhd6e73A08DF2BW8mSTQvk++nGAKym5PzDhK4msUo4N8HRtuzQIo9AIwF8YURbO1IO1tXBGkE0mYPDdgSGAQUbJ6CBvi+Lwv0zw6GHpbv5yLMRSjmIRKhu1LLzLnC7z4fKHMcueArqK+MYetGVbN1B8JeRjvTZg+dtFaSCD6AJvhBHBauxW7hNfk+SgP8iCaT0dv5+oBht44DUuyc+KHIXnBfGsXWjfOw9eNBhGHrJxrSWq2P1FK4rSbojf+EJtgMe7o3JpHtozTA1uSkUwpupwUFfGtAJILXgTzuAPAV7PcGsvVTvWz9NBBJicduKbLRWksi/BDsiW+DPYIJsCYQviEsbbvSALIJKO7XWakVxlzhdhYDZXIrF+wFbIByA1tf4efqK6EPizGt5VaTWgy3sxz2sDuRHcg24OvOTd/uIUxC+RHoh2+6COuHD3KGb74S0uMNEG/Bf3Us1zDdwDXM8HMNNuAaZvpkrddHajWJ8F0o/i+wh/sV/747fZtyHmAXDj134WhDhA86UcgPcwPTP1tzEKTHSyE8TttGhkGMBW+APhPMRhPMQRPMQRPMTV0yxu7Yz4CtJKBoObvGYzewBfbwtVgMfpq+TWmAmhEeBPrhmy9FMdfmBB88F9Jj9cPVzYbejteACxQTt1OoLvjvDpaYoHGBgWs81ss1HsdwjScY01qwTWwtkhbEN52PGaAWcCiAJ74i9XimGUjhKqLernVZIyxEyWcyudpiSERuS24XLgwlzHTS8Bb8V8fSjXCah2tc7Je1Yhv7K544Gb3RN2BPohX40NK9j/8mTavs7hF2BPrhWy7vW1fIhq4PsT4pTsXg6kuAb70h+Xj/drZ2LKQ/jwoBNjDCoBtA5QdTrZMPLvHIWrITTxykw9WVJ4vB3u616Y87ZLOPhvSZR771Ctx/U1bw4QuArRuLRjsDM8FyxXau+XiQzW7SEGZBC/ebQ7MzwUU2vvlig6w1O+UnlQ+djlmgDWuHyv7HXIQpaH///lzTHOjt+TY7Ymuo2xLM3VrFF3Boff8FbwCV9QSHfD0h0fEUJNof7v/fT5h+drN1OEpAuKbD+qaUB4FEdHXfRJYYW5Xa/ZzZvE/dAOomsPWZYD9IUj8B++E1KO7hID4mzRx1BzjYulHQT2/8xwGTiOGQsH4SpMelc4Az2/eoGyDjVHKRka3b34+AANdoRhO8B+L/TuX+BgYBgd7oK32ziTnSG3unb/ZSjKcCPudoWy7vTzeAtkUlA1t3oLd/UYkLzsE++Xbhb5/a2kOCuVecTcyeROcKYBtKIW0dg0zdODTnWFuu7003QFZGOKhaqNKTlXrr5TjUu0wQwCaddp5sZ+ungAAXWgR7uJrsiG8BPlIN/THUmezG7sEwkPekGyDrdYUJNrb+4ACCBrgAh27nKdcF6ktxu9B6S7E1b0Vhd2si0fEc1hdzof9YFTB+iX0w3o9ugJxMMNXA1hdj6ysBtvFQFMQoEYOrNzu5eouw6ISjhsdhD9+gSm/nSuCbFkD/MXTMDFdf4RrM96IbYEBGKLejIChKpZ+w8MQgwAdPRJGbFfT2bIREmwuLyvkg7JcBjHWYS4g72O9BN8BAp5QbDkGxp3tRII9s4QkFOxIEkhM8XZ9hil/R9w1kjcdC/zZ1Zvu4hiOc+/L16wYYNCPMcqBg7r3/z0Nj/BfDNR4NWdEwH800rxox/h6vWzfAoJpgrkFg74LT8U6ucSHQOT7ANR4nrEy6uEa7/T/xmvelAf4f+7KKGoJmt80AAAAASUVORK5CYII=;" parent="up1Xrg0N40dvPqba2eU4-118" vertex="1">
          <mxGeometry y="17.875" width="26.125" height="26.125" as="geometry" />
        </mxCell>
        <mxCell id="up1Xrg0N40dvPqba2eU4-123" value="" style="endArrow=none;startArrow=classic;html=1;rounded=0;curved=1;exitX=1;exitY=0.5;exitDx=0;exitDy=0;exitPerimeter=0;endFill=0;strokeColor=default;strokeWidth=4;" parent="1" source="up1Xrg0N40dvPqba2eU4-10" edge="1">
          <mxGeometry width="50" height="50" relative="1" as="geometry">
            <mxPoint x="813" y="294" as="sourcePoint" />
            <mxPoint x="863" y="244" as="targetPoint" />
          </mxGeometry>
        </mxCell>
        <mxCell id="up1Xrg0N40dvPqba2eU4-124" value="" style="endArrow=classic;startArrow=classic;html=1;rounded=0;curved=1;exitX=1.024;exitY=0.781;exitDx=0;exitDy=0;exitPerimeter=0;strokeColor=#08000F;strokeWidth=4;" parent="1" source="up1Xrg0N40dvPqba2eU4-10" edge="1">
          <mxGeometry width="50" height="50" relative="1" as="geometry">
            <mxPoint x="709" y="393.75" as="sourcePoint" />
            <mxPoint x="862" y="370.25" as="targetPoint" />
          </mxGeometry>
        </mxCell>
        <mxCell id="up1Xrg0N40dvPqba2eU4-125" value="" style="group" parent="1" vertex="1" connectable="0">
          <mxGeometry x="610" y="270" width="30" height="44" as="geometry" />
        </mxCell>
        <mxCell id="up1Xrg0N40dvPqba2eU4-126" value="" style="sketch=0;aspect=fixed;pointerEvents=1;shadow=0;dashed=0;html=1;strokeColor=none;labelPosition=center;verticalLabelPosition=bottom;verticalAlign=top;align=center;fillColor=#3399FF;shape=mxgraph.mscae.enterprise.database_server;fontSize=12;fontColor=#990000;" parent="up1Xrg0N40dvPqba2eU4-125" vertex="1">
          <mxGeometry width="26.125" height="34.375" as="geometry" />
        </mxCell>
        <mxCell id="up1Xrg0N40dvPqba2eU4-127" value="" style="shape=image;imageAspect=0;aspect=fixed;verticalLabelPosition=bottom;verticalAlign=top;fontSize=13;fontColor=#000066;strokeColor=#000000;strokeWidth=3;fillColor=default;image=data:image/png,iVBORw0KGgoAAAANSUhEUgAAAIAAAACACAYAAADDPmHLAAAACXBIWXMAAAsTAAALEwEAmpwYAAAFFmlUWHRYTUw6Y29tLmFkb2JlLnhtcAAAAAAAPD94cGFja2V0IGJlZ2luPSLvu78iIGlkPSJXNU0wTXBDZWhpSHpyZVN6TlRjemtjOWQiPz4gPHg6eG1wbWV0YSB4bWxuczp4PSJhZG9iZTpuczptZXRhLyIgeDp4bXB0az0iQWRvYmUgWE1QIENvcmUgNi4wLWMwMDIgNzkuMTY0MzUyLCAyMDIwLzAxLzMwLTE1OjUwOjM4ICAgICAgICAiPiA8cmRmOlJERiB4bWxuczpyZGY9Imh0dHA6Ly93d3cudzMub3JnLzE5OTkvMDIvMjItcmRmLXN5bnRheC1ucyMiPiA8cmRmOkRlc2NyaXB0aW9uIHJkZjphYm91dD0iIiB4bWxuczp4bXA9Imh0dHA6Ly9ucy5hZG9iZS5jb20veGFwLzEuMC8iIHhtbG5zOmRjPSJodHRwOi8vcHVybC5vcmcvZGMvZWxlbWVudHMvMS4xLyIgeG1sbnM6cGhvdG9zaG9wPSJodHRwOi8vbnMuYWRvYmUuY29tL3Bob3Rvc2hvcC8xLjAvIiB4bWxuczp4bXBNTT0iaHR0cDovL25zLmFkb2JlLmNvbS94YXAvMS4wL21tLyIgeG1sbnM6c3RFdnQ9Imh0dHA6Ly9ucy5hZG9iZS5jb20veGFwLzEuMC9zVHlwZS9SZXNvdXJjZUV2ZW50IyIgeG1wOkNyZWF0b3JUb29sPSJBZG9iZSBQaG90b3Nob3AgMjEuMSAoV2luZG93cykiIHhtcDpDcmVhdGVEYXRlPSIyMDIxLTAyLTA4VDEzOjIwOjE0LTA1OjAwIiB4bXA6TW9kaWZ5RGF0ZT0iMjAyMS0wMi0wOFQxMzoyNToyMi0wNTowMCIgeG1wOk1ldGFkYXRhRGF0ZT0iMjAyMS0wMi0wOFQxMzoyNToyMi0wNTowMCIgZGM6Zm9ybWF0PSJpbWFnZS9wbmciIHBob3Rvc2hvcDpDb2xvck1vZGU9IjMiIHBob3Rvc2hvcDpJQ0NQcm9maWxlPSJzUkdCIElFQzYxOTY2LTIuMSIgeG1wTU06SW5zdGFuY2VJRD0ieG1wLmlpZDpmZmQ3MWYyOS1kNTg0LTQ3NGUtOTE5Zi0zMmM2N2ZiMDExMzIiIHhtcE1NOkRvY3VtZW50SUQ9InhtcC5kaWQ6ZmZkNzFmMjktZDU4NC00NzRlLTkxOWYtMzJjNjdmYjAxMTMyIiB4bXBNTTpPcmlnaW5hbERvY3VtZW50SUQ9InhtcC5kaWQ6ZmZkNzFmMjktZDU4NC00NzRlLTkxOWYtMzJjNjdmYjAxMTMyIj4gPHhtcE1NOkhpc3Rvcnk+IDxyZGY6U2VxPiA8cmRmOmxpIHN0RXZ0OmFjdGlvbj0iY3JlYXRlZCIgc3RFdnQ6aW5zdGFuY2VJRD0ieG1wLmlpZDpmZmQ3MWYyOS1kNTg0LTQ3NGUtOTE5Zi0zMmM2N2ZiMDExMzIiIHN0RXZ0OndoZW49IjIwMjEtMDItMDhUMTM6MjA6MTQtMDU6MDAiIHN0RXZ0OnNvZnR3YXJlQWdlbnQ9IkFkb2JlIFBob3Rvc2hvcCAyMS4xIChXaW5kb3dzKSIvPiA8L3JkZjpTZXE+IDwveG1wTU06SGlzdG9yeT4gPC9yZGY6RGVzY3JpcHRpb24+IDwvcmRmOlJERj4gPC94OnhtcG1ldGE+IDw/eHBhY2tldCBlbmQ9InIiPz4nnaAOAAAXvUlEQVR42u2deXzbVLbH57/SQKlLN7olTuLEdqDUpRS6PKiBshaKYdg6PMBQGAZ4QIB58NjNUtZ+MAw7lJoOy0zZDAVmWApuC6VsxQW60BJwszp24iiJncSSnJ535CiuJd0ry07KJLby+Xw/SSzp2Nbvd889917J/gMA/GFfMNx/wqYqw1B5LftKo6ROugGoBnAhRt0AhWsAJ+LTDVC4BrAjIPxW2y/+XGm1boD8NoAvgwHsiE03QP4ZwCgaQDULiAZw6AbIMwOIJoBMWQDFNyIu3QD5bYBMWcCtGyD/DaCWBXy6AfLfAAI23QCFbQCPboDCNgCQpoh1AxSWAaoJw0DdAAVkgIBugMKYCLJRDCApBlF8pz4MzO+pYFArBoVJIH0iKH9XA2kGYNIM4BWygG6APDNAyFTlQkAFh2iAgFAH6AbIPwP4MhjAg8IbEBB+6wbIPwMwGQzAxJ8vdQgZYF+/Ft0Av7/4xgziJ+lylfvjL5R6M8VrNVrsiBdhkADiQYy6AYauAaq1GKDn0TJgX1S/IgiFdorCu0Qj2MTHBCPYdAMMTQN4M4nfOt8CrMcI7EqjTUV8gyi+ILoP8YsIfzuEv3UDDD3xDVpaf/QGE/RgARhSuXy8P/WLf/vE/40IiI8FtHQFugGGWPoPH2oFLAAheqNJ+N+ewQCuNAMIgoPQBaSbQjfAUDJAWVUAATWYP1YC+4oR2haZhf9dKgaw9af5tAzgF9N/f/dg0A0wdMR30kQPmvb+HX862ff3/+/LUAT6xaLPLRrCJo4IhJGAR68BhtBPczm2/nIUlUDQ2vc7stAM3OoSiN5Unvwfj2EyGMAomsAjtnynmA18Wlq/boDfT3xnc5+gRIIz+353P1QK3BvFEDnBnL49o5Ci8C4Rhz4RNLTENwgtmWoACxrgSGz9J5qBf2saxFeUyPfR1wKGuQHcaq2/eToaYD5W/iuLgXtnGrRfYpLvU60bYJgaQGi9quILYOtvv9kE/Jqp2P9PhRAOA2X7uHQDDEMDZEz9IqFTrcB5pwD/wWSI3Wkk7ePVDTCEDUCbrBGEy9j6hcLv2WJIfDgpSfhIC2kf/ZrAoWoAFN8ZItzQIaRtLeJHTquAxMcHJ+m6u4S2n26AoWiAUFlVtTC5QxDfoUX80HRM/a9Pgt5PJyRpIbf+jHMBugH+M+J7EDdBfJuWfj+Z+t1TIeGbkCT2QInqvroBhogBxMJO6Ns9lG1+LeK3X1wGiQ3jk/BrJ0LLBRbNBgiWVxkFdAP8/uIbRYGJ6+woij8ozOplIHyUGfhPsOVvHJ8k9kwJhM9XP0b2PIbgINYFugG0id+f2v2kqVkUxKNF/Gbs9+OrJ0Liq7FJOOz7W6+1YgawajaA+HzC49W6AX7feXzBADaCGG4t4gvElk+GxDdjUrQ/WAatN1ggfHZOBmCC5QP/vEHdAOriu9Tm5FEAp1bxmaVGSGw2pOh+cxJEbrIkCZ+magCf7Dltads8ugH2nfieNPGdBPEdWsVvWWgCfsuBKbhvDNB2VyVEbrUkCS/OygB22XajboDBr/TTq3k3QXybmIIz9/uHWYDbNAr4H/dP0YmFX+QOS4qwQ9UAXjUDNA1wqlg3gLLY86vNwolVuGbx4+8bgN9WlKL7g/HQ5rJICNlVDSBZDELB7U19wqdj1w0wwB9Cq/bLiyxRfL/mou9JHOr9PDIF9/0oYB6qhLb7LBJC81UN4JQZwEUwgEc3wMDElxdzghFIFb9Xq/gdd2HFXzNSQsczpcA8YFbQPEM1lqR1N5WhAcpQdDmludUCBW8AYTxNOOmOgQz3mCuLgf+tSELMOxmYhyuJZDMERKF9CBDw6AbIXnxPpj5XTLuah3vhk7DiryuSEN+MY/5HK4lEbjSrxfMTDBCgGIBBDLoBtAlvoIjvI4hvQxhCv6sgNL8SuJ+x4m/YPwUXGIVVfzl0PF5BJPIXs1pMt0x8A0X8fqp1A2gTn1TIKWbWUAAD4tcifnCGFXrWTUDRx0iIrTZC51OVVMKnW9TiOmQGcGQwQEA3QG7iK4ot8YR7iAUXge73pwLfOFFCz2fF0PlspSrNNpW4ckOWVrkzGEDAphsge/FdBPEdGk52kuiKMhR8qgT2p2KIvmBSpWN5hVpcH+E1+TW8Ho9uAGU/rpbKSSfaIBZVGcVvu9qCgpdJqS2D2MvlEF1pUiVyhVlzf66h/08Vg7oBtIsvFHdGggG8Wk52+MQqFNyioHuNCWKryjMSmmtViy9P/06tGUnIXroBtKVNZ66pPzi9Cridh6HgUuIbLdD1anlGok+a1OIr5vcby6q8CGjEoxugv4jL4iRnk/p71h8OfNMsCdz2GdD1jzJNtF1WqbkFo6CGLMQXYAreABlSJnHSJINhUnQ+djgkmo6SwNcdiam/ArpeL9NE8+FWzUM5FNSZpQEEbAVrAGEolO2ECT5m1yJ+5GIbCj5fQdxnhe63SzXRfotq+ncSDODLwQCugjSAmMb92QyvxJPsz3RSm+dNB37XMZAILpDAbZ8NPe+WaCZ0tIX2HKTWb8xBfAF/oRrAne1EidYUG99gR8EXSqldAPF/GyH+/jRNRN2las9Bav2uHA0AjRquGcwrAwj9XoaT4iYcIxRYgUwns2PZXEg0n6yA/dyMBpiqmfBJZs2tP2loS1UAgRyxF5oB1NI4I4idSwsLnTQTxT5dAb/1SGA/nqyZjruNWbX+JhsWssJUce64CsYAGtK4i9L6mYyp//NTUfAzpTQuBnbdNGA/naSZ5tnUvp9YlzTNqfI1HYVC5o6vIAygIY3n3PqZW45Gwc9RwG0+FA0wSTPM9WVZDdmaFuCo5BgUcWAwhWGAShSyAk8kDRM5FTaZqxgEaARnYdVfcx4K/icJfOAU4D4/WDM970yG4Ewr8TnwtRO/Eia4sMqLwIA5Uf1SsbwwQNMMLJRm4AklwzQdQpj00dC/xl7G1B+6UAH3TTFwX07QTOvFJvJzCK97+iHKW80WWW3BU1C8weBU9XWBYW+Apnko5Fw8mXTclP41gACN0OKZwIecSnbOA+7rcZqJvTCF+hzYRxOr9OAZVT4EBglXXhsgeFyVHwEqxxJW+xZUORBQI7p6MfDhy6Q0LcG+H9P6t2M1wW4YB80nWcnPcQx5wSZ0ttUe+qMVBhFP3hoA05sNASqnkKvg4AnYv56A2ymElxyOgl+hgPt5JnDfj9FMpLqM9hyB4PHkSZrQ+VYfAoOIL28N0HxmlRsBKg7CPX2nVRlVTYPE3j4LBb9KSvBi4LaM1kx05SQ1YxJTf/hCqxOBQSaQtwYInWdlEKBytlXRytAU1QjQCC05DPiWaxVwNdj6fzpQE/ENY7DlWYjxsU8m1iThpVZD+BIrg8Bgk5cGCF9ktWVwvo/SxwYQoNHx9Cko+PVSmrH/33aAZlr/x0SL7w+dZSWm/vCfre7w5fi69wVXWA35Z4ClVhcCKiiWfEN/stpCS1AIFdidV6Pof5USmAX8jgM00fH4VHr8863ENfqWq622liutsA+x550B8E35sn3TmDVcCNCI3DIHEq03SxH6/11Fmuh+bxw1NmYk6k0bLddY/Qhoof1vJaB13zTy0ADCZ+uoQOln/WpZI/bOeZCI3Cql4Tjga4oywm4+EFquMpNjX0qvxFuvt1QjoBV2+4GQzf4i+WWA1v+12Fr/im+MjqLybfmL1Yh9IajB1dyIot8pgQ+MUdzoSSJyRzktLoP9O3E6tvUmixHfC4OAFtofK03ebqZ1/zTyzAC3mB0IqOAj9LNOBGhEbjsCBXdJaT4b+N1FGYm+OhlUYlOnYoXXmeF9SOj5+mA0wFjI5hiR/DJA5A6zCwEVFEOtlmqLp+U6FIRC52sOFP1eCXyjDfjaIlVYHPapxKV+fEvkdnM1AlrpeNqEr2dKkmyOE8kzA9yDBrgH3xgdxfw3dgt+tW6j27cURb9/L62Y/uuLMtLuLiXHvBFT+w3k7+2JuMzGyF1mBgGtxL81pe48yuY4kfwyQNv9lS4EVFAa4GZMhSpwgdsh0fbgXsJLMN0WqdK9YSw95k1maupHg/oyGFhC5yrhjqNDUmRzrEieGeCRChcCKkimgCO3me0I0Gi7ZzqKvlwCH8Sxf8MBqjAPmsgxbzVTq34N5pXAPILm3C29CSWb40XyywDtj5lcCKggecORO81OBGh0PH8siv6oBL5htCrdnx1Mi8dgDUKs+tserrC1CR8SlQXxr2dBommOhGxjIPllgI4nTS4EVLDLUq5qzRB9/QwU/fG9tF6PIh+kCvOoiRzvbjNx/b39UZOBWV7hR0Ar0bdnoODHKMgmhkDb8gpbXhmg8zmTCwEVJAZoW4Zpdxm2BApdH1+Iwj+xl9A5ig97kHzww6aptFiBtvsqiYUfZiV3hqwlofOlKuU9CCLZxBHIu8WgzhXlzs4Xy4FOmWTaFVOgSy1Fdq29CBLM0yn45uNR6GlUOl4qJ8d6sNJJOslCRup4AjOTRqIvH4ojDOG+g0VEsoklkHcGiK4qtSOggiQNYxp0qaVIdgeOANqfS8E3YdHVWE6E21VOS7PEdfeOZ0wGHMMzwjheC50vmIH/TRDaQUVrLJH8uyAk9kqpMfZqKajgkqVf1aKR/fkOFP6FFHxjFZWuD8zkOG4TsfV3Pm/yIqCF6Eqs+HcKN52cS4WvPwu0xkvynMmbl9cDxFYbGeETuChIroPDNOhSS5HsThcKv7IPYQawaSaVzhcrFce3P2Eitn7sihzYXYEWoqsqMbucifXHf6vCbT8dtMYUoV4Uiq/POGwN0PVWsQ8BCpK0h2nQpZYm2V13o/ir+mi7XzHs6ofbcQQthqL1R18qNUQ9pUzUUwaZiL2C4v9yDvkqZBnsDgdoiZkGdUIKX59n2Bqge81UFwIUArI07FJLk9wv90Gi45U+hGsAZLd/99OzbibpeOLdN9GXS70IZCL2jwrgas4HPny5JuL+RaAlboq/lxLnJLAbNeB2Zvga4IMptu5/TQEaslTnQoAG9+sy6O18LUkichOKfSKR2BtW0vGKhafYa6X2DDVKiviWM5QXoKoQ/+oE0BoboV4Qits8wvZhfVFoz8cHBxCgYN+bjsvsCNBgv78WxV/dR+Q2LLYWK+AbFpGP95QpJlli/zT6EchE/MezgG+5Lit61h8NWmKLEO8JwBrJJm73DW8DfDrBE/9sAlCoTkvHtpiQbinEv/0ziv9mH8nrAAg3g+44WXEcxlW0sK43S+xdb5RAJno2LURBb8ya7k+OAC3xRYgjE3zcL253DWsDxNdPsCFAwSNLy0AjvuliFP/tJIm2ZcT7AeObFpCOVaT/rrenebvexkJUhZ7185TXHmokU2wJbxUrZiW7vNPcafs4h/2tYfGNY/3sxrFAICBLe37asLF77ULojb6bJNH2MPa1SxV0fzqbdKwk/WPxaeh+F4tQFXo+sqChsM6I3J41fON1kCl+GorxP74+h2wf27A3APv1GCcCRL4ZY0xLzR4ESHS/a4He2PtJEh3PYqq9SkH3+xb5cYrqHwtTJwJq8HXXKC890wj3ixMyxU/x/hRJ+u/+12QbPs6k75M3t4ez340KIKBg8yhnWuqr7npnGtDobX8LDfBv7AZexVR7gwLFMd5pihbW8+Ekb8+Hk4EG++MZisvOsoH1nwxq8dNBwVPpv+ejSUZ8bYxsH1/+GMC/fzUCBLxp6c/Y/R6mPQr87gfRAB9hN/AWnuxbJPCN15COUcyw4ciDoY1K4l9Mx1gPDAghhsqoJ51U/dPzyUQD/u8n7OPKq88IYn8aGUBAwdaRhrQ0GECABPvDJWiAT5LIUy8fuIJ0jGTJGUckNgRo8I3Y77c9kjst94FafBnJ2gRHQkb820/Zx55fBtg20sluR8GVONNSoRsBEvEv5kBvly9JghEuDHkgBV97NekYyQxbfN2EagRIcD8sxDjuAcH/egnQ4svwpUZI6yYwlH2YvPyYOPbn/Xzszv1Ahi8tHdp61k4EGom2N6G3ez0Wgqukl4fVViv2lT93/PPxbgRIJEL3Si84yQHup4VAiy9hwwQ7/nYgDH2f8Z78NMAvI4wIKKgZkWqtmBb9cR+2AgL8b/+HBvgC64A1mAWeSsHvvka+r2KNHYedPtJwlNu2UHKxSa6wX00BynA3HR/75Vi3hv0ceftRsexvI1wIyEgVbNhCnAiQYL87Cg3wJXYD63FUsCIFX3OpfF+lAb4a40dADt8srDQ+PyD4huuAFDtHmLz/tHB29wgfW4vC74VBUsVg/ItxDLtxHJDobV+DJvgah4P/RF5JkmhySfbB4xVDQPbb0aDAX7r3OoMBwG2fD8T4ufDNaHf+G6AWu4I+0dNNkCoG2U0HuRAgwQeuhd6e73A08DF2BW8mSTQvk++nGAKym5PzDhK4msUo4N8HRtuzQIo9AIwF8YURbO1IO1tXBGkE0mYPDdgSGAQUbJ6CBvi+Lwv0zw6GHpbv5yLMRSjmIRKhu1LLzLnC7z4fKHMcueArqK+MYetGVbN1B8JeRjvTZg+dtFaSCD6AJvhBHBauxW7hNfk+SgP8iCaT0dv5+oBht44DUuyc+KHIXnBfGsXWjfOw9eNBhGHrJxrSWq2P1FK4rSbojf+EJtgMe7o3JpHtozTA1uSkUwpupwUFfGtAJILXgTzuAPAV7PcGsvVTvWz9NBBJicduKbLRWksi/BDsiW+DPYIJsCYQviEsbbvSALIJKO7XWakVxlzhdhYDZXIrF+wFbIByA1tf4efqK6EPizGt5VaTWgy3sxz2sDuRHcg24OvOTd/uIUxC+RHoh2+6COuHD3KGb74S0uMNEG/Bf3Us1zDdwDXM8HMNNuAaZvpkrddHajWJ8F0o/i+wh/sV/747fZtyHmAXDj134WhDhA86UcgPcwPTP1tzEKTHSyE8TttGhkGMBW+APhPMRhPMQRPMQRPMTV0yxu7Yz4CtJKBoObvGYzewBfbwtVgMfpq+TWmAmhEeBPrhmy9FMdfmBB88F9Jj9cPVzYbejteACxQTt1OoLvjvDpaYoHGBgWs81ss1HsdwjScY01qwTWwtkhbEN52PGaAWcCiAJ74i9XimGUjhKqLernVZIyxEyWcyudpiSERuS24XLgwlzHTS8Bb8V8fSjXCah2tc7Je1Yhv7K544Gb3RN2BPohX40NK9j/8mTavs7hF2BPrhWy7vW1fIhq4PsT4pTsXg6kuAb70h+Xj/drZ2LKQ/jwoBNjDCoBtA5QdTrZMPLvHIWrITTxykw9WVJ4vB3u616Y87ZLOPhvSZR771Ctx/U1bw4QuArRuLRjsDM8FyxXau+XiQzW7SEGZBC/ebQ7MzwUU2vvlig6w1O+UnlQ+djlmgDWuHyv7HXIQpaH///lzTHOjt+TY7Ymuo2xLM3VrFF3Boff8FbwCV9QSHfD0h0fEUJNof7v/fT5h+drN1OEpAuKbD+qaUB4FEdHXfRJYYW5Xa/ZzZvE/dAOomsPWZYD9IUj8B++E1KO7hID4mzRx1BzjYulHQT2/8xwGTiOGQsH4SpMelc4Az2/eoGyDjVHKRka3b34+AANdoRhO8B+L/TuX+BgYBgd7oK32ziTnSG3unb/ZSjKcCPudoWy7vTzeAtkUlA1t3oLd/UYkLzsE++Xbhb5/a2kOCuVecTcyeROcKYBtKIW0dg0zdODTnWFuu7003QFZGOKhaqNKTlXrr5TjUu0wQwCaddp5sZ+ungAAXWgR7uJrsiG8BPlIN/THUmezG7sEwkPekGyDrdYUJNrb+4ACCBrgAh27nKdcF6ktxu9B6S7E1b0Vhd2si0fEc1hdzof9YFTB+iX0w3o9ugJxMMNXA1hdj6ysBtvFQFMQoEYOrNzu5eouw6ISjhsdhD9+gSm/nSuCbFkD/MXTMDFdf4RrM96IbYEBGKLejIChKpZ+w8MQgwAdPRJGbFfT2bIREmwuLyvkg7JcBjHWYS4g72O9BN8BAp5QbDkGxp3tRII9s4QkFOxIEkhM8XZ9hil/R9w1kjcdC/zZ1Zvu4hiOc+/L16wYYNCPMcqBg7r3/z0Nj/BfDNR4NWdEwH800rxox/h6vWzfAoJpgrkFg74LT8U6ucSHQOT7ANR4nrEy6uEa7/T/xmvelAf4f+7KKGoJmt80AAAAASUVORK5CYII=;" parent="up1Xrg0N40dvPqba2eU4-125" vertex="1">
          <mxGeometry y="17.875" width="26.125" height="26.125" as="geometry" />
        </mxCell>
        <mxCell id="up1Xrg0N40dvPqba2eU4-128" value="" style="endArrow=classic;startArrow=classic;html=1;rounded=0;curved=1;strokeColor=#08000F;strokeWidth=4;" parent="1" edge="1">
          <mxGeometry width="50" height="50" relative="1" as="geometry">
            <mxPoint x="410" y="270" as="sourcePoint" />
            <mxPoint x="540" y="270" as="targetPoint" />
          </mxGeometry>
        </mxCell>
        <mxCell id="up1Xrg0N40dvPqba2eU4-131" style="vsdxID=200;edgeStyle=orthogonalEdgeStyle;startArrow=none;endArrow=block;startSize=9;endSize=9;strokeColor=#08000F;spacingTop=0;spacingBottom=0;spacingLeft=0;spacingRight=0;verticalAlign=middle;html=1;labelBackgroundColor=#ffffff;rounded=0;curved=1;entryX=0.874;entryY=-0.025;entryDx=0;entryDy=0;entryPerimeter=0;strokeWidth=4;startFill=0;" parent="1" target="up1Xrg0N40dvPqba2eU4-7" edge="1">
          <mxGeometry relative="1" as="geometry">
            <Array as="points">
              <mxPoint x="868" y="30" />
              <mxPoint x="376" y="150" />
            </Array>
            <mxPoint x="870" y="207" as="sourcePoint" />
            <mxPoint x="397.981" y="120" as="targetPoint" />
          </mxGeometry>
        </mxCell>
        <mxCell id="up1Xrg0N40dvPqba2eU4-133" value="" style="endArrow=none;startArrow=classic;html=1;rounded=0;curved=1;endFill=0;strokeColor=#000000;strokeWidth=4;" parent="1" edge="1">
          <mxGeometry width="50" height="50" relative="1" as="geometry">
            <mxPoint x="630" y="210" as="sourcePoint" />
            <mxPoint x="630" y="160" as="targetPoint" />
          </mxGeometry>
        </mxCell>
        <mxCell id="up1Xrg0N40dvPqba2eU4-134" value="" style="endArrow=none;startArrow=classic;html=1;rounded=0;curved=1;endFill=0;entryX=0.527;entryY=1.025;entryDx=0;entryDy=0;entryPerimeter=0;strokeWidth=3;strokeColor=#08000F;" parent="1" target="up1Xrg0N40dvPqba2eU4-11" edge="1">
          <mxGeometry width="50" height="50" relative="1" as="geometry">
            <mxPoint x="410" y="240" as="sourcePoint" />
            <mxPoint x="640" y="170" as="targetPoint" />
          </mxGeometry>
        </mxCell>
        <mxCell id="up1Xrg0N40dvPqba2eU4-136" value="" style="endArrow=none;startArrow=classic;html=1;rounded=0;curved=1;endFill=0;strokeWidth=4;strokeColor=#08000F;" parent="1" edge="1">
          <mxGeometry width="50" height="50" relative="1" as="geometry">
            <mxPoint x="863" y="331" as="sourcePoint" />
            <mxPoint x="700" y="160" as="targetPoint" />
          </mxGeometry>
        </mxCell>
        <mxCell id="up1Xrg0N40dvPqba2eU4-138" value="" style="endArrow=classic;startArrow=classic;html=1;rounded=0;curved=1;exitX=1;exitY=0.769;exitDx=0;exitDy=0;exitPerimeter=0;strokeColor=#08000F;strokeWidth=4;" parent="1" source="up1Xrg0N40dvPqba2eU4-7" edge="1">
          <mxGeometry width="50" height="50" relative="1" as="geometry">
            <mxPoint x="715.0799999999999" y="323.9950000000001" as="sourcePoint" />
            <mxPoint x="863" y="397.24" as="targetPoint" />
          </mxGeometry>
        </mxCell>
        <mxCell id="up1Xrg0N40dvPqba2eU4-139" value="" style="endArrow=classic;startArrow=classic;html=1;rounded=0;curved=1;endFill=1;startFill=1;entryX=0.97;entryY=0.89;entryDx=0;entryDy=0;entryPerimeter=0;strokeColor=#0000FF;strokeWidth=3;dashed=1;dashPattern=1 1;" parent="1" target="up1Xrg0N40dvPqba2eU4-11" edge="1">
          <mxGeometry width="50" height="50" relative="1" as="geometry">
            <mxPoint x="863" y="231" as="sourcePoint" />
            <mxPoint x="700" y="60" as="targetPoint" />
          </mxGeometry>
        </mxCell>
        <mxCell id="up1Xrg0N40dvPqba2eU4-141" value="" style="endArrow=classic;startArrow=classic;html=1;rounded=0;curved=1;exitX=1;exitY=0.769;exitDx=0;exitDy=0;exitPerimeter=0;strokeColor=#08000F;strokeWidth=4;" parent="1" edge="1">
          <mxGeometry width="50" height="50" relative="1" as="geometry">
            <mxPoint x="558" y="474.99899999999997" as="sourcePoint" />
            <mxPoint x="698" y="475" as="targetPoint" />
          </mxGeometry>
        </mxCell>
        <mxCell id="up1Xrg0N40dvPqba2eU4-142" value="FHIR Server" style="text;html=1;align=center;verticalAlign=middle;resizable=0;points=[];autosize=1;strokeColor=none;fillColor=none;" parent="1" vertex="1">
          <mxGeometry x="708" y="465" width="80" height="20" as="geometry" />
        </mxCell>
        <mxCell id="up1Xrg0N40dvPqba2eU4-143" value="FHIR Server" style="text;html=1;align=center;verticalAlign=middle;resizable=0;points=[];autosize=1;strokeColor=none;fillColor=none;" parent="1" vertex="1">
          <mxGeometry x="478" y="465" width="80" height="20" as="geometry" />
        </mxCell>
        <mxCell id="up1Xrg0N40dvPqba2eU4-147" value="" style="endArrow=classic;startArrow=classic;html=1;rounded=0;curved=1;exitX=1;exitY=0.769;exitDx=0;exitDy=0;exitPerimeter=0;strokeColor=#0000FF;strokeWidth=4;startFill=1;dashed=1;dashPattern=1 1;" parent="1" edge="1">
          <mxGeometry width="50" height="50" relative="1" as="geometry">
            <mxPoint x="553" y="524.999" as="sourcePoint" />
            <mxPoint x="693" y="525" as="targetPoint" />
          </mxGeometry>
        </mxCell>
        <mxCell id="up1Xrg0N40dvPqba2eU4-148" value="In-person, Phone, Portal, etc" style="text;html=1;align=center;verticalAlign=middle;resizable=0;points=[];autosize=1;strokeColor=none;fillColor=none;" parent="1" vertex="1">
          <mxGeometry x="693" y="515" width="170" height="20" as="geometry" />
        </mxCell>
        <mxCell id="up1Xrg0N40dvPqba2eU4-149" value="Patient" style="text;html=1;align=center;verticalAlign=middle;resizable=0;points=[];autosize=1;strokeColor=none;fillColor=none;" parent="1" vertex="1">
          <mxGeometry x="488" y="515" width="50" height="20" as="geometry" />
        </mxCell>
        <mxCell id="up1Xrg0N40dvPqba2eU4-150" value="" style="endArrow=classic;startArrow=none;html=1;rounded=0;curved=1;exitX=1;exitY=0.769;exitDx=0;exitDy=0;exitPerimeter=0;strokeColor=#08000F;strokeWidth=4;startFill=0;" parent="1" edge="1">
          <mxGeometry width="50" height="50" relative="1" as="geometry">
            <mxPoint x="558" y="446.999" as="sourcePoint" />
            <mxPoint x="698" y="447" as="targetPoint" />
          </mxGeometry>
        </mxCell>
        <mxCell id="up1Xrg0N40dvPqba2eU4-151" value="FHIR Server" style="text;html=1;align=center;verticalAlign=middle;resizable=0;points=[];autosize=1;strokeColor=none;fillColor=none;" parent="1" vertex="1">
          <mxGeometry x="708" y="437" width="80" height="20" as="geometry" />
        </mxCell>
        <mxCell id="up1Xrg0N40dvPqba2eU4-152" value="Patient App or &lt;br&gt;FHIR-enabled application&amp;nbsp;" style="text;html=1;align=center;verticalAlign=middle;resizable=0;points=[];autosize=1;strokeColor=none;fillColor=none;" parent="1" vertex="1">
          <mxGeometry x="408" y="430" width="150" height="30" as="geometry" />
        </mxCell>
        <mxCell id="up1Xrg0N40dvPqba2eU4-154" value="" style="group" parent="1" vertex="1" connectable="0">
          <mxGeometry x="798" y="445" width="30" height="44" as="geometry" />
        </mxCell>
        <mxCell id="up1Xrg0N40dvPqba2eU4-155" value="" style="sketch=0;aspect=fixed;pointerEvents=1;shadow=0;dashed=0;html=1;strokeColor=none;labelPosition=center;verticalLabelPosition=bottom;verticalAlign=top;align=center;fillColor=#3399FF;shape=mxgraph.mscae.enterprise.database_server;fontSize=12;fontColor=#990000;" parent="up1Xrg0N40dvPqba2eU4-154" vertex="1">
          <mxGeometry width="26.125" height="34.375" as="geometry" />
        </mxCell>
        <mxCell id="up1Xrg0N40dvPqba2eU4-156" value="" style="shape=image;imageAspect=0;aspect=fixed;verticalLabelPosition=bottom;verticalAlign=top;fontSize=13;fontColor=#000066;strokeColor=#000000;strokeWidth=3;fillColor=default;image=data:image/png,iVBORw0KGgoAAAANSUhEUgAAAIAAAACACAYAAADDPmHLAAAACXBIWXMAAAsTAAALEwEAmpwYAAAFFmlUWHRYTUw6Y29tLmFkb2JlLnhtcAAAAAAAPD94cGFja2V0IGJlZ2luPSLvu78iIGlkPSJXNU0wTXBDZWhpSHpyZVN6TlRjemtjOWQiPz4gPHg6eG1wbWV0YSB4bWxuczp4PSJhZG9iZTpuczptZXRhLyIgeDp4bXB0az0iQWRvYmUgWE1QIENvcmUgNi4wLWMwMDIgNzkuMTY0MzUyLCAyMDIwLzAxLzMwLTE1OjUwOjM4ICAgICAgICAiPiA8cmRmOlJERiB4bWxuczpyZGY9Imh0dHA6Ly93d3cudzMub3JnLzE5OTkvMDIvMjItcmRmLXN5bnRheC1ucyMiPiA8cmRmOkRlc2NyaXB0aW9uIHJkZjphYm91dD0iIiB4bWxuczp4bXA9Imh0dHA6Ly9ucy5hZG9iZS5jb20veGFwLzEuMC8iIHhtbG5zOmRjPSJodHRwOi8vcHVybC5vcmcvZGMvZWxlbWVudHMvMS4xLyIgeG1sbnM6cGhvdG9zaG9wPSJodHRwOi8vbnMuYWRvYmUuY29tL3Bob3Rvc2hvcC8xLjAvIiB4bWxuczp4bXBNTT0iaHR0cDovL25zLmFkb2JlLmNvbS94YXAvMS4wL21tLyIgeG1sbnM6c3RFdnQ9Imh0dHA6Ly9ucy5hZG9iZS5jb20veGFwLzEuMC9zVHlwZS9SZXNvdXJjZUV2ZW50IyIgeG1wOkNyZWF0b3JUb29sPSJBZG9iZSBQaG90b3Nob3AgMjEuMSAoV2luZG93cykiIHhtcDpDcmVhdGVEYXRlPSIyMDIxLTAyLTA4VDEzOjIwOjE0LTA1OjAwIiB4bXA6TW9kaWZ5RGF0ZT0iMjAyMS0wMi0wOFQxMzoyNToyMi0wNTowMCIgeG1wOk1ldGFkYXRhRGF0ZT0iMjAyMS0wMi0wOFQxMzoyNToyMi0wNTowMCIgZGM6Zm9ybWF0PSJpbWFnZS9wbmciIHBob3Rvc2hvcDpDb2xvck1vZGU9IjMiIHBob3Rvc2hvcDpJQ0NQcm9maWxlPSJzUkdCIElFQzYxOTY2LTIuMSIgeG1wTU06SW5zdGFuY2VJRD0ieG1wLmlpZDpmZmQ3MWYyOS1kNTg0LTQ3NGUtOTE5Zi0zMmM2N2ZiMDExMzIiIHhtcE1NOkRvY3VtZW50SUQ9InhtcC5kaWQ6ZmZkNzFmMjktZDU4NC00NzRlLTkxOWYtMzJjNjdmYjAxMTMyIiB4bXBNTTpPcmlnaW5hbERvY3VtZW50SUQ9InhtcC5kaWQ6ZmZkNzFmMjktZDU4NC00NzRlLTkxOWYtMzJjNjdmYjAxMTMyIj4gPHhtcE1NOkhpc3Rvcnk+IDxyZGY6U2VxPiA8cmRmOmxpIHN0RXZ0OmFjdGlvbj0iY3JlYXRlZCIgc3RFdnQ6aW5zdGFuY2VJRD0ieG1wLmlpZDpmZmQ3MWYyOS1kNTg0LTQ3NGUtOTE5Zi0zMmM2N2ZiMDExMzIiIHN0RXZ0OndoZW49IjIwMjEtMDItMDhUMTM6MjA6MTQtMDU6MDAiIHN0RXZ0OnNvZnR3YXJlQWdlbnQ9IkFkb2JlIFBob3Rvc2hvcCAyMS4xIChXaW5kb3dzKSIvPiA8L3JkZjpTZXE+IDwveG1wTU06SGlzdG9yeT4gPC9yZGY6RGVzY3JpcHRpb24+IDwvcmRmOlJERj4gPC94OnhtcG1ldGE+IDw/eHBhY2tldCBlbmQ9InIiPz4nnaAOAAAXvUlEQVR42u2deXzbVLbH57/SQKlLN7olTuLEdqDUpRS6PKiBshaKYdg6PMBQGAZ4QIB58NjNUtZ+MAw7lJoOy0zZDAVmWApuC6VsxQW60BJwszp24iiJncSSnJ535CiuJd0ry07KJLby+Xw/SSzp2Nbvd889917J/gMA/GFfMNx/wqYqw1B5LftKo6ROugGoBnAhRt0AhWsAJ+LTDVC4BrAjIPxW2y/+XGm1boD8NoAvgwHsiE03QP4ZwCgaQDULiAZw6AbIMwOIJoBMWQDFNyIu3QD5bYBMWcCtGyD/DaCWBXy6AfLfAAI23QCFbQCPboDCNgCQpoh1AxSWAaoJw0DdAAVkgIBugMKYCLJRDCApBlF8pz4MzO+pYFArBoVJIH0iKH9XA2kGYNIM4BWygG6APDNAyFTlQkAFh2iAgFAH6AbIPwP4MhjAg8IbEBB+6wbIPwMwGQzAxJ8vdQgZYF+/Ft0Av7/4xgziJ+lylfvjL5R6M8VrNVrsiBdhkADiQYy6AYauAaq1GKDn0TJgX1S/IgiFdorCu0Qj2MTHBCPYdAMMTQN4M4nfOt8CrMcI7EqjTUV8gyi+ILoP8YsIfzuEv3UDDD3xDVpaf/QGE/RgARhSuXy8P/WLf/vE/40IiI8FtHQFugGGWPoPH2oFLAAheqNJ+N+ewQCuNAMIgoPQBaSbQjfAUDJAWVUAATWYP1YC+4oR2haZhf9dKgaw9af5tAzgF9N/f/dg0A0wdMR30kQPmvb+HX862ff3/+/LUAT6xaLPLRrCJo4IhJGAR68BhtBPczm2/nIUlUDQ2vc7stAM3OoSiN5Unvwfj2EyGMAomsAjtnynmA18Wlq/boDfT3xnc5+gRIIz+353P1QK3BvFEDnBnL49o5Ci8C4Rhz4RNLTENwgtmWoACxrgSGz9J5qBf2saxFeUyPfR1wKGuQHcaq2/eToaYD5W/iuLgXtnGrRfYpLvU60bYJgaQGi9quILYOtvv9kE/Jqp2P9PhRAOA2X7uHQDDEMDZEz9IqFTrcB5pwD/wWSI3Wkk7ePVDTCEDUCbrBGEy9j6hcLv2WJIfDgpSfhIC2kf/ZrAoWoAFN8ZItzQIaRtLeJHTquAxMcHJ+m6u4S2n26AoWiAUFlVtTC5QxDfoUX80HRM/a9Pgt5PJyRpIbf+jHMBugH+M+J7EDdBfJuWfj+Z+t1TIeGbkCT2QInqvroBhogBxMJO6Ns9lG1+LeK3X1wGiQ3jk/BrJ0LLBRbNBgiWVxkFdAP8/uIbRYGJ6+woij8ozOplIHyUGfhPsOVvHJ8k9kwJhM9XP0b2PIbgINYFugG0id+f2v2kqVkUxKNF/Gbs9+OrJ0Liq7FJOOz7W6+1YgawajaA+HzC49W6AX7feXzBADaCGG4t4gvElk+GxDdjUrQ/WAatN1ggfHZOBmCC5QP/vEHdAOriu9Tm5FEAp1bxmaVGSGw2pOh+cxJEbrIkCZ+magCf7Dltads8ugH2nfieNPGdBPEdWsVvWWgCfsuBKbhvDNB2VyVEbrUkCS/OygB22XajboDBr/TTq3k3QXybmIIz9/uHWYDbNAr4H/dP0YmFX+QOS4qwQ9UAXjUDNA1wqlg3gLLY86vNwolVuGbx4+8bgN9WlKL7g/HQ5rJICNlVDSBZDELB7U19wqdj1w0wwB9Cq/bLiyxRfL/mou9JHOr9PDIF9/0oYB6qhLb7LBJC81UN4JQZwEUwgEc3wMDElxdzghFIFb9Xq/gdd2HFXzNSQsczpcA8YFbQPEM1lqR1N5WhAcpQdDmludUCBW8AYTxNOOmOgQz3mCuLgf+tSELMOxmYhyuJZDMERKF9CBDw6AbIXnxPpj5XTLuah3vhk7DiryuSEN+MY/5HK4lEbjSrxfMTDBCgGIBBDLoBtAlvoIjvI4hvQxhCv6sgNL8SuJ+x4m/YPwUXGIVVfzl0PF5BJPIXs1pMt0x8A0X8fqp1A2gTn1TIKWbWUAAD4tcifnCGFXrWTUDRx0iIrTZC51OVVMKnW9TiOmQGcGQwQEA3QG7iK4ot8YR7iAUXge73pwLfOFFCz2fF0PlspSrNNpW4ckOWVrkzGEDAphsge/FdBPEdGk52kuiKMhR8qgT2p2KIvmBSpWN5hVpcH+E1+TW8Ho9uAGU/rpbKSSfaIBZVGcVvu9qCgpdJqS2D2MvlEF1pUiVyhVlzf66h/08Vg7oBtIsvFHdGggG8Wk52+MQqFNyioHuNCWKryjMSmmtViy9P/06tGUnIXroBtKVNZ66pPzi9Cridh6HgUuIbLdD1anlGok+a1OIr5vcby6q8CGjEoxugv4jL4iRnk/p71h8OfNMsCdz2GdD1jzJNtF1WqbkFo6CGLMQXYAreABlSJnHSJINhUnQ+djgkmo6SwNcdiam/ArpeL9NE8+FWzUM5FNSZpQEEbAVrAGEolO2ECT5m1yJ+5GIbCj5fQdxnhe63SzXRfotq+ncSDODLwQCugjSAmMb92QyvxJPsz3RSm+dNB37XMZAILpDAbZ8NPe+WaCZ0tIX2HKTWb8xBfAF/oRrAne1EidYUG99gR8EXSqldAPF/GyH+/jRNRN2las9Bav2uHA0AjRquGcwrAwj9XoaT4iYcIxRYgUwns2PZXEg0n6yA/dyMBpiqmfBJZs2tP2loS1UAgRyxF5oB1NI4I4idSwsLnTQTxT5dAb/1SGA/nqyZjruNWbX+JhsWssJUce64CsYAGtK4i9L6mYyp//NTUfAzpTQuBnbdNGA/naSZ5tnUvp9YlzTNqfI1HYVC5o6vIAygIY3n3PqZW45Gwc9RwG0+FA0wSTPM9WVZDdmaFuCo5BgUcWAwhWGAShSyAk8kDRM5FTaZqxgEaARnYdVfcx4K/icJfOAU4D4/WDM970yG4Ewr8TnwtRO/Eia4sMqLwIA5Uf1SsbwwQNMMLJRm4AklwzQdQpj00dC/xl7G1B+6UAH3TTFwX07QTOvFJvJzCK97+iHKW80WWW3BU1C8weBU9XWBYW+Apnko5Fw8mXTclP41gACN0OKZwIecSnbOA+7rcZqJvTCF+hzYRxOr9OAZVT4EBglXXhsgeFyVHwEqxxJW+xZUORBQI7p6MfDhy6Q0LcG+H9P6t2M1wW4YB80nWcnPcQx5wSZ0ttUe+qMVBhFP3hoA05sNASqnkKvg4AnYv56A2ymElxyOgl+hgPt5JnDfj9FMpLqM9hyB4PHkSZrQ+VYfAoOIL28N0HxmlRsBKg7CPX2nVRlVTYPE3j4LBb9KSvBi4LaM1kx05SQ1YxJTf/hCqxOBQSaQtwYInWdlEKBytlXRytAU1QjQCC05DPiWaxVwNdj6fzpQE/ENY7DlWYjxsU8m1iThpVZD+BIrg8Bgk5cGCF9ktWVwvo/SxwYQoNHx9Cko+PVSmrH/33aAZlr/x0SL7w+dZSWm/vCfre7w5fi69wVXWA35Z4ClVhcCKiiWfEN/stpCS1AIFdidV6Pof5USmAX8jgM00fH4VHr8863ENfqWq622liutsA+x550B8E35sn3TmDVcCNCI3DIHEq03SxH6/11Fmuh+bxw1NmYk6k0bLddY/Qhoof1vJaB13zTy0ADCZ+uoQOln/WpZI/bOeZCI3Cql4Tjga4oywm4+EFquMpNjX0qvxFuvt1QjoBV2+4GQzf4i+WWA1v+12Fr/im+MjqLybfmL1Yh9IajB1dyIot8pgQ+MUdzoSSJyRzktLoP9O3E6tvUmixHfC4OAFtofK03ebqZ1/zTyzAC3mB0IqOAj9LNOBGhEbjsCBXdJaT4b+N1FGYm+OhlUYlOnYoXXmeF9SOj5+mA0wFjI5hiR/DJA5A6zCwEVFEOtlmqLp+U6FIRC52sOFP1eCXyjDfjaIlVYHPapxKV+fEvkdnM1AlrpeNqEr2dKkmyOE8kzA9yDBrgH3xgdxfw3dgt+tW6j27cURb9/L62Y/uuLMtLuLiXHvBFT+w3k7+2JuMzGyF1mBgGtxL81pe48yuY4kfwyQNv9lS4EVFAa4GZMhSpwgdsh0fbgXsJLMN0WqdK9YSw95k1maupHg/oyGFhC5yrhjqNDUmRzrEieGeCRChcCKkimgCO3me0I0Gi7ZzqKvlwCH8Sxf8MBqjAPmsgxbzVTq34N5pXAPILm3C29CSWb40XyywDtj5lcCKggecORO81OBGh0PH8siv6oBL5htCrdnx1Mi8dgDUKs+tserrC1CR8SlQXxr2dBommOhGxjIPllgI4nTS4EVLDLUq5qzRB9/QwU/fG9tF6PIh+kCvOoiRzvbjNx/b39UZOBWV7hR0Ar0bdnoODHKMgmhkDb8gpbXhmg8zmTCwEVJAZoW4Zpdxm2BApdH1+Iwj+xl9A5ig97kHzww6aptFiBtvsqiYUfZiV3hqwlofOlKuU9CCLZxBHIu8WgzhXlzs4Xy4FOmWTaFVOgSy1Fdq29CBLM0yn45uNR6GlUOl4qJ8d6sNJJOslCRup4AjOTRqIvH4ojDOG+g0VEsoklkHcGiK4qtSOggiQNYxp0qaVIdgeOANqfS8E3YdHVWE6E21VOS7PEdfeOZ0wGHMMzwjheC50vmIH/TRDaQUVrLJH8uyAk9kqpMfZqKajgkqVf1aKR/fkOFP6FFHxjFZWuD8zkOG4TsfV3Pm/yIqCF6Eqs+HcKN52cS4WvPwu0xkvynMmbl9cDxFYbGeETuChIroPDNOhSS5HsThcKv7IPYQawaSaVzhcrFce3P2Eitn7sihzYXYEWoqsqMbucifXHf6vCbT8dtMYUoV4Uiq/POGwN0PVWsQ8BCpK0h2nQpZYm2V13o/ir+mi7XzHs6ofbcQQthqL1R18qNUQ9pUzUUwaZiL2C4v9yDvkqZBnsDgdoiZkGdUIKX59n2Bqge81UFwIUArI07FJLk9wv90Gi45U+hGsAZLd/99OzbibpeOLdN9GXS70IZCL2jwrgas4HPny5JuL+RaAlboq/lxLnJLAbNeB2Zvga4IMptu5/TQEaslTnQoAG9+sy6O18LUkichOKfSKR2BtW0vGKhafYa6X2DDVKiviWM5QXoKoQ/+oE0BoboV4Qits8wvZhfVFoz8cHBxCgYN+bjsvsCNBgv78WxV/dR+Q2LLYWK+AbFpGP95QpJlli/zT6EchE/MezgG+5Lit61h8NWmKLEO8JwBrJJm73DW8DfDrBE/9sAlCoTkvHtpiQbinEv/0ziv9mH8nrAAg3g+44WXEcxlW0sK43S+xdb5RAJno2LURBb8ya7k+OAC3xRYgjE3zcL253DWsDxNdPsCFAwSNLy0AjvuliFP/tJIm2ZcT7AeObFpCOVaT/rrenebvexkJUhZ7185TXHmokU2wJbxUrZiW7vNPcafs4h/2tYfGNY/3sxrFAICBLe37asLF77ULojb6bJNH2MPa1SxV0fzqbdKwk/WPxaeh+F4tQFXo+sqChsM6I3J41fON1kCl+GorxP74+h2wf27A3APv1GCcCRL4ZY0xLzR4ESHS/a4He2PtJEh3PYqq9SkH3+xb5cYrqHwtTJwJq8HXXKC890wj3ixMyxU/x/hRJ+u/+12QbPs6k75M3t4ez340KIKBg8yhnWuqr7npnGtDobX8LDfBv7AZexVR7gwLFMd5pihbW8+Ekb8+Hk4EG++MZisvOsoH1nwxq8dNBwVPpv+ejSUZ8bYxsH1/+GMC/fzUCBLxp6c/Y/R6mPQr87gfRAB9hN/AWnuxbJPCN15COUcyw4ciDoY1K4l9Mx1gPDAghhsqoJ51U/dPzyUQD/u8n7OPKq88IYn8aGUBAwdaRhrQ0GECABPvDJWiAT5LIUy8fuIJ0jGTJGUckNgRo8I3Y77c9kjst94FafBnJ2gRHQkb820/Zx55fBtg20sluR8GVONNSoRsBEvEv5kBvly9JghEuDHkgBV97NekYyQxbfN2EagRIcD8sxDjuAcH/egnQ4svwpUZI6yYwlH2YvPyYOPbn/Xzszv1Ahi8tHdp61k4EGom2N6G3ez0Wgqukl4fVViv2lT93/PPxbgRIJEL3Si84yQHup4VAiy9hwwQ7/nYgDH2f8Z78NMAvI4wIKKgZkWqtmBb9cR+2AgL8b/+HBvgC64A1mAWeSsHvvka+r2KNHYedPtJwlNu2UHKxSa6wX00BynA3HR/75Vi3hv0ceftRsexvI1wIyEgVbNhCnAiQYL87Cg3wJXYD63FUsCIFX3OpfF+lAb4a40dADt8srDQ+PyD4huuAFDtHmLz/tHB29wgfW4vC74VBUsVg/ItxDLtxHJDobV+DJvgah4P/RF5JkmhySfbB4xVDQPbb0aDAX7r3OoMBwG2fD8T4ufDNaHf+G6AWu4I+0dNNkCoG2U0HuRAgwQeuhd6e73A08DF2BW8mSTQvk++nGAKym5PzDhK4msUo4N8HRtuzQIo9AIwF8YURbO1IO1tXBGkE0mYPDdgSGAQUbJ6CBvi+Lwv0zw6GHpbv5yLMRSjmIRKhu1LLzLnC7z4fKHMcueArqK+MYetGVbN1B8JeRjvTZg+dtFaSCD6AJvhBHBauxW7hNfk+SgP8iCaT0dv5+oBht44DUuyc+KHIXnBfGsXWjfOw9eNBhGHrJxrSWq2P1FK4rSbojf+EJtgMe7o3JpHtozTA1uSkUwpupwUFfGtAJILXgTzuAPAV7PcGsvVTvWz9NBBJicduKbLRWksi/BDsiW+DPYIJsCYQviEsbbvSALIJKO7XWakVxlzhdhYDZXIrF+wFbIByA1tf4efqK6EPizGt5VaTWgy3sxz2sDuRHcg24OvOTd/uIUxC+RHoh2+6COuHD3KGb74S0uMNEG/Bf3Us1zDdwDXM8HMNNuAaZvpkrddHajWJ8F0o/i+wh/sV/747fZtyHmAXDj134WhDhA86UcgPcwPTP1tzEKTHSyE8TttGhkGMBW+APhPMRhPMQRPMQRPMTV0yxu7Yz4CtJKBoObvGYzewBfbwtVgMfpq+TWmAmhEeBPrhmy9FMdfmBB88F9Jj9cPVzYbejteACxQTt1OoLvjvDpaYoHGBgWs81ss1HsdwjScY01qwTWwtkhbEN52PGaAWcCiAJ74i9XimGUjhKqLernVZIyxEyWcyudpiSERuS24XLgwlzHTS8Bb8V8fSjXCah2tc7Je1Yhv7K544Gb3RN2BPohX40NK9j/8mTavs7hF2BPrhWy7vW1fIhq4PsT4pTsXg6kuAb70h+Xj/drZ2LKQ/jwoBNjDCoBtA5QdTrZMPLvHIWrITTxykw9WVJ4vB3u616Y87ZLOPhvSZR771Ctx/U1bw4QuArRuLRjsDM8FyxXau+XiQzW7SEGZBC/ebQ7MzwUU2vvlig6w1O+UnlQ+djlmgDWuHyv7HXIQpaH///lzTHOjt+TY7Ymuo2xLM3VrFF3Boff8FbwCV9QSHfD0h0fEUJNof7v/fT5h+drN1OEpAuKbD+qaUB4FEdHXfRJYYW5Xa/ZzZvE/dAOomsPWZYD9IUj8B++E1KO7hID4mzRx1BzjYulHQT2/8xwGTiOGQsH4SpMelc4Az2/eoGyDjVHKRka3b34+AANdoRhO8B+L/TuX+BgYBgd7oK32ziTnSG3unb/ZSjKcCPudoWy7vTzeAtkUlA1t3oLd/UYkLzsE++Xbhb5/a2kOCuVecTcyeROcKYBtKIW0dg0zdODTnWFuu7003QFZGOKhaqNKTlXrr5TjUu0wQwCaddp5sZ+ungAAXWgR7uJrsiG8BPlIN/THUmezG7sEwkPekGyDrdYUJNrb+4ACCBrgAh27nKdcF6ktxu9B6S7E1b0Vhd2si0fEc1hdzof9YFTB+iX0w3o9ugJxMMNXA1hdj6ysBtvFQFMQoEYOrNzu5eouw6ISjhsdhD9+gSm/nSuCbFkD/MXTMDFdf4RrM96IbYEBGKLejIChKpZ+w8MQgwAdPRJGbFfT2bIREmwuLyvkg7JcBjHWYS4g72O9BN8BAp5QbDkGxp3tRII9s4QkFOxIEkhM8XZ9hil/R9w1kjcdC/zZ1Zvu4hiOc+/L16wYYNCPMcqBg7r3/z0Nj/BfDNR4NWdEwH800rxox/h6vWzfAoJpgrkFg74LT8U6ucSHQOT7ANR4nrEy6uEa7/T/xmvelAf4f+7KKGoJmt80AAAAASUVORK5CYII=;" parent="up1Xrg0N40dvPqba2eU4-154" vertex="1">
          <mxGeometry y="17.875" width="26.125" height="26.125" as="geometry" />
        </mxCell>
        <mxCell id="up1Xrg0N40dvPqba2eU4-162" value="" style="group" parent="1" vertex="1" connectable="0">
          <mxGeometry x="328" y="435" width="18" height="40" as="geometry" />
        </mxCell>
        <mxCell id="up1Xrg0N40dvPqba2eU4-163" value="" style="sketch=0;aspect=fixed;pointerEvents=1;shadow=0;dashed=0;html=1;strokeColor=none;labelPosition=center;verticalLabelPosition=bottom;verticalAlign=top;align=center;fillColor=#007FFF;shape=mxgraph.azure.mobile;fontSize=12;fontColor=#990000;" parent="up1Xrg0N40dvPqba2eU4-162" vertex="1">
          <mxGeometry x="0.71" width="16.57894736842105" height="23.684210526315788" as="geometry" />
        </mxCell>
        <mxCell id="up1Xrg0N40dvPqba2eU4-164" value="" style="shape=image;imageAspect=0;aspect=fixed;verticalLabelPosition=bottom;verticalAlign=top;fontSize=13;fontColor=#000066;strokeColor=#000000;strokeWidth=3;fillColor=default;image=data:image/png,iVBORw0KGgoAAAANSUhEUgAAAIAAAACACAYAAADDPmHLAAAACXBIWXMAAAsTAAALEwEAmpwYAAAFFmlUWHRYTUw6Y29tLmFkb2JlLnhtcAAAAAAAPD94cGFja2V0IGJlZ2luPSLvu78iIGlkPSJXNU0wTXBDZWhpSHpyZVN6TlRjemtjOWQiPz4gPHg6eG1wbWV0YSB4bWxuczp4PSJhZG9iZTpuczptZXRhLyIgeDp4bXB0az0iQWRvYmUgWE1QIENvcmUgNi4wLWMwMDIgNzkuMTY0MzUyLCAyMDIwLzAxLzMwLTE1OjUwOjM4ICAgICAgICAiPiA8cmRmOlJERiB4bWxuczpyZGY9Imh0dHA6Ly93d3cudzMub3JnLzE5OTkvMDIvMjItcmRmLXN5bnRheC1ucyMiPiA8cmRmOkRlc2NyaXB0aW9uIHJkZjphYm91dD0iIiB4bWxuczp4bXA9Imh0dHA6Ly9ucy5hZG9iZS5jb20veGFwLzEuMC8iIHhtbG5zOmRjPSJodHRwOi8vcHVybC5vcmcvZGMvZWxlbWVudHMvMS4xLyIgeG1sbnM6cGhvdG9zaG9wPSJodHRwOi8vbnMuYWRvYmUuY29tL3Bob3Rvc2hvcC8xLjAvIiB4bWxuczp4bXBNTT0iaHR0cDovL25zLmFkb2JlLmNvbS94YXAvMS4wL21tLyIgeG1sbnM6c3RFdnQ9Imh0dHA6Ly9ucy5hZG9iZS5jb20veGFwLzEuMC9zVHlwZS9SZXNvdXJjZUV2ZW50IyIgeG1wOkNyZWF0b3JUb29sPSJBZG9iZSBQaG90b3Nob3AgMjEuMSAoV2luZG93cykiIHhtcDpDcmVhdGVEYXRlPSIyMDIxLTAyLTA4VDEzOjIwOjE0LTA1OjAwIiB4bXA6TW9kaWZ5RGF0ZT0iMjAyMS0wMi0wOFQxMzoyNToyMi0wNTowMCIgeG1wOk1ldGFkYXRhRGF0ZT0iMjAyMS0wMi0wOFQxMzoyNToyMi0wNTowMCIgZGM6Zm9ybWF0PSJpbWFnZS9wbmciIHBob3Rvc2hvcDpDb2xvck1vZGU9IjMiIHBob3Rvc2hvcDpJQ0NQcm9maWxlPSJzUkdCIElFQzYxOTY2LTIuMSIgeG1wTU06SW5zdGFuY2VJRD0ieG1wLmlpZDpmZmQ3MWYyOS1kNTg0LTQ3NGUtOTE5Zi0zMmM2N2ZiMDExMzIiIHhtcE1NOkRvY3VtZW50SUQ9InhtcC5kaWQ6ZmZkNzFmMjktZDU4NC00NzRlLTkxOWYtMzJjNjdmYjAxMTMyIiB4bXBNTTpPcmlnaW5hbERvY3VtZW50SUQ9InhtcC5kaWQ6ZmZkNzFmMjktZDU4NC00NzRlLTkxOWYtMzJjNjdmYjAxMTMyIj4gPHhtcE1NOkhpc3Rvcnk+IDxyZGY6U2VxPiA8cmRmOmxpIHN0RXZ0OmFjdGlvbj0iY3JlYXRlZCIgc3RFdnQ6aW5zdGFuY2VJRD0ieG1wLmlpZDpmZmQ3MWYyOS1kNTg0LTQ3NGUtOTE5Zi0zMmM2N2ZiMDExMzIiIHN0RXZ0OndoZW49IjIwMjEtMDItMDhUMTM6MjA6MTQtMDU6MDAiIHN0RXZ0OnNvZnR3YXJlQWdlbnQ9IkFkb2JlIFBob3Rvc2hvcCAyMS4xIChXaW5kb3dzKSIvPiA8L3JkZjpTZXE+IDwveG1wTU06SGlzdG9yeT4gPC9yZGY6RGVzY3JpcHRpb24+IDwvcmRmOlJERj4gPC94OnhtcG1ldGE+IDw/eHBhY2tldCBlbmQ9InIiPz4nnaAOAAAXvUlEQVR42u2deXzbVLbH57/SQKlLN7olTuLEdqDUpRS6PKiBshaKYdg6PMBQGAZ4QIB58NjNUtZ+MAw7lJoOy0zZDAVmWApuC6VsxQW60BJwszp24iiJncSSnJ535CiuJd0ry07KJLby+Xw/SSzp2Nbvd889917J/gMA/GFfMNx/wqYqw1B5LftKo6ROugGoBnAhRt0AhWsAJ+LTDVC4BrAjIPxW2y/+XGm1boD8NoAvgwHsiE03QP4ZwCgaQDULiAZw6AbIMwOIJoBMWQDFNyIu3QD5bYBMWcCtGyD/DaCWBXy6AfLfAAI23QCFbQCPboDCNgCQpoh1AxSWAaoJw0DdAAVkgIBugMKYCLJRDCApBlF8pz4MzO+pYFArBoVJIH0iKH9XA2kGYNIM4BWygG6APDNAyFTlQkAFh2iAgFAH6AbIPwP4MhjAg8IbEBB+6wbIPwMwGQzAxJ8vdQgZYF+/Ft0Av7/4xgziJ+lylfvjL5R6M8VrNVrsiBdhkADiQYy6AYauAaq1GKDn0TJgX1S/IgiFdorCu0Qj2MTHBCPYdAMMTQN4M4nfOt8CrMcI7EqjTUV8gyi+ILoP8YsIfzuEv3UDDD3xDVpaf/QGE/RgARhSuXy8P/WLf/vE/40IiI8FtHQFugGGWPoPH2oFLAAheqNJ+N+ewQCuNAMIgoPQBaSbQjfAUDJAWVUAATWYP1YC+4oR2haZhf9dKgaw9af5tAzgF9N/f/dg0A0wdMR30kQPmvb+HX862ff3/+/LUAT6xaLPLRrCJo4IhJGAR68BhtBPczm2/nIUlUDQ2vc7stAM3OoSiN5Unvwfj2EyGMAomsAjtnynmA18Wlq/boDfT3xnc5+gRIIz+353P1QK3BvFEDnBnL49o5Ci8C4Rhz4RNLTENwgtmWoACxrgSGz9J5qBf2saxFeUyPfR1wKGuQHcaq2/eToaYD5W/iuLgXtnGrRfYpLvU60bYJgaQGi9quILYOtvv9kE/Jqp2P9PhRAOA2X7uHQDDEMDZEz9IqFTrcB5pwD/wWSI3Wkk7ePVDTCEDUCbrBGEy9j6hcLv2WJIfDgpSfhIC2kf/ZrAoWoAFN8ZItzQIaRtLeJHTquAxMcHJ+m6u4S2n26AoWiAUFlVtTC5QxDfoUX80HRM/a9Pgt5PJyRpIbf+jHMBugH+M+J7EDdBfJuWfj+Z+t1TIeGbkCT2QInqvroBhogBxMJO6Ns9lG1+LeK3X1wGiQ3jk/BrJ0LLBRbNBgiWVxkFdAP8/uIbRYGJ6+woij8ozOplIHyUGfhPsOVvHJ8k9kwJhM9XP0b2PIbgINYFugG0id+f2v2kqVkUxKNF/Gbs9+OrJ0Liq7FJOOz7W6+1YgawajaA+HzC49W6AX7feXzBADaCGG4t4gvElk+GxDdjUrQ/WAatN1ggfHZOBmCC5QP/vEHdAOriu9Tm5FEAp1bxmaVGSGw2pOh+cxJEbrIkCZ+magCf7Dltads8ugH2nfieNPGdBPEdWsVvWWgCfsuBKbhvDNB2VyVEbrUkCS/OygB22XajboDBr/TTq3k3QXybmIIz9/uHWYDbNAr4H/dP0YmFX+QOS4qwQ9UAXjUDNA1wqlg3gLLY86vNwolVuGbx4+8bgN9WlKL7g/HQ5rJICNlVDSBZDELB7U19wqdj1w0wwB9Cq/bLiyxRfL/mou9JHOr9PDIF9/0oYB6qhLb7LBJC81UN4JQZwEUwgEc3wMDElxdzghFIFb9Xq/gdd2HFXzNSQsczpcA8YFbQPEM1lqR1N5WhAcpQdDmludUCBW8AYTxNOOmOgQz3mCuLgf+tSELMOxmYhyuJZDMERKF9CBDw6AbIXnxPpj5XTLuah3vhk7DiryuSEN+MY/5HK4lEbjSrxfMTDBCgGIBBDLoBtAlvoIjvI4hvQxhCv6sgNL8SuJ+x4m/YPwUXGIVVfzl0PF5BJPIXs1pMt0x8A0X8fqp1A2gTn1TIKWbWUAAD4tcifnCGFXrWTUDRx0iIrTZC51OVVMKnW9TiOmQGcGQwQEA3QG7iK4ot8YR7iAUXge73pwLfOFFCz2fF0PlspSrNNpW4ckOWVrkzGEDAphsge/FdBPEdGk52kuiKMhR8qgT2p2KIvmBSpWN5hVpcH+E1+TW8Ho9uAGU/rpbKSSfaIBZVGcVvu9qCgpdJqS2D2MvlEF1pUiVyhVlzf66h/08Vg7oBtIsvFHdGggG8Wk52+MQqFNyioHuNCWKryjMSmmtViy9P/06tGUnIXroBtKVNZ66pPzi9Cridh6HgUuIbLdD1anlGok+a1OIr5vcby6q8CGjEoxugv4jL4iRnk/p71h8OfNMsCdz2GdD1jzJNtF1WqbkFo6CGLMQXYAreABlSJnHSJINhUnQ+djgkmo6SwNcdiam/ArpeL9NE8+FWzUM5FNSZpQEEbAVrAGEolO2ECT5m1yJ+5GIbCj5fQdxnhe63SzXRfotq+ncSDODLwQCugjSAmMb92QyvxJPsz3RSm+dNB37XMZAILpDAbZ8NPe+WaCZ0tIX2HKTWb8xBfAF/oRrAne1EidYUG99gR8EXSqldAPF/GyH+/jRNRN2las9Bav2uHA0AjRquGcwrAwj9XoaT4iYcIxRYgUwns2PZXEg0n6yA/dyMBpiqmfBJZs2tP2loS1UAgRyxF5oB1NI4I4idSwsLnTQTxT5dAb/1SGA/nqyZjruNWbX+JhsWssJUce64CsYAGtK4i9L6mYyp//NTUfAzpTQuBnbdNGA/naSZ5tnUvp9YlzTNqfI1HYVC5o6vIAygIY3n3PqZW45Gwc9RwG0+FA0wSTPM9WVZDdmaFuCo5BgUcWAwhWGAShSyAk8kDRM5FTaZqxgEaARnYdVfcx4K/icJfOAU4D4/WDM970yG4Ewr8TnwtRO/Eia4sMqLwIA5Uf1SsbwwQNMMLJRm4AklwzQdQpj00dC/xl7G1B+6UAH3TTFwX07QTOvFJvJzCK97+iHKW80WWW3BU1C8weBU9XWBYW+Apnko5Fw8mXTclP41gACN0OKZwIecSnbOA+7rcZqJvTCF+hzYRxOr9OAZVT4EBglXXhsgeFyVHwEqxxJW+xZUORBQI7p6MfDhy6Q0LcG+H9P6t2M1wW4YB80nWcnPcQx5wSZ0ttUe+qMVBhFP3hoA05sNASqnkKvg4AnYv56A2ymElxyOgl+hgPt5JnDfj9FMpLqM9hyB4PHkSZrQ+VYfAoOIL28N0HxmlRsBKg7CPX2nVRlVTYPE3j4LBb9KSvBi4LaM1kx05SQ1YxJTf/hCqxOBQSaQtwYInWdlEKBytlXRytAU1QjQCC05DPiWaxVwNdj6fzpQE/ENY7DlWYjxsU8m1iThpVZD+BIrg8Bgk5cGCF9ktWVwvo/SxwYQoNHx9Cko+PVSmrH/33aAZlr/x0SL7w+dZSWm/vCfre7w5fi69wVXWA35Z4ClVhcCKiiWfEN/stpCS1AIFdidV6Pof5USmAX8jgM00fH4VHr8863ENfqWq622liutsA+x550B8E35sn3TmDVcCNCI3DIHEq03SxH6/11Fmuh+bxw1NmYk6k0bLddY/Qhoof1vJaB13zTy0ADCZ+uoQOln/WpZI/bOeZCI3Cql4Tjga4oywm4+EFquMpNjX0qvxFuvt1QjoBV2+4GQzf4i+WWA1v+12Fr/im+MjqLybfmL1Yh9IajB1dyIot8pgQ+MUdzoSSJyRzktLoP9O3E6tvUmixHfC4OAFtofK03ebqZ1/zTyzAC3mB0IqOAj9LNOBGhEbjsCBXdJaT4b+N1FGYm+OhlUYlOnYoXXmeF9SOj5+mA0wFjI5hiR/DJA5A6zCwEVFEOtlmqLp+U6FIRC52sOFP1eCXyjDfjaIlVYHPapxKV+fEvkdnM1AlrpeNqEr2dKkmyOE8kzA9yDBrgH3xgdxfw3dgt+tW6j27cURb9/L62Y/uuLMtLuLiXHvBFT+w3k7+2JuMzGyF1mBgGtxL81pe48yuY4kfwyQNv9lS4EVFAa4GZMhSpwgdsh0fbgXsJLMN0WqdK9YSw95k1maupHg/oyGFhC5yrhjqNDUmRzrEieGeCRChcCKkimgCO3me0I0Gi7ZzqKvlwCH8Sxf8MBqjAPmsgxbzVTq34N5pXAPILm3C29CSWb40XyywDtj5lcCKggecORO81OBGh0PH8siv6oBL5htCrdnx1Mi8dgDUKs+tserrC1CR8SlQXxr2dBommOhGxjIPllgI4nTS4EVLDLUq5qzRB9/QwU/fG9tF6PIh+kCvOoiRzvbjNx/b39UZOBWV7hR0Ar0bdnoODHKMgmhkDb8gpbXhmg8zmTCwEVJAZoW4Zpdxm2BApdH1+Iwj+xl9A5ig97kHzww6aptFiBtvsqiYUfZiV3hqwlofOlKuU9CCLZxBHIu8WgzhXlzs4Xy4FOmWTaFVOgSy1Fdq29CBLM0yn45uNR6GlUOl4qJ8d6sNJJOslCRup4AjOTRqIvH4ojDOG+g0VEsoklkHcGiK4qtSOggiQNYxp0qaVIdgeOANqfS8E3YdHVWE6E21VOS7PEdfeOZ0wGHMMzwjheC50vmIH/TRDaQUVrLJH8uyAk9kqpMfZqKajgkqVf1aKR/fkOFP6FFHxjFZWuD8zkOG4TsfV3Pm/yIqCF6Eqs+HcKN52cS4WvPwu0xkvynMmbl9cDxFYbGeETuChIroPDNOhSS5HsThcKv7IPYQawaSaVzhcrFce3P2Eitn7sihzYXYEWoqsqMbucifXHf6vCbT8dtMYUoV4Uiq/POGwN0PVWsQ8BCpK0h2nQpZYm2V13o/ir+mi7XzHs6ofbcQQthqL1R18qNUQ9pUzUUwaZiL2C4v9yDvkqZBnsDgdoiZkGdUIKX59n2Bqge81UFwIUArI07FJLk9wv90Gi45U+hGsAZLd/99OzbibpeOLdN9GXS70IZCL2jwrgas4HPny5JuL+RaAlboq/lxLnJLAbNeB2Zvga4IMptu5/TQEaslTnQoAG9+sy6O18LUkichOKfSKR2BtW0vGKhafYa6X2DDVKiviWM5QXoKoQ/+oE0BoboV4Qits8wvZhfVFoz8cHBxCgYN+bjsvsCNBgv78WxV/dR+Q2LLYWK+AbFpGP95QpJlli/zT6EchE/MezgG+5Lit61h8NWmKLEO8JwBrJJm73DW8DfDrBE/9sAlCoTkvHtpiQbinEv/0ziv9mH8nrAAg3g+44WXEcxlW0sK43S+xdb5RAJno2LURBb8ya7k+OAC3xRYgjE3zcL253DWsDxNdPsCFAwSNLy0AjvuliFP/tJIm2ZcT7AeObFpCOVaT/rrenebvexkJUhZ7185TXHmokU2wJbxUrZiW7vNPcafs4h/2tYfGNY/3sxrFAICBLe37asLF77ULojb6bJNH2MPa1SxV0fzqbdKwk/WPxaeh+F4tQFXo+sqChsM6I3J41fON1kCl+GorxP74+h2wf27A3APv1GCcCRL4ZY0xLzR4ESHS/a4He2PtJEh3PYqq9SkH3+xb5cYrqHwtTJwJq8HXXKC890wj3ixMyxU/x/hRJ+u/+12QbPs6k75M3t4ez340KIKBg8yhnWuqr7npnGtDobX8LDfBv7AZexVR7gwLFMd5pihbW8+Ekb8+Hk4EG++MZisvOsoH1nwxq8dNBwVPpv+ejSUZ8bYxsH1/+GMC/fzUCBLxp6c/Y/R6mPQr87gfRAB9hN/AWnuxbJPCN15COUcyw4ciDoY1K4l9Mx1gPDAghhsqoJ51U/dPzyUQD/u8n7OPKq88IYn8aGUBAwdaRhrQ0GECABPvDJWiAT5LIUy8fuIJ0jGTJGUckNgRo8I3Y77c9kjst94FafBnJ2gRHQkb820/Zx55fBtg20sluR8GVONNSoRsBEvEv5kBvly9JghEuDHkgBV97NekYyQxbfN2EagRIcD8sxDjuAcH/egnQ4svwpUZI6yYwlH2YvPyYOPbn/Xzszv1Ahi8tHdp61k4EGom2N6G3ez0Wgqukl4fVViv2lT93/PPxbgRIJEL3Si84yQHup4VAiy9hwwQ7/nYgDH2f8Z78NMAvI4wIKKgZkWqtmBb9cR+2AgL8b/+HBvgC64A1mAWeSsHvvka+r2KNHYedPtJwlNu2UHKxSa6wX00BynA3HR/75Vi3hv0ceftRsexvI1wIyEgVbNhCnAiQYL87Cg3wJXYD63FUsCIFX3OpfF+lAb4a40dADt8srDQ+PyD4huuAFDtHmLz/tHB29wgfW4vC74VBUsVg/ItxDLtxHJDobV+DJvgah4P/RF5JkmhySfbB4xVDQPbb0aDAX7r3OoMBwG2fD8T4ufDNaHf+G6AWu4I+0dNNkCoG2U0HuRAgwQeuhd6e73A08DF2BW8mSTQvk++nGAKym5PzDhK4msUo4N8HRtuzQIo9AIwF8YURbO1IO1tXBGkE0mYPDdgSGAQUbJ6CBvi+Lwv0zw6GHpbv5yLMRSjmIRKhu1LLzLnC7z4fKHMcueArqK+MYetGVbN1B8JeRjvTZg+dtFaSCD6AJvhBHBauxW7hNfk+SgP8iCaT0dv5+oBht44DUuyc+KHIXnBfGsXWjfOw9eNBhGHrJxrSWq2P1FK4rSbojf+EJtgMe7o3JpHtozTA1uSkUwpupwUFfGtAJILXgTzuAPAV7PcGsvVTvWz9NBBJicduKbLRWksi/BDsiW+DPYIJsCYQviEsbbvSALIJKO7XWakVxlzhdhYDZXIrF+wFbIByA1tf4efqK6EPizGt5VaTWgy3sxz2sDuRHcg24OvOTd/uIUxC+RHoh2+6COuHD3KGb74S0uMNEG/Bf3Us1zDdwDXM8HMNNuAaZvpkrddHajWJ8F0o/i+wh/sV/747fZtyHmAXDj134WhDhA86UcgPcwPTP1tzEKTHSyE8TttGhkGMBW+APhPMRhPMQRPMQRPMTV0yxu7Yz4CtJKBoObvGYzewBfbwtVgMfpq+TWmAmhEeBPrhmy9FMdfmBB88F9Jj9cPVzYbejteACxQTt1OoLvjvDpaYoHGBgWs81ss1HsdwjScY01qwTWwtkhbEN52PGaAWcCiAJ74i9XimGUjhKqLernVZIyxEyWcyudpiSERuS24XLgwlzHTS8Bb8V8fSjXCah2tc7Je1Yhv7K544Gb3RN2BPohX40NK9j/8mTavs7hF2BPrhWy7vW1fIhq4PsT4pTsXg6kuAb70h+Xj/drZ2LKQ/jwoBNjDCoBtA5QdTrZMPLvHIWrITTxykw9WVJ4vB3u616Y87ZLOPhvSZR771Ctx/U1bw4QuArRuLRjsDM8FyxXau+XiQzW7SEGZBC/ebQ7MzwUU2vvlig6w1O+UnlQ+djlmgDWuHyv7HXIQpaH///lzTHOjt+TY7Ymuo2xLM3VrFF3Boff8FbwCV9QSHfD0h0fEUJNof7v/fT5h+drN1OEpAuKbD+qaUB4FEdHXfRJYYW5Xa/ZzZvE/dAOomsPWZYD9IUj8B++E1KO7hID4mzRx1BzjYulHQT2/8xwGTiOGQsH4SpMelc4Az2/eoGyDjVHKRka3b34+AANdoRhO8B+L/TuX+BgYBgd7oK32ziTnSG3unb/ZSjKcCPudoWy7vTzeAtkUlA1t3oLd/UYkLzsE++Xbhb5/a2kOCuVecTcyeROcKYBtKIW0dg0zdODTnWFuu7003QFZGOKhaqNKTlXrr5TjUu0wQwCaddp5sZ+ungAAXWgR7uJrsiG8BPlIN/THUmezG7sEwkPekGyDrdYUJNrb+4ACCBrgAh27nKdcF6ktxu9B6S7E1b0Vhd2si0fEc1hdzof9YFTB+iX0w3o9ugJxMMNXA1hdj6ysBtvFQFMQoEYOrNzu5eouw6ISjhsdhD9+gSm/nSuCbFkD/MXTMDFdf4RrM96IbYEBGKLejIChKpZ+w8MQgwAdPRJGbFfT2bIREmwuLyvkg7JcBjHWYS4g72O9BN8BAp5QbDkGxp3tRII9s4QkFOxIEkhM8XZ9hil/R9w1kjcdC/zZ1Zvu4hiOc+/L16wYYNCPMcqBg7r3/z0Nj/BfDNR4NWdEwH800rxox/h6vWzfAoJpgrkFg74LT8U6ucSHQOT7ANR4nrEy6uEa7/T/xmvelAf4f+7KKGoJmt80AAAAASUVORK5CYII=;" parent="up1Xrg0N40dvPqba2eU4-162" vertex="1">
          <mxGeometry y="17.313432835820894" width="18" height="18" as="geometry" />
        </mxCell>
        <mxCell id="up1Xrg0N40dvPqba2eU4-176" value="" style="group" parent="1" vertex="1" connectable="0">
          <mxGeometry x="458" y="465" width="30" height="44" as="geometry" />
        </mxCell>
        <mxCell id="up1Xrg0N40dvPqba2eU4-177" value="" style="sketch=0;aspect=fixed;pointerEvents=1;shadow=0;dashed=0;html=1;strokeColor=none;labelPosition=center;verticalLabelPosition=bottom;verticalAlign=top;align=center;fillColor=#3399FF;shape=mxgraph.mscae.enterprise.database_server;fontSize=12;fontColor=#990000;" parent="up1Xrg0N40dvPqba2eU4-176" vertex="1">
          <mxGeometry width="26.125" height="34.375" as="geometry" />
        </mxCell>
        <mxCell id="up1Xrg0N40dvPqba2eU4-178" value="" style="shape=image;imageAspect=0;aspect=fixed;verticalLabelPosition=bottom;verticalAlign=top;fontSize=13;fontColor=#000066;strokeColor=#000000;strokeWidth=3;fillColor=default;image=data:image/png,iVBORw0KGgoAAAANSUhEUgAAAIAAAACACAYAAADDPmHLAAAACXBIWXMAAAsTAAALEwEAmpwYAAAFFmlUWHRYTUw6Y29tLmFkb2JlLnhtcAAAAAAAPD94cGFja2V0IGJlZ2luPSLvu78iIGlkPSJXNU0wTXBDZWhpSHpyZVN6TlRjemtjOWQiPz4gPHg6eG1wbWV0YSB4bWxuczp4PSJhZG9iZTpuczptZXRhLyIgeDp4bXB0az0iQWRvYmUgWE1QIENvcmUgNi4wLWMwMDIgNzkuMTY0MzUyLCAyMDIwLzAxLzMwLTE1OjUwOjM4ICAgICAgICAiPiA8cmRmOlJERiB4bWxuczpyZGY9Imh0dHA6Ly93d3cudzMub3JnLzE5OTkvMDIvMjItcmRmLXN5bnRheC1ucyMiPiA8cmRmOkRlc2NyaXB0aW9uIHJkZjphYm91dD0iIiB4bWxuczp4bXA9Imh0dHA6Ly9ucy5hZG9iZS5jb20veGFwLzEuMC8iIHhtbG5zOmRjPSJodHRwOi8vcHVybC5vcmcvZGMvZWxlbWVudHMvMS4xLyIgeG1sbnM6cGhvdG9zaG9wPSJodHRwOi8vbnMuYWRvYmUuY29tL3Bob3Rvc2hvcC8xLjAvIiB4bWxuczp4bXBNTT0iaHR0cDovL25zLmFkb2JlLmNvbS94YXAvMS4wL21tLyIgeG1sbnM6c3RFdnQ9Imh0dHA6Ly9ucy5hZG9iZS5jb20veGFwLzEuMC9zVHlwZS9SZXNvdXJjZUV2ZW50IyIgeG1wOkNyZWF0b3JUb29sPSJBZG9iZSBQaG90b3Nob3AgMjEuMSAoV2luZG93cykiIHhtcDpDcmVhdGVEYXRlPSIyMDIxLTAyLTA4VDEzOjIwOjE0LTA1OjAwIiB4bXA6TW9kaWZ5RGF0ZT0iMjAyMS0wMi0wOFQxMzoyNToyMi0wNTowMCIgeG1wOk1ldGFkYXRhRGF0ZT0iMjAyMS0wMi0wOFQxMzoyNToyMi0wNTowMCIgZGM6Zm9ybWF0PSJpbWFnZS9wbmciIHBob3Rvc2hvcDpDb2xvck1vZGU9IjMiIHBob3Rvc2hvcDpJQ0NQcm9maWxlPSJzUkdCIElFQzYxOTY2LTIuMSIgeG1wTU06SW5zdGFuY2VJRD0ieG1wLmlpZDpmZmQ3MWYyOS1kNTg0LTQ3NGUtOTE5Zi0zMmM2N2ZiMDExMzIiIHhtcE1NOkRvY3VtZW50SUQ9InhtcC5kaWQ6ZmZkNzFmMjktZDU4NC00NzRlLTkxOWYtMzJjNjdmYjAxMTMyIiB4bXBNTTpPcmlnaW5hbERvY3VtZW50SUQ9InhtcC5kaWQ6ZmZkNzFmMjktZDU4NC00NzRlLTkxOWYtMzJjNjdmYjAxMTMyIj4gPHhtcE1NOkhpc3Rvcnk+IDxyZGY6U2VxPiA8cmRmOmxpIHN0RXZ0OmFjdGlvbj0iY3JlYXRlZCIgc3RFdnQ6aW5zdGFuY2VJRD0ieG1wLmlpZDpmZmQ3MWYyOS1kNTg0LTQ3NGUtOTE5Zi0zMmM2N2ZiMDExMzIiIHN0RXZ0OndoZW49IjIwMjEtMDItMDhUMTM6MjA6MTQtMDU6MDAiIHN0RXZ0OnNvZnR3YXJlQWdlbnQ9IkFkb2JlIFBob3Rvc2hvcCAyMS4xIChXaW5kb3dzKSIvPiA8L3JkZjpTZXE+IDwveG1wTU06SGlzdG9yeT4gPC9yZGY6RGVzY3JpcHRpb24+IDwvcmRmOlJERj4gPC94OnhtcG1ldGE+IDw/eHBhY2tldCBlbmQ9InIiPz4nnaAOAAAXvUlEQVR42u2deXzbVLbH57/SQKlLN7olTuLEdqDUpRS6PKiBshaKYdg6PMBQGAZ4QIB58NjNUtZ+MAw7lJoOy0zZDAVmWApuC6VsxQW60BJwszp24iiJncSSnJ535CiuJd0ry07KJLby+Xw/SSzp2Nbvd889917J/gMA/GFfMNx/wqYqw1B5LftKo6ROugGoBnAhRt0AhWsAJ+LTDVC4BrAjIPxW2y/+XGm1boD8NoAvgwHsiE03QP4ZwCgaQDULiAZw6AbIMwOIJoBMWQDFNyIu3QD5bYBMWcCtGyD/DaCWBXy6AfLfAAI23QCFbQCPboDCNgCQpoh1AxSWAaoJw0DdAAVkgIBugMKYCLJRDCApBlF8pz4MzO+pYFArBoVJIH0iKH9XA2kGYNIM4BWygG6APDNAyFTlQkAFh2iAgFAH6AbIPwP4MhjAg8IbEBB+6wbIPwMwGQzAxJ8vdQgZYF+/Ft0Av7/4xgziJ+lylfvjL5R6M8VrNVrsiBdhkADiQYy6AYauAaq1GKDn0TJgX1S/IgiFdorCu0Qj2MTHBCPYdAMMTQN4M4nfOt8CrMcI7EqjTUV8gyi+ILoP8YsIfzuEv3UDDD3xDVpaf/QGE/RgARhSuXy8P/WLf/vE/40IiI8FtHQFugGGWPoPH2oFLAAheqNJ+N+ewQCuNAMIgoPQBaSbQjfAUDJAWVUAATWYP1YC+4oR2haZhf9dKgaw9af5tAzgF9N/f/dg0A0wdMR30kQPmvb+HX862ff3/+/LUAT6xaLPLRrCJo4IhJGAR68BhtBPczm2/nIUlUDQ2vc7stAM3OoSiN5Unvwfj2EyGMAomsAjtnynmA18Wlq/boDfT3xnc5+gRIIz+353P1QK3BvFEDnBnL49o5Ci8C4Rhz4RNLTENwgtmWoACxrgSGz9J5qBf2saxFeUyPfR1wKGuQHcaq2/eToaYD5W/iuLgXtnGrRfYpLvU60bYJgaQGi9quILYOtvv9kE/Jqp2P9PhRAOA2X7uHQDDEMDZEz9IqFTrcB5pwD/wWSI3Wkk7ePVDTCEDUCbrBGEy9j6hcLv2WJIfDgpSfhIC2kf/ZrAoWoAFN8ZItzQIaRtLeJHTquAxMcHJ+m6u4S2n26AoWiAUFlVtTC5QxDfoUX80HRM/a9Pgt5PJyRpIbf+jHMBugH+M+J7EDdBfJuWfj+Z+t1TIeGbkCT2QInqvroBhogBxMJO6Ns9lG1+LeK3X1wGiQ3jk/BrJ0LLBRbNBgiWVxkFdAP8/uIbRYGJ6+woij8ozOplIHyUGfhPsOVvHJ8k9kwJhM9XP0b2PIbgINYFugG0id+f2v2kqVkUxKNF/Gbs9+OrJ0Liq7FJOOz7W6+1YgawajaA+HzC49W6AX7feXzBADaCGG4t4gvElk+GxDdjUrQ/WAatN1ggfHZOBmCC5QP/vEHdAOriu9Tm5FEAp1bxmaVGSGw2pOh+cxJEbrIkCZ+magCf7Dltads8ugH2nfieNPGdBPEdWsVvWWgCfsuBKbhvDNB2VyVEbrUkCS/OygB22XajboDBr/TTq3k3QXybmIIz9/uHWYDbNAr4H/dP0YmFX+QOS4qwQ9UAXjUDNA1wqlg3gLLY86vNwolVuGbx4+8bgN9WlKL7g/HQ5rJICNlVDSBZDELB7U19wqdj1w0wwB9Cq/bLiyxRfL/mou9JHOr9PDIF9/0oYB6qhLb7LBJC81UN4JQZwEUwgEc3wMDElxdzghFIFb9Xq/gdd2HFXzNSQsczpcA8YFbQPEM1lqR1N5WhAcpQdDmludUCBW8AYTxNOOmOgQz3mCuLgf+tSELMOxmYhyuJZDMERKF9CBDw6AbIXnxPpj5XTLuah3vhk7DiryuSEN+MY/5HK4lEbjSrxfMTDBCgGIBBDLoBtAlvoIjvI4hvQxhCv6sgNL8SuJ+x4m/YPwUXGIVVfzl0PF5BJPIXs1pMt0x8A0X8fqp1A2gTn1TIKWbWUAAD4tcifnCGFXrWTUDRx0iIrTZC51OVVMKnW9TiOmQGcGQwQEA3QG7iK4ot8YR7iAUXge73pwLfOFFCz2fF0PlspSrNNpW4ckOWVrkzGEDAphsge/FdBPEdGk52kuiKMhR8qgT2p2KIvmBSpWN5hVpcH+E1+TW8Ho9uAGU/rpbKSSfaIBZVGcVvu9qCgpdJqS2D2MvlEF1pUiVyhVlzf66h/08Vg7oBtIsvFHdGggG8Wk52+MQqFNyioHuNCWKryjMSmmtViy9P/06tGUnIXroBtKVNZ66pPzi9Cridh6HgUuIbLdD1anlGok+a1OIr5vcby6q8CGjEoxugv4jL4iRnk/p71h8OfNMsCdz2GdD1jzJNtF1WqbkFo6CGLMQXYAreABlSJnHSJINhUnQ+djgkmo6SwNcdiam/ArpeL9NE8+FWzUM5FNSZpQEEbAVrAGEolO2ECT5m1yJ+5GIbCj5fQdxnhe63SzXRfotq+ncSDODLwQCugjSAmMb92QyvxJPsz3RSm+dNB37XMZAILpDAbZ8NPe+WaCZ0tIX2HKTWb8xBfAF/oRrAne1EidYUG99gR8EXSqldAPF/GyH+/jRNRN2las9Bav2uHA0AjRquGcwrAwj9XoaT4iYcIxRYgUwns2PZXEg0n6yA/dyMBpiqmfBJZs2tP2loS1UAgRyxF5oB1NI4I4idSwsLnTQTxT5dAb/1SGA/nqyZjruNWbX+JhsWssJUce64CsYAGtK4i9L6mYyp//NTUfAzpTQuBnbdNGA/naSZ5tnUvp9YlzTNqfI1HYVC5o6vIAygIY3n3PqZW45Gwc9RwG0+FA0wSTPM9WVZDdmaFuCo5BgUcWAwhWGAShSyAk8kDRM5FTaZqxgEaARnYdVfcx4K/icJfOAU4D4/WDM970yG4Ewr8TnwtRO/Eia4sMqLwIA5Uf1SsbwwQNMMLJRm4AklwzQdQpj00dC/xl7G1B+6UAH3TTFwX07QTOvFJvJzCK97+iHKW80WWW3BU1C8weBU9XWBYW+Apnko5Fw8mXTclP41gACN0OKZwIecSnbOA+7rcZqJvTCF+hzYRxOr9OAZVT4EBglXXhsgeFyVHwEqxxJW+xZUORBQI7p6MfDhy6Q0LcG+H9P6t2M1wW4YB80nWcnPcQx5wSZ0ttUe+qMVBhFP3hoA05sNASqnkKvg4AnYv56A2ymElxyOgl+hgPt5JnDfj9FMpLqM9hyB4PHkSZrQ+VYfAoOIL28N0HxmlRsBKg7CPX2nVRlVTYPE3j4LBb9KSvBi4LaM1kx05SQ1YxJTf/hCqxOBQSaQtwYInWdlEKBytlXRytAU1QjQCC05DPiWaxVwNdj6fzpQE/ENY7DlWYjxsU8m1iThpVZD+BIrg8Bgk5cGCF9ktWVwvo/SxwYQoNHx9Cko+PVSmrH/33aAZlr/x0SL7w+dZSWm/vCfre7w5fi69wVXWA35Z4ClVhcCKiiWfEN/stpCS1AIFdidV6Pof5USmAX8jgM00fH4VHr8863ENfqWq622liutsA+x550B8E35sn3TmDVcCNCI3DIHEq03SxH6/11Fmuh+bxw1NmYk6k0bLddY/Qhoof1vJaB13zTy0ADCZ+uoQOln/WpZI/bOeZCI3Cql4Tjga4oywm4+EFquMpNjX0qvxFuvt1QjoBV2+4GQzf4i+WWA1v+12Fr/im+MjqLybfmL1Yh9IajB1dyIot8pgQ+MUdzoSSJyRzktLoP9O3E6tvUmixHfC4OAFtofK03ebqZ1/zTyzAC3mB0IqOAj9LNOBGhEbjsCBXdJaT4b+N1FGYm+OhlUYlOnYoXXmeF9SOj5+mA0wFjI5hiR/DJA5A6zCwEVFEOtlmqLp+U6FIRC52sOFP1eCXyjDfjaIlVYHPapxKV+fEvkdnM1AlrpeNqEr2dKkmyOE8kzA9yDBrgH3xgdxfw3dgt+tW6j27cURb9/L62Y/uuLMtLuLiXHvBFT+w3k7+2JuMzGyF1mBgGtxL81pe48yuY4kfwyQNv9lS4EVFAa4GZMhSpwgdsh0fbgXsJLMN0WqdK9YSw95k1maupHg/oyGFhC5yrhjqNDUmRzrEieGeCRChcCKkimgCO3me0I0Gi7ZzqKvlwCH8Sxf8MBqjAPmsgxbzVTq34N5pXAPILm3C29CSWb40XyywDtj5lcCKggecORO81OBGh0PH8siv6oBL5htCrdnx1Mi8dgDUKs+tserrC1CR8SlQXxr2dBommOhGxjIPllgI4nTS4EVLDLUq5qzRB9/QwU/fG9tF6PIh+kCvOoiRzvbjNx/b39UZOBWV7hR0Ar0bdnoODHKMgmhkDb8gpbXhmg8zmTCwEVJAZoW4Zpdxm2BApdH1+Iwj+xl9A5ig97kHzww6aptFiBtvsqiYUfZiV3hqwlofOlKuU9CCLZxBHIu8WgzhXlzs4Xy4FOmWTaFVOgSy1Fdq29CBLM0yn45uNR6GlUOl4qJ8d6sNJJOslCRup4AjOTRqIvH4ojDOG+g0VEsoklkHcGiK4qtSOggiQNYxp0qaVIdgeOANqfS8E3YdHVWE6E21VOS7PEdfeOZ0wGHMMzwjheC50vmIH/TRDaQUVrLJH8uyAk9kqpMfZqKajgkqVf1aKR/fkOFP6FFHxjFZWuD8zkOG4TsfV3Pm/yIqCF6Eqs+HcKN52cS4WvPwu0xkvynMmbl9cDxFYbGeETuChIroPDNOhSS5HsThcKv7IPYQawaSaVzhcrFce3P2Eitn7sihzYXYEWoqsqMbucifXHf6vCbT8dtMYUoV4Uiq/POGwN0PVWsQ8BCpK0h2nQpZYm2V13o/ir+mi7XzHs6ofbcQQthqL1R18qNUQ9pUzUUwaZiL2C4v9yDvkqZBnsDgdoiZkGdUIKX59n2Bqge81UFwIUArI07FJLk9wv90Gi45U+hGsAZLd/99OzbibpeOLdN9GXS70IZCL2jwrgas4HPny5JuL+RaAlboq/lxLnJLAbNeB2Zvga4IMptu5/TQEaslTnQoAG9+sy6O18LUkichOKfSKR2BtW0vGKhafYa6X2DDVKiviWM5QXoKoQ/+oE0BoboV4Qits8wvZhfVFoz8cHBxCgYN+bjsvsCNBgv78WxV/dR+Q2LLYWK+AbFpGP95QpJlli/zT6EchE/MezgG+5Lit61h8NWmKLEO8JwBrJJm73DW8DfDrBE/9sAlCoTkvHtpiQbinEv/0ziv9mH8nrAAg3g+44WXEcxlW0sK43S+xdb5RAJno2LURBb8ya7k+OAC3xRYgjE3zcL253DWsDxNdPsCFAwSNLy0AjvuliFP/tJIm2ZcT7AeObFpCOVaT/rrenebvexkJUhZ7185TXHmokU2wJbxUrZiW7vNPcafs4h/2tYfGNY/3sxrFAICBLe37asLF77ULojb6bJNH2MPa1SxV0fzqbdKwk/WPxaeh+F4tQFXo+sqChsM6I3J41fON1kCl+GorxP74+h2wf27A3APv1GCcCRL4ZY0xLzR4ESHS/a4He2PtJEh3PYqq9SkH3+xb5cYrqHwtTJwJq8HXXKC890wj3ixMyxU/x/hRJ+u/+12QbPs6k75M3t4ez340KIKBg8yhnWuqr7npnGtDobX8LDfBv7AZexVR7gwLFMd5pihbW8+Ekb8+Hk4EG++MZisvOsoH1nwxq8dNBwVPpv+ejSUZ8bYxsH1/+GMC/fzUCBLxp6c/Y/R6mPQr87gfRAB9hN/AWnuxbJPCN15COUcyw4ciDoY1K4l9Mx1gPDAghhsqoJ51U/dPzyUQD/u8n7OPKq88IYn8aGUBAwdaRhrQ0GECABPvDJWiAT5LIUy8fuIJ0jGTJGUckNgRo8I3Y77c9kjst94FafBnJ2gRHQkb820/Zx55fBtg20sluR8GVONNSoRsBEvEv5kBvly9JghEuDHkgBV97NekYyQxbfN2EagRIcD8sxDjuAcH/egnQ4svwpUZI6yYwlH2YvPyYOPbn/Xzszv1Ahi8tHdp61k4EGom2N6G3ez0Wgqukl4fVViv2lT93/PPxbgRIJEL3Si84yQHup4VAiy9hwwQ7/nYgDH2f8Z78NMAvI4wIKKgZkWqtmBb9cR+2AgL8b/+HBvgC64A1mAWeSsHvvka+r2KNHYedPtJwlNu2UHKxSa6wX00BynA3HR/75Vi3hv0ceftRsexvI1wIyEgVbNhCnAiQYL87Cg3wJXYD63FUsCIFX3OpfF+lAb4a40dADt8srDQ+PyD4huuAFDtHmLz/tHB29wgfW4vC74VBUsVg/ItxDLtxHJDobV+DJvgah4P/RF5JkmhySfbB4xVDQPbb0aDAX7r3OoMBwG2fD8T4ufDNaHf+G6AWu4I+0dNNkCoG2U0HuRAgwQeuhd6e73A08DF2BW8mSTQvk++nGAKym5PzDhK4msUo4N8HRtuzQIo9AIwF8YURbO1IO1tXBGkE0mYPDdgSGAQUbJ6CBvi+Lwv0zw6GHpbv5yLMRSjmIRKhu1LLzLnC7z4fKHMcueArqK+MYetGVbN1B8JeRjvTZg+dtFaSCD6AJvhBHBauxW7hNfk+SgP8iCaT0dv5+oBht44DUuyc+KHIXnBfGsXWjfOw9eNBhGHrJxrSWq2P1FK4rSbojf+EJtgMe7o3JpHtozTA1uSkUwpupwUFfGtAJILXgTzuAPAV7PcGsvVTvWz9NBBJicduKbLRWksi/BDsiW+DPYIJsCYQviEsbbvSALIJKO7XWakVxlzhdhYDZXIrF+wFbIByA1tf4efqK6EPizGt5VaTWgy3sxz2sDuRHcg24OvOTd/uIUxC+RHoh2+6COuHD3KGb74S0uMNEG/Bf3Us1zDdwDXM8HMNNuAaZvpkrddHajWJ8F0o/i+wh/sV/747fZtyHmAXDj134WhDhA86UcgPcwPTP1tzEKTHSyE8TttGhkGMBW+APhPMRhPMQRPMQRPMTV0yxu7Yz4CtJKBoObvGYzewBfbwtVgMfpq+TWmAmhEeBPrhmy9FMdfmBB88F9Jj9cPVzYbejteACxQTt1OoLvjvDpaYoHGBgWs81ss1HsdwjScY01qwTWwtkhbEN52PGaAWcCiAJ74i9XimGUjhKqLernVZIyxEyWcyudpiSERuS24XLgwlzHTS8Bb8V8fSjXCah2tc7Je1Yhv7K544Gb3RN2BPohX40NK9j/8mTavs7hF2BPrhWy7vW1fIhq4PsT4pTsXg6kuAb70h+Xj/drZ2LKQ/jwoBNjDCoBtA5QdTrZMPLvHIWrITTxykw9WVJ4vB3u616Y87ZLOPhvSZR771Ctx/U1bw4QuArRuLRjsDM8FyxXau+XiQzW7SEGZBC/ebQ7MzwUU2vvlig6w1O+UnlQ+djlmgDWuHyv7HXIQpaH///lzTHOjt+TY7Ymuo2xLM3VrFF3Boff8FbwCV9QSHfD0h0fEUJNof7v/fT5h+drN1OEpAuKbD+qaUB4FEdHXfRJYYW5Xa/ZzZvE/dAOomsPWZYD9IUj8B++E1KO7hID4mzRx1BzjYulHQT2/8xwGTiOGQsH4SpMelc4Az2/eoGyDjVHKRka3b34+AANdoRhO8B+L/TuX+BgYBgd7oK32ziTnSG3unb/ZSjKcCPudoWy7vTzeAtkUlA1t3oLd/UYkLzsE++Xbhb5/a2kOCuVecTcyeROcKYBtKIW0dg0zdODTnWFuu7003QFZGOKhaqNKTlXrr5TjUu0wQwCaddp5sZ+ungAAXWgR7uJrsiG8BPlIN/THUmezG7sEwkPekGyDrdYUJNrb+4ACCBrgAh27nKdcF6ktxu9B6S7E1b0Vhd2si0fEc1hdzof9YFTB+iX0w3o9ugJxMMNXA1hdj6ysBtvFQFMQoEYOrNzu5eouw6ISjhsdhD9+gSm/nSuCbFkD/MXTMDFdf4RrM96IbYEBGKLejIChKpZ+w8MQgwAdPRJGbFfT2bIREmwuLyvkg7JcBjHWYS4g72O9BN8BAp5QbDkGxp3tRII9s4QkFOxIEkhM8XZ9hil/R9w1kjcdC/zZ1Zvu4hiOc+/L16wYYNCPMcqBg7r3/z0Nj/BfDNR4NWdEwH800rxox/h6vWzfAoJpgrkFg74LT8U6ucSHQOT7ANR4nrEy6uEa7/T/xmvelAf4f+7KKGoJmt80AAAAASUVORK5CYII=;" parent="up1Xrg0N40dvPqba2eU4-176" vertex="1">
          <mxGeometry y="17.875" width="26.125" height="26.125" as="geometry" />
        </mxCell>
        <mxCell id="up1Xrg0N40dvPqba2eU4-184" value="" style="shape=image;imageAspect=0;aspect=fixed;verticalLabelPosition=bottom;verticalAlign=top;fontSize=13;fontColor=#000066;strokeColor=#000000;strokeWidth=3;fillColor=default;image=data:image/png,iVBORw0KGgoAAAANSUhEUgAAAIAAAACACAYAAADDPmHLAAAACXBIWXMAAAsTAAALEwEAmpwYAAAFFmlUWHRYTUw6Y29tLmFkb2JlLnhtcAAAAAAAPD94cGFja2V0IGJlZ2luPSLvu78iIGlkPSJXNU0wTXBDZWhpSHpyZVN6TlRjemtjOWQiPz4gPHg6eG1wbWV0YSB4bWxuczp4PSJhZG9iZTpuczptZXRhLyIgeDp4bXB0az0iQWRvYmUgWE1QIENvcmUgNi4wLWMwMDIgNzkuMTY0MzUyLCAyMDIwLzAxLzMwLTE1OjUwOjM4ICAgICAgICAiPiA8cmRmOlJERiB4bWxuczpyZGY9Imh0dHA6Ly93d3cudzMub3JnLzE5OTkvMDIvMjItcmRmLXN5bnRheC1ucyMiPiA8cmRmOkRlc2NyaXB0aW9uIHJkZjphYm91dD0iIiB4bWxuczp4bXA9Imh0dHA6Ly9ucy5hZG9iZS5jb20veGFwLzEuMC8iIHhtbG5zOmRjPSJodHRwOi8vcHVybC5vcmcvZGMvZWxlbWVudHMvMS4xLyIgeG1sbnM6cGhvdG9zaG9wPSJodHRwOi8vbnMuYWRvYmUuY29tL3Bob3Rvc2hvcC8xLjAvIiB4bWxuczp4bXBNTT0iaHR0cDovL25zLmFkb2JlLmNvbS94YXAvMS4wL21tLyIgeG1sbnM6c3RFdnQ9Imh0dHA6Ly9ucy5hZG9iZS5jb20veGFwLzEuMC9zVHlwZS9SZXNvdXJjZUV2ZW50IyIgeG1wOkNyZWF0b3JUb29sPSJBZG9iZSBQaG90b3Nob3AgMjEuMSAoV2luZG93cykiIHhtcDpDcmVhdGVEYXRlPSIyMDIxLTAyLTA4VDEzOjIwOjE0LTA1OjAwIiB4bXA6TW9kaWZ5RGF0ZT0iMjAyMS0wMi0wOFQxMzoyNToyMi0wNTowMCIgeG1wOk1ldGFkYXRhRGF0ZT0iMjAyMS0wMi0wOFQxMzoyNToyMi0wNTowMCIgZGM6Zm9ybWF0PSJpbWFnZS9wbmciIHBob3Rvc2hvcDpDb2xvck1vZGU9IjMiIHBob3Rvc2hvcDpJQ0NQcm9maWxlPSJzUkdCIElFQzYxOTY2LTIuMSIgeG1wTU06SW5zdGFuY2VJRD0ieG1wLmlpZDpmZmQ3MWYyOS1kNTg0LTQ3NGUtOTE5Zi0zMmM2N2ZiMDExMzIiIHhtcE1NOkRvY3VtZW50SUQ9InhtcC5kaWQ6ZmZkNzFmMjktZDU4NC00NzRlLTkxOWYtMzJjNjdmYjAxMTMyIiB4bXBNTTpPcmlnaW5hbERvY3VtZW50SUQ9InhtcC5kaWQ6ZmZkNzFmMjktZDU4NC00NzRlLTkxOWYtMzJjNjdmYjAxMTMyIj4gPHhtcE1NOkhpc3Rvcnk+IDxyZGY6U2VxPiA8cmRmOmxpIHN0RXZ0OmFjdGlvbj0iY3JlYXRlZCIgc3RFdnQ6aW5zdGFuY2VJRD0ieG1wLmlpZDpmZmQ3MWYyOS1kNTg0LTQ3NGUtOTE5Zi0zMmM2N2ZiMDExMzIiIHN0RXZ0OndoZW49IjIwMjEtMDItMDhUMTM6MjA6MTQtMDU6MDAiIHN0RXZ0OnNvZnR3YXJlQWdlbnQ9IkFkb2JlIFBob3Rvc2hvcCAyMS4xIChXaW5kb3dzKSIvPiA8L3JkZjpTZXE+IDwveG1wTU06SGlzdG9yeT4gPC9yZGY6RGVzY3JpcHRpb24+IDwvcmRmOlJERj4gPC94OnhtcG1ldGE+IDw/eHBhY2tldCBlbmQ9InIiPz4nnaAOAAAXvUlEQVR42u2deXzbVLbH57/SQKlLN7olTuLEdqDUpRS6PKiBshaKYdg6PMBQGAZ4QIB58NjNUtZ+MAw7lJoOy0zZDAVmWApuC6VsxQW60BJwszp24iiJncSSnJ535CiuJd0ry07KJLby+Xw/SSzp2Nbvd889917J/gMA/GFfMNx/wqYqw1B5LftKo6ROugGoBnAhRt0AhWsAJ+LTDVC4BrAjIPxW2y/+XGm1boD8NoAvgwHsiE03QP4ZwCgaQDULiAZw6AbIMwOIJoBMWQDFNyIu3QD5bYBMWcCtGyD/DaCWBXy6AfLfAAI23QCFbQCPboDCNgCQpoh1AxSWAaoJw0DdAAVkgIBugMKYCLJRDCApBlF8pz4MzO+pYFArBoVJIH0iKH9XA2kGYNIM4BWygG6APDNAyFTlQkAFh2iAgFAH6AbIPwP4MhjAg8IbEBB+6wbIPwMwGQzAxJ8vdQgZYF+/Ft0Av7/4xgziJ+lylfvjL5R6M8VrNVrsiBdhkADiQYy6AYauAaq1GKDn0TJgX1S/IgiFdorCu0Qj2MTHBCPYdAMMTQN4M4nfOt8CrMcI7EqjTUV8gyi+ILoP8YsIfzuEv3UDDD3xDVpaf/QGE/RgARhSuXy8P/WLf/vE/40IiI8FtHQFugGGWPoPH2oFLAAheqNJ+N+ewQCuNAMIgoPQBaSbQjfAUDJAWVUAATWYP1YC+4oR2haZhf9dKgaw9af5tAzgF9N/f/dg0A0wdMR30kQPmvb+HX862ff3/+/LUAT6xaLPLRrCJo4IhJGAR68BhtBPczm2/nIUlUDQ2vc7stAM3OoSiN5Unvwfj2EyGMAomsAjtnynmA18Wlq/boDfT3xnc5+gRIIz+353P1QK3BvFEDnBnL49o5Ci8C4Rhz4RNLTENwgtmWoACxrgSGz9J5qBf2saxFeUyPfR1wKGuQHcaq2/eToaYD5W/iuLgXtnGrRfYpLvU60bYJgaQGi9quILYOtvv9kE/Jqp2P9PhRAOA2X7uHQDDEMDZEz9IqFTrcB5pwD/wWSI3Wkk7ePVDTCEDUCbrBGEy9j6hcLv2WJIfDgpSfhIC2kf/ZrAoWoAFN8ZItzQIaRtLeJHTquAxMcHJ+m6u4S2n26AoWiAUFlVtTC5QxDfoUX80HRM/a9Pgt5PJyRpIbf+jHMBugH+M+J7EDdBfJuWfj+Z+t1TIeGbkCT2QInqvroBhogBxMJO6Ns9lG1+LeK3X1wGiQ3jk/BrJ0LLBRbNBgiWVxkFdAP8/uIbRYGJ6+woij8ozOplIHyUGfhPsOVvHJ8k9kwJhM9XP0b2PIbgINYFugG0id+f2v2kqVkUxKNF/Gbs9+OrJ0Liq7FJOOz7W6+1YgawajaA+HzC49W6AX7feXzBADaCGG4t4gvElk+GxDdjUrQ/WAatN1ggfHZOBmCC5QP/vEHdAOriu9Tm5FEAp1bxmaVGSGw2pOh+cxJEbrIkCZ+magCf7Dltads8ugH2nfieNPGdBPEdWsVvWWgCfsuBKbhvDNB2VyVEbrUkCS/OygB22XajboDBr/TTq3k3QXybmIIz9/uHWYDbNAr4H/dP0YmFX+QOS4qwQ9UAXjUDNA1wqlg3gLLY86vNwolVuGbx4+8bgN9WlKL7g/HQ5rJICNlVDSBZDELB7U19wqdj1w0wwB9Cq/bLiyxRfL/mou9JHOr9PDIF9/0oYB6qhLb7LBJC81UN4JQZwEUwgEc3wMDElxdzghFIFb9Xq/gdd2HFXzNSQsczpcA8YFbQPEM1lqR1N5WhAcpQdDmludUCBW8AYTxNOOmOgQz3mCuLgf+tSELMOxmYhyuJZDMERKF9CBDw6AbIXnxPpj5XTLuah3vhk7DiryuSEN+MY/5HK4lEbjSrxfMTDBCgGIBBDLoBtAlvoIjvI4hvQxhCv6sgNL8SuJ+x4m/YPwUXGIVVfzl0PF5BJPIXs1pMt0x8A0X8fqp1A2gTn1TIKWbWUAAD4tcifnCGFXrWTUDRx0iIrTZC51OVVMKnW9TiOmQGcGQwQEA3QG7iK4ot8YR7iAUXge73pwLfOFFCz2fF0PlspSrNNpW4ckOWVrkzGEDAphsge/FdBPEdGk52kuiKMhR8qgT2p2KIvmBSpWN5hVpcH+E1+TW8Ho9uAGU/rpbKSSfaIBZVGcVvu9qCgpdJqS2D2MvlEF1pUiVyhVlzf66h/08Vg7oBtIsvFHdGggG8Wk52+MQqFNyioHuNCWKryjMSmmtViy9P/06tGUnIXroBtKVNZ66pPzi9Cridh6HgUuIbLdD1anlGok+a1OIr5vcby6q8CGjEoxugv4jL4iRnk/p71h8OfNMsCdz2GdD1jzJNtF1WqbkFo6CGLMQXYAreABlSJnHSJINhUnQ+djgkmo6SwNcdiam/ArpeL9NE8+FWzUM5FNSZpQEEbAVrAGEolO2ECT5m1yJ+5GIbCj5fQdxnhe63SzXRfotq+ncSDODLwQCugjSAmMb92QyvxJPsz3RSm+dNB37XMZAILpDAbZ8NPe+WaCZ0tIX2HKTWb8xBfAF/oRrAne1EidYUG99gR8EXSqldAPF/GyH+/jRNRN2las9Bav2uHA0AjRquGcwrAwj9XoaT4iYcIxRYgUwns2PZXEg0n6yA/dyMBpiqmfBJZs2tP2loS1UAgRyxF5oB1NI4I4idSwsLnTQTxT5dAb/1SGA/nqyZjruNWbX+JhsWssJUce64CsYAGtK4i9L6mYyp//NTUfAzpTQuBnbdNGA/naSZ5tnUvp9YlzTNqfI1HYVC5o6vIAygIY3n3PqZW45Gwc9RwG0+FA0wSTPM9WVZDdmaFuCo5BgUcWAwhWGAShSyAk8kDRM5FTaZqxgEaARnYdVfcx4K/icJfOAU4D4/WDM970yG4Ewr8TnwtRO/Eia4sMqLwIA5Uf1SsbwwQNMMLJRm4AklwzQdQpj00dC/xl7G1B+6UAH3TTFwX07QTOvFJvJzCK97+iHKW80WWW3BU1C8weBU9XWBYW+Apnko5Fw8mXTclP41gACN0OKZwIecSnbOA+7rcZqJvTCF+hzYRxOr9OAZVT4EBglXXhsgeFyVHwEqxxJW+xZUORBQI7p6MfDhy6Q0LcG+H9P6t2M1wW4YB80nWcnPcQx5wSZ0ttUe+qMVBhFP3hoA05sNASqnkKvg4AnYv56A2ymElxyOgl+hgPt5JnDfj9FMpLqM9hyB4PHkSZrQ+VYfAoOIL28N0HxmlRsBKg7CPX2nVRlVTYPE3j4LBb9KSvBi4LaM1kx05SQ1YxJTf/hCqxOBQSaQtwYInWdlEKBytlXRytAU1QjQCC05DPiWaxVwNdj6fzpQE/ENY7DlWYjxsU8m1iThpVZD+BIrg8Bgk5cGCF9ktWVwvo/SxwYQoNHx9Cko+PVSmrH/33aAZlr/x0SL7w+dZSWm/vCfre7w5fi69wVXWA35Z4ClVhcCKiiWfEN/stpCS1AIFdidV6Pof5USmAX8jgM00fH4VHr8863ENfqWq622liutsA+x550B8E35sn3TmDVcCNCI3DIHEq03SxH6/11Fmuh+bxw1NmYk6k0bLddY/Qhoof1vJaB13zTy0ADCZ+uoQOln/WpZI/bOeZCI3Cql4Tjga4oywm4+EFquMpNjX0qvxFuvt1QjoBV2+4GQzf4i+WWA1v+12Fr/im+MjqLybfmL1Yh9IajB1dyIot8pgQ+MUdzoSSJyRzktLoP9O3E6tvUmixHfC4OAFtofK03ebqZ1/zTyzAC3mB0IqOAj9LNOBGhEbjsCBXdJaT4b+N1FGYm+OhlUYlOnYoXXmeF9SOj5+mA0wFjI5hiR/DJA5A6zCwEVFEOtlmqLp+U6FIRC52sOFP1eCXyjDfjaIlVYHPapxKV+fEvkdnM1AlrpeNqEr2dKkmyOE8kzA9yDBrgH3xgdxfw3dgt+tW6j27cURb9/L62Y/uuLMtLuLiXHvBFT+w3k7+2JuMzGyF1mBgGtxL81pe48yuY4kfwyQNv9lS4EVFAa4GZMhSpwgdsh0fbgXsJLMN0WqdK9YSw95k1maupHg/oyGFhC5yrhjqNDUmRzrEieGeCRChcCKkimgCO3me0I0Gi7ZzqKvlwCH8Sxf8MBqjAPmsgxbzVTq34N5pXAPILm3C29CSWb40XyywDtj5lcCKggecORO81OBGh0PH8siv6oBL5htCrdnx1Mi8dgDUKs+tserrC1CR8SlQXxr2dBommOhGxjIPllgI4nTS4EVLDLUq5qzRB9/QwU/fG9tF6PIh+kCvOoiRzvbjNx/b39UZOBWV7hR0Ar0bdnoODHKMgmhkDb8gpbXhmg8zmTCwEVJAZoW4Zpdxm2BApdH1+Iwj+xl9A5ig97kHzww6aptFiBtvsqiYUfZiV3hqwlofOlKuU9CCLZxBHIu8WgzhXlzs4Xy4FOmWTaFVOgSy1Fdq29CBLM0yn45uNR6GlUOl4qJ8d6sNJJOslCRup4AjOTRqIvH4ojDOG+g0VEsoklkHcGiK4qtSOggiQNYxp0qaVIdgeOANqfS8E3YdHVWE6E21VOS7PEdfeOZ0wGHMMzwjheC50vmIH/TRDaQUVrLJH8uyAk9kqpMfZqKajgkqVf1aKR/fkOFP6FFHxjFZWuD8zkOG4TsfV3Pm/yIqCF6Eqs+HcKN52cS4WvPwu0xkvynMmbl9cDxFYbGeETuChIroPDNOhSS5HsThcKv7IPYQawaSaVzhcrFce3P2Eitn7sihzYXYEWoqsqMbucifXHf6vCbT8dtMYUoV4Uiq/POGwN0PVWsQ8BCpK0h2nQpZYm2V13o/ir+mi7XzHs6ofbcQQthqL1R18qNUQ9pUzUUwaZiL2C4v9yDvkqZBnsDgdoiZkGdUIKX59n2Bqge81UFwIUArI07FJLk9wv90Gi45U+hGsAZLd/99OzbibpeOLdN9GXS70IZCL2jwrgas4HPny5JuL+RaAlboq/lxLnJLAbNeB2Zvga4IMptu5/TQEaslTnQoAG9+sy6O18LUkichOKfSKR2BtW0vGKhafYa6X2DDVKiviWM5QXoKoQ/+oE0BoboV4Qits8wvZhfVFoz8cHBxCgYN+bjsvsCNBgv78WxV/dR+Q2LLYWK+AbFpGP95QpJlli/zT6EchE/MezgG+5Lit61h8NWmKLEO8JwBrJJm73DW8DfDrBE/9sAlCoTkvHtpiQbinEv/0ziv9mH8nrAAg3g+44WXEcxlW0sK43S+xdb5RAJno2LURBb8ya7k+OAC3xRYgjE3zcL253DWsDxNdPsCFAwSNLy0AjvuliFP/tJIm2ZcT7AeObFpCOVaT/rrenebvexkJUhZ7185TXHmokU2wJbxUrZiW7vNPcafs4h/2tYfGNY/3sxrFAICBLe37asLF77ULojb6bJNH2MPa1SxV0fzqbdKwk/WPxaeh+F4tQFXo+sqChsM6I3J41fON1kCl+GorxP74+h2wf27A3APv1GCcCRL4ZY0xLzR4ESHS/a4He2PtJEh3PYqq9SkH3+xb5cYrqHwtTJwJq8HXXKC890wj3ixMyxU/x/hRJ+u/+12QbPs6k75M3t4ez340KIKBg8yhnWuqr7npnGtDobX8LDfBv7AZexVR7gwLFMd5pihbW8+Ekb8+Hk4EG++MZisvOsoH1nwxq8dNBwVPpv+ejSUZ8bYxsH1/+GMC/fzUCBLxp6c/Y/R6mPQr87gfRAB9hN/AWnuxbJPCN15COUcyw4ciDoY1K4l9Mx1gPDAghhsqoJ51U/dPzyUQD/u8n7OPKq88IYn8aGUBAwdaRhrQ0GECABPvDJWiAT5LIUy8fuIJ0jGTJGUckNgRo8I3Y77c9kjst94FafBnJ2gRHQkb820/Zx55fBtg20sluR8GVONNSoRsBEvEv5kBvly9JghEuDHkgBV97NekYyQxbfN2EagRIcD8sxDjuAcH/egnQ4svwpUZI6yYwlH2YvPyYOPbn/Xzszv1Ahi8tHdp61k4EGom2N6G3ez0Wgqukl4fVViv2lT93/PPxbgRIJEL3Si84yQHup4VAiy9hwwQ7/nYgDH2f8Z78NMAvI4wIKKgZkWqtmBb9cR+2AgL8b/+HBvgC64A1mAWeSsHvvka+r2KNHYedPtJwlNu2UHKxSa6wX00BynA3HR/75Vi3hv0ceftRsexvI1wIyEgVbNhCnAiQYL87Cg3wJXYD63FUsCIFX3OpfF+lAb4a40dADt8srDQ+PyD4huuAFDtHmLz/tHB29wgfW4vC74VBUsVg/ItxDLtxHJDobV+DJvgah4P/RF5JkmhySfbB4xVDQPbb0aDAX7r3OoMBwG2fD8T4ufDNaHf+G6AWu4I+0dNNkCoG2U0HuRAgwQeuhd6e73A08DF2BW8mSTQvk++nGAKym5PzDhK4msUo4N8HRtuzQIo9AIwF8YURbO1IO1tXBGkE0mYPDdgSGAQUbJ6CBvi+Lwv0zw6GHpbv5yLMRSjmIRKhu1LLzLnC7z4fKHMcueArqK+MYetGVbN1B8JeRjvTZg+dtFaSCD6AJvhBHBauxW7hNfk+SgP8iCaT0dv5+oBht44DUuyc+KHIXnBfGsXWjfOw9eNBhGHrJxrSWq2P1FK4rSbojf+EJtgMe7o3JpHtozTA1uSkUwpupwUFfGtAJILXgTzuAPAV7PcGsvVTvWz9NBBJicduKbLRWksi/BDsiW+DPYIJsCYQviEsbbvSALIJKO7XWakVxlzhdhYDZXIrF+wFbIByA1tf4efqK6EPizGt5VaTWgy3sxz2sDuRHcg24OvOTd/uIUxC+RHoh2+6COuHD3KGb74S0uMNEG/Bf3Us1zDdwDXM8HMNNuAaZvpkrddHajWJ8F0o/i+wh/sV/747fZtyHmAXDj134WhDhA86UcgPcwPTP1tzEKTHSyE8TttGhkGMBW+APhPMRhPMQRPMQRPMTV0yxu7Yz4CtJKBoObvGYzewBfbwtVgMfpq+TWmAmhEeBPrhmy9FMdfmBB88F9Jj9cPVzYbejteACxQTt1OoLvjvDpaYoHGBgWs81ss1HsdwjScY01qwTWwtkhbEN52PGaAWcCiAJ74i9XimGUjhKqLernVZIyxEyWcyudpiSERuS24XLgwlzHTS8Bb8V8fSjXCah2tc7Je1Yhv7K544Gb3RN2BPohX40NK9j/8mTavs7hF2BPrhWy7vW1fIhq4PsT4pTsXg6kuAb70h+Xj/drZ2LKQ/jwoBNjDCoBtA5QdTrZMPLvHIWrITTxykw9WVJ4vB3u616Y87ZLOPhvSZR771Ctx/U1bw4QuArRuLRjsDM8FyxXau+XiQzW7SEGZBC/ebQ7MzwUU2vvlig6w1O+UnlQ+djlmgDWuHyv7HXIQpaH///lzTHOjt+TY7Ymuo2xLM3VrFF3Boff8FbwCV9QSHfD0h0fEUJNof7v/fT5h+drN1OEpAuKbD+qaUB4FEdHXfRJYYW5Xa/ZzZvE/dAOomsPWZYD9IUj8B++E1KO7hID4mzRx1BzjYulHQT2/8xwGTiOGQsH4SpMelc4Az2/eoGyDjVHKRka3b34+AANdoRhO8B+L/TuX+BgYBgd7oK32ziTnSG3unb/ZSjKcCPudoWy7vTzeAtkUlA1t3oLd/UYkLzsE++Xbhb5/a2kOCuVecTcyeROcKYBtKIW0dg0zdODTnWFuu7003QFZGOKhaqNKTlXrr5TjUu0wQwCaddp5sZ+ungAAXWgR7uJrsiG8BPlIN/THUmezG7sEwkPekGyDrdYUJNrb+4ACCBrgAh27nKdcF6ktxu9B6S7E1b0Vhd2si0fEc1hdzof9YFTB+iX0w3o9ugJxMMNXA1hdj6ysBtvFQFMQoEYOrNzu5eouw6ISjhsdhD9+gSm/nSuCbFkD/MXTMDFdf4RrM96IbYEBGKLejIChKpZ+w8MQgwAdPRJGbFfT2bIREmwuLyvkg7JcBjHWYS4g72O9BN8BAp5QbDkGxp3tRII9s4QkFOxIEkhM8XZ9hil/R9w1kjcdC/zZ1Zvu4hiOc+/L16wYYNCPMcqBg7r3/z0Nj/BfDNR4NWdEwH800rxox/h6vWzfAoJpgrkFg74LT8U6ucSHQOT7ANR4nrEy6uEa7/T/xmvelAf4f+7KKGoJmt80AAAAASUVORK5CYII=;" parent="1" vertex="1">
          <mxGeometry x="380.30125399969523" y="445.00333333333333" width="20.30888888888889" height="20.30888888888889" as="geometry" />
        </mxCell>
        <mxCell id="up1Xrg0N40dvPqba2eU4-183" value="" style="sketch=0;aspect=fixed;pointerEvents=1;shadow=0;dashed=0;html=1;strokeColor=none;labelPosition=center;verticalLabelPosition=bottom;verticalAlign=top;align=center;fillColor=#00188D;shape=mxgraph.mscae.enterprise.client_application" parent="1" vertex="1">
          <mxGeometry x="372.91999999999996" y="434.55" width="35.07558888888889" height="22.446666666666665" as="geometry" />
        </mxCell>
        <mxCell id="Wj5X16Naryxrr8yU5PpH-1" value="" style="endArrow=classic;startArrow=classic;html=1;rounded=0;curved=1;endFill=1;startFill=1;entryX=0.97;entryY=0.89;entryDx=0;entryDy=0;entryPerimeter=0;strokeColor=#0000FF;strokeWidth=3;dashed=1;dashPattern=1 1;" parent="1" edge="1">
          <mxGeometry width="50" height="50" relative="1" as="geometry">
            <mxPoint x="860" y="350" as="sourcePoint" />
            <mxPoint x="680.0000000000001" y="160.00000000000006" as="targetPoint" />
          </mxGeometry>
        </mxCell>
        <mxCell id="Wj5X16Naryxrr8yU5PpH-2" value="" style="endArrow=classic;startArrow=classic;html=1;rounded=0;curved=1;endFill=1;startFill=1;entryX=0.645;entryY=0.988;entryDx=0;entryDy=0;entryPerimeter=0;strokeColor=#0000FF;strokeWidth=3;dashed=1;dashPattern=1 1;" parent="1" target="up1Xrg0N40dvPqba2eU4-11" edge="1">
          <mxGeometry width="50" height="50" relative="1" as="geometry">
            <mxPoint x="650" y="210" as="sourcePoint" />
            <mxPoint x="640" y="160.00000000000006" as="targetPoint" />
          </mxGeometry>
        </mxCell>
        <mxCell id="Wj5X16Naryxrr8yU5PpH-3" value="or" style="text;html=1;align=center;verticalAlign=middle;resizable=0;points=[];autosize=1;strokeColor=none;fillColor=none;fontSize=14;" parent="1" vertex="1">
          <mxGeometry x="343" y="435" width="30" height="20" as="geometry" />
        </mxCell>
        <mxCell id="DCpz461SD5RySQQ2BxRp-2" value="" style="endArrow=classic;startArrow=classic;html=1;rounded=0;curved=1;endFill=1;startFill=1;strokeColor=#0000FF;strokeWidth=3;dashed=1;dashPattern=1 1;exitX=0.972;exitY=0.025;exitDx=0;exitDy=0;exitPerimeter=0;" parent="1" source="up1Xrg0N40dvPqba2eU4-7" target="up1Xrg0N40dvPqba2eU4-11" edge="1">
          <mxGeometry width="50" height="50" relative="1" as="geometry">
            <mxPoint x="660" y="220" as="sourcePoint" />
            <mxPoint x="659.0050000000001" y="169.03999999999996" as="targetPoint" />
          </mxGeometry>
        </mxCell>
      </root>
    </mxGraphModel>
  </diagram>
</mxfile>
